# Made in Blockbench 5.1.6
mtllib more_decor_press.mtl

o mesh
v -0.4999999999999999 -0.1875 -0.5000000000000001
v 0.5000000000000001 -0.1875 -0.4999999999999999
v 0.5000000000000001 -0.5 -0.4999999999999999
v -0.4999999999999999 -0.5 -0.5000000000000001
v 0.4999999999999999 -0.5 0.5000000000000001
v 0.4999999999999999 -0.1875 0.5000000000000001
v -0.5000000000000001 -0.1875 0.4999999999999999
v -0.5000000000000001 -0.5 0.4999999999999999
vt 0.6875 0.625
vt 0.4375 0.625
vt 0.4375 0.546875
vt 0.6875 0.546875
vt 0.6875 0.453125
vt 0.6875 0.53125
vt 0.4375 0.53125
vt 0.4375 0.453125
vt 0.25 0.75
vt 0.25 1
vt 0 1
vt 0 0.75
vt 0 0.484375
vt 0.25 0.484375
vt 0.25 0.734375
vt 0 0.734375
vt 0.6875 0.734375
vt 0.6875 0.8125
vt 0.4375 0.8125
vt 0.4375 0.734375
vt 0.6875 0.71875
vt 0.4375 0.71875
vt 0.4375 0.640625
vt 0.6875 0.640625
vn 2.220446049250313e-16 0 -1
vn -2.220446049250313e-16 0 1
vn 0 1 0
vn 0 -1 0
vn 1 0 2.220446049250313e-16
vn -1 0 -2.220446049250313e-16
usemtl m_d6dd3b12-7959-0791-935a-754b216dc207
f 1/1/1 2/2/1 3/3/1 4/4/1
f 5/5/2 6/6/2 7/7/2 8/8/2
f 6/9/3 2/10/3 1/11/3 7/12/3
f 4/13/4 3/14/4 5/15/4 8/16/4
f 3/17/5 2/18/5 6/19/5 5/20/5
f 7/21/6 1/22/6 4/23/6 8/24/6
o mesh
v -0.37499999999999994 0.5 -0.3125000000000001
v -0.24999999999999994 0.5 -0.3125000000000001
v -0.24999999999999994 -0.1875 -0.3125000000000001
v -0.37499999999999994 -0.1875 -0.3125000000000001
v -0.25000000000000006 -0.1875 0.3124999999999999
v -0.25000000000000006 0.5 0.3124999999999999
v -0.3750000000000001 0.5 0.3124999999999999
v -0.3750000000000001 -0.1875 0.3124999999999999
vt 0.03125 0.46875
vt 0 0.46875
vt 0 0.296875
vt 0.03125 0.296875
vt 0.078125 0.296875
vt 0.078125 0.46875
vt 0.046875 0.46875
vt 0.046875 0.296875
vt 0.21875 0.3125
vt 0.21875 0.46875
vt 0.1875 0.46875
vt 0.1875 0.3125
vt 0.234375 0.28125
vt 0.265625 0.28125
vt 0.265625 0.4375
vt 0.234375 0.4375
vt 0.421875 0.828125
vt 0.421875 1
vt 0.265625 1
vt 0.265625 0.828125
vt 0.421875 0.8125
vt 0.265625 0.8125
vt 0.265625 0.640625
vt 0.421875 0.640625
vn 0 0 -1
vn 0 0 1
vn 0 1 0
vn 0 -1 0
vn 1 0 1.7763568394002506e-16
vn -1 0 -2.6645352591003756e-16
usemtl m_d6dd3b12-7959-0791-935a-754b216dc207
f 9/25/7 10/26/7 11/27/7 12/28/7
f 13/29/8 14/30/8 15/31/8 16/32/8
f 14/33/9 10/34/9 9/35/9 15/36/9
f 12/37/10 11/38/10 13/39/10 16/40/10
f 11/41/11 10/42/11 14/43/11 13/44/11
f 15/45/12 9/46/12 12/47/12 16/48/12
o mesh
v 0.25000000000000006 0.5 -0.3125000000000001
v 0.37500000000000006 0.5 -0.3125000000000001
v 0.37500000000000006 -0.1875 -0.3125000000000001
v 0.25000000000000006 -0.1875 -0.3125000000000001
v 0.37499999999999994 -0.1875 0.3124999999999999
v 0.37499999999999994 0.5 0.3124999999999999
v 0.2499999999999999 0.5 0.3124999999999999
v 0.2499999999999999 -0.1875 0.3124999999999999
vt 0.125 0.46875
vt 0.09375 0.46875
vt 0.09375 0.296875
vt 0.125 0.296875
vt 0.171875 0.296875
vt 0.171875 0.46875
vt 0.140625 0.46875
vt 0.140625 0.296875
vt 0.3125 0.28125
vt 0.3125 0.4375
vt 0.28125 0.4375
vt 0.28125 0.28125
vt 0.328125 0.28125
vt 0.359375 0.28125
vt 0.359375 0.4375
vt 0.328125 0.4375
vt 0.421875 0.453125
vt 0.421875 0.625
vt 0.265625 0.625
vt 0.265625 0.453125
vt 0.59375 1
vt 0.4375 1
vt 0.4375 0.828125
vt 0.59375 0.828125
vn 0 0 -1
vn 0 0 1
vn 0 1 0
vn 0 -1 0
vn 1 0 1.7763568394002506e-16
vn -1 0 -2.6645352591003756e-16
usemtl m_d6dd3b12-7959-0791-935a-754b216dc207
f 17/49/13 18/50/13 19/51/13 20/52/13
f 21/53/14 22/54/14 23/55/14 24/56/14
f 22/57/15 18/58/15 17/59/15 23/60/15
f 20/61/16 19/62/16 21/63/16 24/64/16
f 19/65/17 18/66/17 22/67/17 21/68/17
f 23/69/18 17/70/18 20/71/18 24/72/18