# Made in Blockbench 5.1.6
mtllib more_decor_chisel_bench.mtl

o plate
v 0.5 0.4375 -0.5
v 0.5 0.4375 0.5
v 0.5 0.25 0.5
v 0.5 0.25 -0.5
v -0.5 0.25 0.5
v -0.5 0.4375 0.5
v -0.5 0.4375 -0.5
v -0.5 0.25 -0.5
vt 0.515625 1
vt 0.265625 1
vt 0.265625 0.953125
vt 0.515625 0.953125
vt 0.515625 0.890625
vt 0.515625 0.9375
vt 0.265625 0.9375
vt 0.265625 0.890625
vt 0 0.75
vt 0.25 0.75
vt 0.25 1
vt 0 1
vt 0.25 0.484375
vt 0.25 0.734375
vt 0 0.734375
vt 0 0.484375
vt 0.515625 0.828125
vt 0.515625 0.875
vt 0.265625 0.875
vt 0.265625 0.828125
vt 0.515625 0.8125
vt 0.265625 0.8125
vt 0.265625 0.765625
vt 0.515625 0.765625
vn 1 0 0
vn -1 0 0
vn 0 1 0
vn 0 -1 0
vn 0 0 1
vn 0 0 -1
usemtl m_de50d94d-42dd-acdb-9fdb-1967ed223434
f 1/1/1 2/2/1 3/3/1 4/4/1
f 5/5/2 6/6/2 7/7/2 8/8/2
f 6/9/3 2/10/3 1/11/3 7/12/3
f 4/13/4 3/14/4 5/15/4 8/16/4
f 3/17/5 2/18/5 6/19/5 5/20/5
f 7/21/6 1/22/6 4/23/6 8/24/6
o legs
v -0.25 0.25 0.25
v -0.25 0.25 0.375
v -0.25 -0.5 0.375
v -0.25 -0.5 0.25
v -0.375 -0.5 0.375
v -0.375 0.25 0.375
v -0.375 0.25 0.25
v -0.375 -0.5 0.25
v -0.25 0.25 -0.375
v -0.25 0.25 -0.25
v -0.25 -0.5 -0.25
v -0.25 -0.5 -0.375
v -0.375 -0.5 -0.25
v -0.375 0.25 -0.25
v -0.375 0.25 -0.375
v -0.375 -0.5 -0.375
v 0.375 0.25 -0.375
v 0.375 0.25 -0.25
v 0.375 -0.5 -0.25
v 0.375 -0.5 -0.375
v 0.25 -0.5 -0.25
v 0.25 0.25 -0.25
v 0.25 0.25 -0.375
v 0.25 -0.5 -0.375
v 0.375 0.25 0.25
v 0.375 0.25 0.375
v 0.375 -0.5 0.375
v 0.375 -0.5 0.25
v 0.25 -0.5 0.375
v 0.25 0.25 0.375
v 0.25 0.25 0.25
v 0.25 -0.5 0.25
vt 0.296875 0.75
vt 0.265625 0.75
vt 0.265625 0.5625
vt 0.296875 0.5625
vt 0.34375 0.5625
vt 0.34375 0.75
vt 0.3125 0.75
vt 0.3125 0.5625
vt 0.609375 0.40625
vt 0.640625 0.40625
vt 0.640625 0.4375
vt 0.609375 0.4375
vt 0.640625 0.359375
vt 0.640625 0.390625
vt 0.609375 0.390625
vt 0.609375 0.359375
vt 0.390625 0.5625
vt 0.390625 0.75
vt 0.359375 0.75
vt 0.359375 0.5625
vt 0.4375 0.75
vt 0.40625 0.75
vt 0.40625 0.5625
vt 0.4375 0.5625
vt 0.484375 0.75
vt 0.453125 0.75
vt 0.453125 0.5625
vt 0.484375 0.5625
vt 0.296875 0.359375
vt 0.296875 0.546875
vt 0.265625 0.546875
vt 0.265625 0.359375
vt 0.140625 0.328125
vt 0.171875 0.328125
vt 0.171875 0.359375
vt 0.140625 0.359375
vt 0.21875 0.328125
vt 0.21875 0.359375
vt 0.1875 0.359375
vt 0.1875 0.328125
vt 0.34375 0.359375
vt 0.34375 0.546875
vt 0.3125 0.546875
vt 0.3125 0.359375
vt 0.390625 0.546875
vt 0.359375 0.546875
vt 0.359375 0.359375
vt 0.390625 0.359375
vt 0.4375 0.546875
vt 0.40625 0.546875
vt 0.40625 0.359375
vt 0.4375 0.359375
vt 0.484375 0.359375
vt 0.484375 0.546875
vt 0.453125 0.546875
vt 0.453125 0.359375
vt 0.546875 0.328125
vt 0.578125 0.328125
vt 0.578125 0.359375
vt 0.546875 0.359375
vt 0.265625 0.3125
vt 0.265625 0.34375
vt 0.234375 0.34375
vt 0.234375 0.3125
vt 0.53125 0.5625
vt 0.53125 0.75
vt 0.5 0.75
vt 0.5 0.5625
vt 0.53125 0.546875
vt 0.5 0.546875
vt 0.5 0.359375
vt 0.53125 0.359375
vt 0.03125 0.46875
vt 0 0.46875
vt 0 0.28125
vt 0.03125 0.28125
vt 0.5625 0.8125
vt 0.5625 1
vt 0.53125 1
vt 0.53125 0.8125
vt 0.28125 0.3125
vt 0.3125 0.3125
vt 0.3125 0.34375
vt 0.28125 0.34375
vt 0.359375 0.3125
vt 0.359375 0.34375
vt 0.328125 0.34375
vt 0.328125 0.3125
vt 0.078125 0.28125
vt 0.078125 0.46875
vt 0.046875 0.46875
vt 0.046875 0.28125
vt 0.125 0.46875
vt 0.09375 0.46875
vt 0.09375 0.28125
vt 0.125 0.28125
vn 1 0 0
vn -1 0 0
vn 0 1 0
vn 0 -1 0
vn 0 0 1
vn 0 0 -1
vn 1 0 0
vn -1 0 0
vn 0 1 0
vn 0 -1 0
vn 0 0 1
vn 0 0 -1
vn 1 0 0
vn -1 0 0
vn 0 1 0
vn 0 -1 0
vn 0 0 1
vn 0 0 -1
vn 1 0 0
vn -1 0 0
vn 0 1 0
vn 0 -1 0
vn 0 0 1
vn 0 0 -1
usemtl m_de50d94d-42dd-acdb-9fdb-1967ed223434
f 9/25/7 10/26/7 11/27/7 12/28/7
f 13/29/8 14/30/8 15/31/8 16/32/8
f 14/33/9 10/34/9 9/35/9 15/36/9
f 12/37/10 11/38/10 13/39/10 16/40/10
f 11/41/11 10/42/11 14/43/11 13/44/11
f 15/45/12 9/46/12 12/47/12 16/48/12
f 17/49/13 18/50/13 19/51/13 20/52/13
f 21/53/14 22/54/14 23/55/14 24/56/14
f 22/57/15 18/58/15 17/59/15 23/60/15
f 20/61/16 19/62/16 21/63/16 24/64/16
f 19/65/17 18/66/17 22/67/17 21/68/17
f 23/69/18 17/70/18 20/71/18 24/72/18
f 25/73/19 26/74/19 27/75/19 28/76/19
f 29/77/20 30/78/20 31/79/20 32/80/20
f 30/81/21 26/82/21 25/83/21 31/84/21
f 28/85/22 27/86/22 29/87/22 32/88/22
f 27/89/23 26/90/23 30/91/23 29/92/23
f 31/93/24 25/94/24 28/95/24 32/96/24
f 33/97/25 34/98/25 35/99/25 36/100/25
f 37/101/26 38/102/26 39/103/26 40/104/26
f 38/105/27 34/106/27 33/107/27 39/108/27
f 36/109/28 35/110/28 37/111/28 40/112/28
f 35/113/29 34/114/29 38/115/29 37/116/29
f 39/117/30 33/118/30 36/119/30 40/120/30
o brick3
v 0.3614284275994664 0.6875 0.25302364246600295
v -0.013214655493730243 0.6875 0.2693809127280039
v -0.013214655493730243 0.5625 0.2693809127280039
v 0.3614284275994664 0.5625 0.25302364246600295
v -0.02139329062473072 0.5625 0.08205937118140555
v -0.02139329062473072 0.6875 0.08205937118140555
v 0.35324979246846594 0.6875 0.0657021009194046
v 0.35324979246846594 0.5625 0.0657021009194046
vt 0.671875 1
vt 0.578125 1
vt 0.578125 0.96875
vt 0.671875 0.96875
vt 0.671875 0.921875
vt 0.671875 0.953125
vt 0.578125 0.953125
vt 0.578125 0.921875
vt 0.140625 0.375
vt 0.1875 0.375
vt 0.1875 0.46875
vt 0.140625 0.46875
vt 0.25 0.375
vt 0.25 0.46875
vt 0.203125 0.46875
vt 0.203125 0.375
vt 0.65625 0.6875
vt 0.65625 0.71875
vt 0.609375 0.71875
vt 0.609375 0.6875
vt 0.65625 0.671875
vt 0.609375 0.671875
vt 0.609375 0.640625
vt 0.65625 0.640625
vn 0.04361938736533588 0 0.9990482215818578
vn -0.04361938736533588 0 -0.9990482215818578
vn 0 1 0
vn 0 -1 0
vn -0.9990482215818578 0 0.043619387365335875
vn 0.9990482215818578 0 -0.043619387365335875
usemtl m_de50d94d-42dd-acdb-9fdb-1967ed223434
f 41/121/31 42/122/31 43/123/31 44/124/31
f 45/125/32 46/126/32 47/127/32 48/128/32
f 46/129/33 42/130/33 41/131/33 47/132/33
f 44/133/34 43/134/34 45/135/34 48/136/34
f 43/137/35 42/138/35 46/139/35 45/140/35
f 47/141/36 41/142/36 44/143/36 48/144/36
o chisel
v -0.33261768578644113 0.5 0.24317553032787675
v -0.3434706968906243 0.5 0.1816250457646138
v -0.3434706968906243 0.4375 0.1816250457646138
v -0.33261768578644113 0.4375 0.24317553032787675
v -0.2819202123273613 0.4375 0.17077203466043056
v -0.2819202123273613 0.5 0.17077203466043056
v -0.2710672012231781 0.5 0.23232251922369362
v -0.2710672012231781 0.4375 0.23232251922369362
v -0.4050211814538873 0.5 0.19247805686879693
v -0.41587419255807045 0.5 0.13092757230553387
v -0.41587419255807045 0.4375 0.13092757230553387
v -0.4050211814538873 0.4375 0.19247805686879693
v -0.3543237079948075 0.4375 0.12007456120135074
v -0.3543237079948075 0.5 0.12007456120135074
v -0.3434706968906243 0.5 0.1816250457646138
v -0.3434706968906243 0.4375 0.1816250457646138
v -0.3434706968906243 0.5 0.1816250457646138
v -0.3543237079948075 0.5 0.12007456120135074
v -0.3543237079948075 0.4375 0.12007456120135074
v -0.3434706968906243 0.4375 0.1816250457646138
v -0.29277322343154444 0.4375 0.1092215500971675
v -0.29277322343154444 0.5 0.1092215500971675
v -0.2819202123273613 0.5 0.17077203466043056
v -0.2819202123273613 0.4375 0.17077203466043056
v -0.2819202123273613 0.5 0.17077203466043056
v -0.29277322343154444 0.5 0.1092215500971675
v -0.29277322343154444 0.4375 0.1092215500971675
v -0.2819202123273613 0.4375 0.17077203466043056
v -0.23122273886828137 0.4375 0.09836853899298437
v -0.23122273886828137 0.5 0.09836853899298437
v -0.22036972776409824 0.5 0.15991902355624743
v -0.22036972776409824 0.4375 0.15991902355624743
v -0.3543237079948075 0.5 0.12007456120135074
v -0.36517671909899063 0.5 0.058524076638087674
v -0.36517671909899063 0.4375 0.058524076638087674
v -0.3543237079948075 0.4375 0.12007456120135074
v -0.3036262345357276 0.4375 0.047671065533904544
v -0.3036262345357276 0.5 0.047671065533904544
v -0.29277322343154444 0.5 0.1092215500971675
v -0.29277322343154444 0.4375 0.1092215500971675
v -0.29277322343154444 0.5 0.1092215500971675
v -0.3036262345357276 0.5 0.047671065533904544
v -0.3036262345357276 0.4375 0.047671065533904544
v -0.29277322343154444 0.4375 0.1092215500971675
v -0.24207574997246456 0.4375 0.036818054429721414
v -0.24207574997246456 0.5 0.036818054429721414
v -0.23122273886828137 0.5 0.09836853899298437
v -0.23122273886828137 0.4375 0.09836853899298437
v -0.23122273886828137 0.5 0.09836853899298437
v -0.24207574997246456 0.5 0.036818054429721414
v -0.24207574997246456 0.4375 0.036818054429721414
v -0.23122273886828137 0.4375 0.09836853899298437
v -0.18052526540920166 0.4375 0.025965043325538173
v -0.18052526540920166 0.5 0.025965043325538173
v -0.16967225430501842 0.5 0.08751552788880113
v -0.16967225430501842 0.4375 0.08751552788880113
v -0.3036262345357276 0.5 0.047671065533904544
v -0.3144792456399108 0.5 -0.013879419029358409
v -0.3144792456399108 0.4375 -0.013879419029358409
v -0.3036262345357276 0.4375 0.047671065533904544
v -0.25292876107664775 0.4375 -0.02473243013354154
v -0.25292876107664775 0.5 -0.02473243013354154
v -0.24207574997246456 0.5 0.036818054429721414
v -0.24207574997246456 0.4375 0.036818054429721414
v -0.24207574997246456 0.5 0.036818054429721414
v -0.25292876107664775 0.5 -0.02473243013354154
v -0.25292876107664775 0.4375 -0.02473243013354154
v -0.24207574997246456 0.4375 0.036818054429721414
v -0.1913782765133848 0.4375 -0.03558544123772478
v -0.1913782765133848 0.5 -0.03558544123772478
v -0.18052526540920166 0.5 0.025965043325538173
v -0.18052526540920166 0.4375 0.025965043325538173
v -0.18052526540920166 0.5 0.025965043325538173
v -0.1913782765133848 0.5 -0.03558544123772478
v -0.1913782765133848 0.4375 -0.03558544123772478
v -0.18052526540920166 0.4375 0.025965043325538173
v -0.12982779195012184 0.4375 -0.04643845234190791
v -0.12982779195012184 0.5 -0.04643845234190791
v -0.11897478084593871 0.5 0.015112032221355043
v -0.11897478084593871 0.4375 0.015112032221355043
v -0.25292876107664775 0.5 -0.02473243013354154
v -0.2637817721808309 0.5 -0.0862829146968046
v -0.2637817721808309 0.4375 -0.0862829146968046
v -0.25292876107664775 0.4375 -0.02473243013354154
v -0.20223128761756792 0.4375 -0.09713592580098784
v -0.20223128761756792 0.5 -0.09713592580098784
v -0.1913782765133848 0.5 -0.03558544123772478
v -0.1913782765133848 0.4375 -0.03558544123772478
v -0.1913782765133848 0.5 -0.03558544123772478
v -0.20223128761756792 0.5 -0.09713592580098784
v -0.20223128761756792 0.4375 -0.09713592580098784
v -0.1913782765133848 0.4375 -0.03558544123772478
v -0.14068080305430497 0.4375 -0.10798893690517097
v -0.14068080305430497 0.5 -0.10798893690517097
v -0.12982779195012184 0.5 -0.04643845234190791
v -0.12982779195012184 0.4375 -0.04643845234190791
v -0.12982779195012184 0.5 -0.04643845234190791
v -0.14068080305430497 0.5 -0.10798893690517097
v -0.14068080305430497 0.4375 -0.10798893690517097
v -0.12982779195012184 0.4375 -0.04643845234190791
v -0.0791303184910419 0.4375 -0.1188419480093541
v -0.0791303184910419 0.5 -0.1188419480093541
v -0.06827730738685878 0.5 -0.05729146344609104
v -0.06827730738685878 0.4375 -0.05729146344609104
v -0.20223128761756792 0.5 -0.09713592580098784
v -0.21308429872175116 0.5 -0.1586864103642509
v -0.21308429872175116 0.4375 -0.1586864103642509
v -0.20223128761756792 0.4375 -0.09713592580098784
v -0.1515338141584882 0.4375 -0.16953942146843404
v -0.1515338141584882 0.5 -0.16953942146843404
v -0.14068080305430497 0.5 -0.10798893690517097
v -0.14068080305430497 0.4375 -0.10798893690517097
v -0.14068080305430497 0.5 -0.10798893690517097
v -0.1515338141584882 0.5 -0.16953942146843404
v -0.1515338141584882 0.4375 -0.16953942146843404
v -0.14068080305430497 0.4375 -0.10798893690517097
v -0.08998332959522515 0.4375 -0.18039243257261717
v -0.08998332959522515 0.5 -0.18039243257261717
v -0.0791303184910419 0.5 -0.1188419480093541
v -0.0791303184910419 0.4375 -0.1188419480093541
v -0.050138867240328344 0.5 -0.3143464128033262
v -0.039285856136145214 0.5 -0.25279592824006314
v -0.039285856136145214 0.4375 -0.25279592824006314
v -0.050138867240328344 0.4375 -0.3143464128033262
v -0.10083634069940817 0.4375 -0.24194291713588
v -0.10083634069940817 0.5 -0.24194291713588
v -0.1116893518035913 0.5 -0.3034934016991431
v -0.1116893518035913 0.4375 -0.3034934016991431
v 0.02226462842711785 0.5 -0.2636489393442465
v 0.03311763953130109 0.5 -0.20209845478098343
v 0.03311763953130109 0.4375 -0.20209845478098343
v 0.02226462842711785 0.4375 -0.2636489393442465
v -0.028432845031961973 0.4375 -0.1912454436768003
v -0.028432845031961973 0.5 -0.1912454436768003
v -0.039285856136145214 0.5 -0.25279592824006314
v -0.039285856136145214 0.4375 -0.25279592824006314
v -0.039285856136145214 0.5 -0.25279592824006314
v -0.028432845031961973 0.5 -0.1912454436768003
v -0.028432845031961973 0.4375 -0.1912454436768003
v -0.039285856136145214 0.4375 -0.25279592824006314
v -0.08998332959522504 0.4375 -0.18039243257261717
v -0.08998332959522504 0.5 -0.18039243257261717
v -0.10083634069940817 0.5 -0.24194291713588
v -0.10083634069940817 0.4375 -0.24194291713588
v 0.01141161732293472 0.5 -0.32519942390750955
v 0.02226462842711785 0.5 -0.2636489393442465
v 0.02226462842711785 0.4375 -0.2636489393442465
v 0.01141161732293472 0.4375 -0.32519942390750955
v -0.039285856136145214 0.4375 -0.25279592824006314
v -0.039285856136145214 0.5 -0.25279592824006314
v -0.050138867240328344 0.5 -0.3143464128033262
v -0.050138867240328344 0.4375 -0.3143464128033262
v 0.02226462842711785 0.5 -0.2636489393442465
v 0.01141161732293472 0.5 -0.32519942390750955
v 0.01141161732293472 0.4375 -0.32519942390750955
v 0.02226462842711785 0.4375 -0.2636489393442465
v 0.07296210188619767 0.4375 -0.3360524350116927
v 0.07296210188619767 0.5 -0.3360524350116927
v 0.0838151129903808 0.5 -0.2745019504484296
v 0.0838151129903808 0.4375 -0.2745019504484296
v -0.050138867240328344 0.5 -0.3143464128033262
v -0.060991878344511585 0.5 -0.37589689736658927
v -0.060991878344511585 0.4375 -0.37589689736658927
v -0.050138867240328344 0.4375 -0.3143464128033262
v 0.0005586062187514784 0.4375 -0.3867499084707724
v 0.0005586062187514784 0.5 -0.3867499084707724
v 0.01141161732293472 0.5 -0.32519942390750955
v 0.01141161732293472 0.4375 -0.32519942390750955
v 0.01141161732293472 0.5 -0.32519942390750955
v 0.0005586062187514784 0.5 -0.3867499084707724
v 0.0005586062187514784 0.4375 -0.3867499084707724
v 0.01141161732293472 0.4375 -0.32519942390750955
v 0.06210909078201443 0.4375 -0.39760291957495575
v 0.06210909078201443 0.5 -0.39760291957495575
v 0.07296210188619767 0.5 -0.3360524350116927
v 0.07296210188619767 0.4375 -0.3360524350116927
vt 0.390625 0.34375
vt 0.375 0.34375
vt 0.375 0.328125
vt 0.390625 0.328125
vt 0.421875 0.328125
vt 0.421875 0.34375
vt 0.40625 0.34375
vt 0.40625 0.328125
vt 0.453125 0.328125
vt 0.453125 0.34375
vt 0.4375 0.34375
vt 0.4375 0.328125
vt 0.484375 0.34375
vt 0.46875 0.34375
vt 0.46875 0.328125
vt 0.484375 0.328125
vt 0.5 0.328125
vt 0.515625 0.328125
vt 0.515625 0.34375
vt 0.5 0.34375
vt 0.671875 0.421875
vt 0.671875 0.4375
vt 0.65625 0.4375
vt 0.65625 0.421875
vt 0.609375 0.34375
vt 0.59375 0.34375
vt 0.59375 0.328125
vt 0.609375 0.328125
vt 0.671875 0.390625
vt 0.671875 0.40625
vt 0.65625 0.40625
vt 0.65625 0.390625
vt 0.640625 0.328125
vt 0.640625 0.34375
vt 0.625 0.34375
vt 0.625 0.328125
vt 0.671875 0.375
vt 0.65625 0.375
vt 0.65625 0.359375
vt 0.671875 0.359375
vt 0.65625 0.328125
vt 0.671875 0.328125
vt 0.671875 0.34375
vt 0.65625 0.34375
vt 0.6875 0.703125
vt 0.6875 0.71875
vt 0.671875 0.71875
vt 0.671875 0.703125
vt 0.6875 0.6875
vt 0.671875 0.6875
vt 0.671875 0.671875
vt 0.6875 0.671875
vt 0.6875 0.640625
vt 0.6875 0.65625
vt 0.671875 0.65625
vt 0.671875 0.640625
vt 0.6875 0.609375
vt 0.6875 0.625
vt 0.671875 0.625
vt 0.671875 0.609375
vt 0.6875 0.59375
vt 0.671875 0.59375
vt 0.671875 0.578125
vt 0.6875 0.578125
vt 0.671875 0.546875
vt 0.6875 0.546875
vt 0.6875 0.5625
vt 0.671875 0.5625
vt 0.6875 0.515625
vt 0.6875 0.53125
vt 0.671875 0.53125
vt 0.671875 0.515625
vt 0.6875 0.5
vt 0.671875 0.5
vt 0.671875 0.484375
vt 0.6875 0.484375
vt 0.6875 0.453125
vt 0.6875 0.46875
vt 0.671875 0.46875
vt 0.671875 0.453125
vt 0.703125 0.984375
vt 0.703125 1
vt 0.6875 1
vt 0.6875 0.984375
vt 0.703125 0.96875
vt 0.6875 0.96875
vt 0.6875 0.953125
vt 0.703125 0.953125
vt 0.6875 0.921875
vt 0.703125 0.921875
vt 0.703125 0.9375
vt 0.6875 0.9375
vt 0.703125 0.890625
vt 0.703125 0.90625
vt 0.6875 0.90625
vt 0.6875 0.890625
vt 0.703125 0.875
vt 0.6875 0.875
vt 0.6875 0.859375
vt 0.703125 0.859375
vt 0.15625 0.296875
vt 0.15625 0.3125
vt 0.140625 0.3125
vt 0.140625 0.296875
vt 0.703125 0.828125
vt 0.703125 0.84375
vt 0.6875 0.84375
vt 0.6875 0.828125
vt 0.1875 0.3125
vt 0.171875 0.3125
vt 0.171875 0.296875
vt 0.1875 0.296875
vt 0.203125 0.296875
vt 0.21875 0.296875
vt 0.21875 0.3125
vt 0.203125 0.3125
vt 0.390625 0.296875
vt 0.390625 0.3125
vt 0.375 0.3125
vt 0.375 0.296875
vt 0.421875 0.3125
vt 0.40625 0.3125
vt 0.40625 0.296875
vt 0.421875 0.296875
vt 0.453125 0.296875
vt 0.453125 0.3125
vt 0.4375 0.3125
vt 0.4375 0.296875
vt 0.484375 0.296875
vt 0.484375 0.3125
vt 0.46875 0.3125
vt 0.46875 0.296875
vt 0.515625 0.3125
vt 0.5 0.3125
vt 0.5 0.296875
vt 0.515625 0.296875
vt 0.53125 0.296875
vt 0.546875 0.296875
vt 0.546875 0.3125
vt 0.53125 0.3125
vt 0.578125 0.296875
vt 0.578125 0.3125
vt 0.5625 0.3125
vt 0.5625 0.296875
vt 0.703125 0.4375
vt 0.6875 0.4375
vt 0.6875 0.421875
vt 0.703125 0.421875
vt 0.609375 0.296875
vt 0.609375 0.3125
vt 0.59375 0.3125
vt 0.59375 0.296875
vt 0.703125 0.390625
vt 0.703125 0.40625
vt 0.6875 0.40625
vt 0.6875 0.390625
vt 0.640625 0.3125
vt 0.625 0.3125
vt 0.625 0.296875
vt 0.640625 0.296875
vt 0.6875 0.359375
vt 0.703125 0.359375
vt 0.703125 0.375
vt 0.6875 0.375
vt 0.671875 0.296875
vt 0.671875 0.3125
vt 0.65625 0.3125
vt 0.65625 0.296875
vt 0.703125 0.34375
vt 0.6875 0.34375
vt 0.6875 0.328125
vt 0.703125 0.328125
vt 0.703125 0.296875
vt 0.703125 0.3125
vt 0.6875 0.3125
vt 0.6875 0.296875
vt 0.25 0.28125
vt 0.25 0.296875
vt 0.234375 0.296875
vt 0.234375 0.28125
vt 0.28125 0.296875
vt 0.265625 0.296875
vt 0.265625 0.28125
vt 0.28125 0.28125
vt 0.703125 0.703125
vt 0.71875 0.703125
vt 0.71875 0.71875
vt 0.703125 0.71875
vt 0.3125 0.28125
vt 0.3125 0.296875
vt 0.296875 0.296875
vt 0.296875 0.28125
vt 0.71875 0.6875
vt 0.703125 0.6875
vt 0.703125 0.671875
vt 0.71875 0.671875
vt 0.34375 0.28125
vt 0.34375 0.296875
vt 0.328125 0.296875
vt 0.328125 0.28125
vt 0.71875 0.640625
vt 0.71875 0.65625
vt 0.703125 0.65625
vt 0.703125 0.640625
vt 0.71875 0.625
vt 0.703125 0.625
vt 0.703125 0.609375
vt 0.71875 0.609375
vt 0.703125 0.578125
vt 0.71875 0.578125
vt 0.71875 0.59375
vt 0.703125 0.59375
vt 0.71875 0.546875
vt 0.71875 0.5625
vt 0.703125 0.5625
vt 0.703125 0.546875
vt 0.71875 0.53125
vt 0.703125 0.53125
vt 0.703125 0.515625
vt 0.71875 0.515625
vt 0.71875 0.484375
vt 0.71875 0.5
vt 0.703125 0.5
vt 0.703125 0.484375
vt 0.71875 0.453125
vt 0.71875 0.46875
vt 0.703125 0.46875
vt 0.703125 0.453125
vt 0.734375 1
vt 0.71875 1
vt 0.71875 0.984375
vt 0.734375 0.984375
vt 0.71875 0.953125
vt 0.734375 0.953125
vt 0.734375 0.96875
vt 0.71875 0.96875
vt 0.734375 0.921875
vt 0.734375 0.9375
vt 0.71875 0.9375
vt 0.71875 0.921875
vt 0.734375 0.90625
vt 0.71875 0.90625
vt 0.71875 0.890625
vt 0.734375 0.890625
vt 0.734375 0.859375
vt 0.734375 0.875
vt 0.71875 0.875
vt 0.71875 0.859375
vt 0.15625 0.265625
vt 0.15625 0.28125
vt 0.140625 0.28125
vt 0.140625 0.265625
vt 0.734375 0.84375
vt 0.71875 0.84375
vt 0.71875 0.828125
vt 0.734375 0.828125
vt 0.171875 0.265625
vt 0.1875 0.265625
vt 0.1875 0.28125
vt 0.171875 0.28125
vt 0.734375 0.796875
vt 0.734375 0.8125
vt 0.71875 0.8125
vt 0.71875 0.796875
vt 0.21875 0.28125
vt 0.203125 0.28125
vt 0.203125 0.265625
vt 0.21875 0.265625
vt 0.734375 0.765625
vt 0.734375 0.78125
vt 0.71875 0.78125
vt 0.71875 0.765625
vt 0.734375 0.734375
vt 0.734375 0.75
vt 0.71875 0.75
vt 0.71875 0.734375
vt 0.375 0.28125
vt 0.359375 0.28125
vt 0.359375 0.265625
vt 0.375 0.265625
vt 0.390625 0.265625
vt 0.40625 0.265625
vt 0.40625 0.28125
vt 0.390625 0.28125
vt 0.4375 0.265625
vt 0.4375 0.28125
vt 0.421875 0.28125
vt 0.421875 0.265625
vt 0.46875 0.28125
vt 0.453125 0.28125
vt 0.453125 0.265625
vt 0.46875 0.265625
vt 0.5 0.265625
vt 0.5 0.28125
vt 0.484375 0.28125
vt 0.484375 0.265625
vt 0.53125 0.265625
vt 0.53125 0.28125
vt 0.515625 0.28125
vt 0.515625 0.265625
vt 0.5625 0.28125
vt 0.546875 0.28125
vt 0.546875 0.265625
vt 0.5625 0.265625
vt 0.71875 0.421875
vt 0.734375 0.421875
vt 0.734375 0.4375
vt 0.71875 0.4375
vt 0.59375 0.265625
vt 0.59375 0.28125
vt 0.578125 0.28125
vt 0.578125 0.265625
vt 0.734375 0.40625
vt 0.71875 0.40625
vt 0.71875 0.390625
vt 0.734375 0.390625
vt 0.625 0.265625
vt 0.625 0.28125
vt 0.609375 0.28125
vt 0.609375 0.265625
vt 0.734375 0.359375
vt 0.734375 0.375
vt 0.71875 0.375
vt 0.71875 0.359375
vt 0.65625 0.28125
vt 0.640625 0.28125
vt 0.640625 0.265625
vt 0.65625 0.265625
vt 0.71875 0.328125
vt 0.734375 0.328125
vt 0.734375 0.34375
vt 0.71875 0.34375
vt 0.6875 0.265625
vt 0.6875 0.28125
vt 0.671875 0.28125
vt 0.671875 0.265625
vt 0.734375 0.3125
vt 0.71875 0.3125
vt 0.71875 0.296875
vt 0.734375 0.296875
vt 0.71875 0.265625
vt 0.71875 0.28125
vt 0.703125 0.28125
vt 0.703125 0.265625
vt 0.015625 0.25
vt 0.015625 0.265625
vt 0 0.265625
vt 0 0.25
vt 0.046875 0.265625
vt 0.03125 0.265625
vt 0.03125 0.25
vt 0.046875 0.25
vt 0.0625 0.25
vt 0.078125 0.25
vt 0.078125 0.265625
vt 0.0625 0.265625
vt 0.109375 0.25
vt 0.109375 0.265625
vt 0.09375 0.265625
vt 0.09375 0.25
vt 0.25 0.265625
vt 0.234375 0.265625
vt 0.234375 0.25
vt 0.25 0.25
vt 0.28125 0.25
vt 0.28125 0.265625
vt 0.265625 0.265625
vt 0.265625 0.25
vt 0.734375 0.71875
vt 0.734375 0.703125
vt 0.75 0.703125
vt 0.75 0.71875
vt 0.3125 0.265625
vt 0.296875 0.265625
vt 0.296875 0.25
vt 0.3125 0.25
vt 0.75 0.6875
vt 0.734375 0.6875
vt 0.734375 0.671875
vt 0.75 0.671875
vt 0.34375 0.25
vt 0.34375 0.265625
vt 0.328125 0.265625
vt 0.328125 0.25
vt 0.75 0.65625
vt 0.734375 0.65625
vt 0.734375 0.640625
vt 0.75 0.640625
vt 0.75 0.609375
vt 0.75 0.625
vt 0.734375 0.625
vt 0.734375 0.609375
vt 0.734375 0.59375
vt 0.734375 0.578125
vt 0.75 0.578125
vt 0.75 0.59375
vt 0.75 0.5625
vt 0.734375 0.5625
vt 0.734375 0.546875
vt 0.75 0.546875
vt 0.75 0.53125
vt 0.734375 0.53125
vt 0.734375 0.515625
vt 0.75 0.515625
vt 0.75 0.484375
vt 0.75 0.5
vt 0.734375 0.5
vt 0.734375 0.484375
vt 0.75 0.46875
vt 0.734375 0.46875
vt 0.734375 0.453125
vt 0.75 0.453125
vt 0.75 0.265625
vt 0.75 0.28125
vt 0.734375 0.28125
vt 0.734375 0.265625
vt 0.75 1
vt 0.75 0.984375
vt 0.765625 0.984375
vt 0.765625 1
vt 0.765625 0.96875
vt 0.75 0.96875
vt 0.75 0.953125
vt 0.765625 0.953125
vt 0.765625 0.9375
vt 0.75 0.9375
vt 0.75 0.921875
vt 0.765625 0.921875
vt 0.765625 0.890625
vt 0.765625 0.90625
vt 0.75 0.90625
vt 0.75 0.890625
vt 0.140625 0.25
vt 0.125 0.25
vt 0.125 0.234375
vt 0.140625 0.234375
vt 0.765625 0.859375
vt 0.765625 0.875
vt 0.75 0.875
vt 0.75 0.859375
vt 0.171875 0.25
vt 0.15625 0.25
vt 0.15625 0.234375
vt 0.171875 0.234375
vt 0.75 0.84375
vt 0.75 0.828125
vt 0.765625 0.828125
vt 0.765625 0.84375
vt 0.203125 0.234375
vt 0.203125 0.25
vt 0.1875 0.25
vt 0.1875 0.234375
vt 0.765625 0.8125
vt 0.75 0.8125
vt 0.75 0.796875
vt 0.765625 0.796875
vt 0.765625 0.78125
vt 0.75 0.78125
vt 0.75 0.765625
vt 0.765625 0.765625
vt 0.765625 0.734375
vt 0.765625 0.75
vt 0.75 0.75
vt 0.75 0.734375
vt 0.375 0.234375
vt 0.375 0.25
vt 0.359375 0.25
vt 0.359375 0.234375
vt 0.65625 0.25
vt 0.640625 0.25
vt 0.640625 0.234375
vt 0.65625 0.234375
vt 0.390625 0.234375
vt 0.40625 0.234375
vt 0.40625 0.25
vt 0.390625 0.25
vt 0.765625 0.328125
vt 0.765625 0.34375
vt 0.75 0.34375
vt 0.75 0.328125
vt 0.4375 0.25
vt 0.421875 0.25
vt 0.421875 0.234375
vt 0.4375 0.234375
vt 0.46875 0.234375
vt 0.46875 0.25
vt 0.453125 0.25
vt 0.453125 0.234375
vt 0.5 0.234375
vt 0.5 0.25
vt 0.484375 0.25
vt 0.484375 0.234375
vt 0.53125 0.25
vt 0.515625 0.25
vt 0.515625 0.234375
vt 0.53125 0.234375
vt 0.546875 0.234375
vt 0.5625 0.234375
vt 0.5625 0.25
vt 0.546875 0.25
vt 0.765625 0.421875
vt 0.765625 0.4375
vt 0.75 0.4375
vt 0.75 0.421875
vt 0.59375 0.25
vt 0.578125 0.25
vt 0.578125 0.234375
vt 0.59375 0.234375
vt 0.765625 0.390625
vt 0.765625 0.40625
vt 0.75 0.40625
vt 0.75 0.390625
vt 0.625 0.234375
vt 0.625 0.25
vt 0.609375 0.25
vt 0.609375 0.234375
vt 0.6875 0.25
vt 0.671875 0.25
vt 0.671875 0.234375
vt 0.6875 0.234375
vt 0.75 0.359375
vt 0.765625 0.359375
vt 0.765625 0.375
vt 0.75 0.375
vt 0.765625 0.296875
vt 0.765625 0.3125
vt 0.75 0.3125
vt 0.75 0.296875
vn -0.984807753012208 0 0.1736481776669311
vn 0.9848077530122081 0 -0.1736481776669308
vn 0 -1 0
vn 0.17364817766693008 0 0.9848077530122081
vn 0 1 0
vn -0.17364817766693183 0 -0.9848077530122079
vn -0.9848077530122081 0 0.17364817766692991
vn 0.9848077530122081 0 -0.1736481776669308
vn 0 -1 0
vn 0.17364817766693008 0 0.9848077530122081
vn 0 1 0
vn -0.17364817766693025 0 -0.9848077530122081
vn -0.9848077530122081 0 0.1736481776669308
vn 0.9848077530122081 0 -0.17364817766692991
vn 0 -1 0
vn 0.17364817766693183 0 0.9848077530122079
vn 0 1 0
vn -0.17364817766693166 0 -0.9848077530122079
vn -0.9848077530122081 0 0.17364817766692991
vn 0.9848077530122081 0 -0.17364817766692991
vn 0 -1 0
vn 0.17364817766692991 0 0.9848077530122081
vn 0 1 0
vn -0.17364817766692991 0 -0.9848077530122081
vn -0.9848077530122081 0 0.17364817766692991
vn 0.984807753012208 0 -0.1736481776669311
vn 0 -1 0
vn 0.17364817766693166 0 0.9848077530122079
vn 0 1 0
vn -0.17364817766693008 0 -0.9848077530122081
vn -0.984807753012208 0 0.1736481776669311
vn 0.984807753012208 0 -0.1736481776669311
vn 0 -1 0
vn 0.17364817766692991 0 0.9848077530122081
vn 0 1 0
vn -0.17364817766692991 0 -0.9848077530122081
vn -0.984807753012208 0 0.1736481776669311
vn 0.9848077530122078 0 -0.17364817766693194
vn 0 -1 0
vn 0.17364817766693194 0 0.9848077530122078
vn 0 1 0
vn -0.1736481776669321 0 -0.9848077530122078
vn -0.984807753012208 0 0.1736481776669311
vn 0.984807753012208 0 -0.1736481776669311
vn 0 -1 0
vn 0.17364817766692991 0 0.9848077530122081
vn 0 1 0
vn -0.17364817766692991 0 -0.9848077530122081
vn -0.984807753012208 0 0.1736481776669311
vn 0.9848077530122081 0 -0.17364817766693025
vn 0 -1 0
vn 0.1736481776669321 0 0.9848077530122078
vn 0 1 0
vn -0.17364817766693194 0 -0.9848077530122078
vn -0.9848077530122081 0 0.17364817766693025
vn 0.9848077530122081 0 -0.17364817766693025
vn 0 -1 0
vn 0.17364817766693025 0 0.9848077530122081
vn 0 1 0
vn -0.17364817766693025 0 -0.9848077530122081
vn -0.9848077530122081 0 0.17364817766692991
vn 0.9848077530122081 0 -0.17364817766692991
vn 0 -1 0
vn 0.17364817766693194 0 0.9848077530122078
vn 0 1 0
vn -0.17364817766693194 0 -0.9848077530122078
vn -0.9848077530122081 0 0.17364817766692991
vn 0.9848077530122081 0 -0.17364817766692991
vn 0 -1 0
vn 0.17364817766693025 0 0.9848077530122081
vn 0 1 0
vn -0.17364817766693025 0 -0.9848077530122081
vn -0.9848077530122081 0 0.17364817766692991
vn 0.9848077530122081 0 -0.17364817766692991
vn 0 -1 0
vn 0.17364817766692991 0 0.9848077530122081
vn 0 1 0
vn -0.17364817766692991 0 -0.9848077530122081
vn -0.9848077530122079 0 0.17364817766693166
vn 0.9848077530122079 0 -0.17364817766693166
vn 0 -1 0
vn 0.17364817766693025 0 0.9848077530122081
vn 0 1 0
vn -0.17364817766693025 0 -0.9848077530122081
vn -0.9848077530122079 0 0.17364817766693166
vn 0.9848077530122079 0 -0.17364817766693166
vn 0 -1 0
vn 0.17364817766692991 0 0.9848077530122081
vn 0 1 0
vn -0.17364817766692991 0 -0.9848077530122081
vn 0.9848077530122081 0 -0.17364817766692991
vn -0.9848077530122081 0 0.17364817766692991
vn 0 -1 0
vn -0.17364817766693025 0 -0.9848077530122081
vn 0 1 0
vn 0.17364817766693025 0 0.9848077530122081
vn 0.9848077530122079 0 -0.17364817766693166
vn -0.9848077530122078 0 0.17364817766693227
vn 0 -1 0
vn -0.17364817766693338 0 -0.9848077530122077
vn 0 1 0
vn 0.17364817766692991 0 0.9848077530122081
vn 0.9848077530122078 0 -0.17364817766693227
vn -0.9848077530122081 0 0.17364817766693055
vn 0 -1 0
vn -0.17364817766693025 0 -0.9848077530122081
vn 0 1 0
vn 0.17364817766692991 0 0.9848077530122081
vn 0.9848077530122081 0 -0.17364817766692991
vn -0.9848077530122081 0 0.17364817766692991
vn 0 1 0
vn 0 -1 0
vn 0.17364817766693338 0 0.9848077530122077
vn -0.17364817766693338 0 -0.9848077530122077
vn -0.9848077530122081 0 0.17364817766692991
vn 0.9848077530122081 0 -0.17364817766692991
vn 0 -1 0
vn 0.17364817766693025 0 0.9848077530122081
vn 0 1 0
vn -0.17364817766693025 0 -0.9848077530122081
vn -0.9848077530122079 0 0.17364817766693166
vn 0.9848077530122078 0 -0.17364817766693227
vn 0 -1 0
vn 0.17364817766693338 0 0.9848077530122077
vn 0 1 0
vn -0.17364817766692991 0 -0.9848077530122081
vn -0.9848077530122078 0 0.17364817766693227
vn 0.9848077530122079 0 -0.17364817766693166
vn 0 -1 0
vn 0.17364817766693025 0 0.9848077530122081
vn 0 1 0
vn -0.1736481776669337 0 -0.9848077530122076
usemtl m_de50d94d-42dd-acdb-9fdb-1967ed223434
f 49/145/37 50/146/37 51/147/37 52/148/37
f 53/149/38 54/150/38 55/151/38 56/152/38
f 52/153/39 51/154/39 53/155/39 56/156/39
f 55/157/40 49/158/40 52/159/40 56/160/40
f 54/161/41 50/162/41 49/163/41 55/164/41
f 51/165/42 50/166/42 54/167/42 53/168/42
f 57/169/43 58/170/43 59/171/43 60/172/43
f 61/173/44 62/174/44 63/175/44 64/176/44
f 60/177/45 59/178/45 61/179/45 64/180/45
f 63/181/46 57/182/46 60/183/46 64/184/46
f 62/185/47 58/186/47 57/187/47 63/188/47
f 59/189/48 58/190/48 62/191/48 61/192/48
f 65/193/49 66/194/49 67/195/49 68/196/49
f 69/197/50 70/198/50 71/199/50 72/200/50
f 68/201/51 67/202/51 69/203/51 72/204/51
f 71/205/52 65/206/52 68/207/52 72/208/52
f 70/209/53 66/210/53 65/211/53 71/212/53
f 67/213/54 66/214/54 70/215/54 69/216/54
f 73/217/55 74/218/55 75/219/55 76/220/55
f 77/221/56 78/222/56 79/223/56 80/224/56
f 76/225/57 75/226/57 77/227/57 80/228/57
f 79/229/58 73/230/58 76/231/58 80/232/58
f 78/233/59 74/234/59 73/235/59 79/236/59
f 75/237/60 74/238/60 78/239/60 77/240/60
f 81/241/61 82/242/61 83/243/61 84/244/61
f 85/245/62 86/246/62 87/247/62 88/248/62
f 84/249/63 83/250/63 85/251/63 88/252/63
f 87/253/64 81/254/64 84/255/64 88/256/64
f 86/257/65 82/258/65 81/259/65 87/260/65
f 83/261/66 82/262/66 86/263/66 85/264/66
f 89/265/67 90/266/67 91/267/67 92/268/67
f 93/269/68 94/270/68 95/271/68 96/272/68
f 92/273/69 91/274/69 93/275/69 96/276/69
f 95/277/70 89/278/70 92/279/70 96/280/70
f 94/281/71 90/282/71 89/283/71 95/284/71
f 91/285/72 90/286/72 94/287/72 93/288/72
f 97/289/73 98/290/73 99/291/73 100/292/73
f 101/293/74 102/294/74 103/295/74 104/296/74
f 100/297/75 99/298/75 101/299/75 104/300/75
f 103/301/76 97/302/76 100/303/76 104/304/76
f 102/305/77 98/306/77 97/307/77 103/308/77
f 99/309/78 98/310/78 102/311/78 101/312/78
f 105/313/79 106/314/79 107/315/79 108/316/79
f 109/317/80 110/318/80 111/319/80 112/320/80
f 108/321/81 107/322/81 109/323/81 112/324/81
f 111/325/82 105/326/82 108/327/82 112/328/82
f 110/329/83 106/330/83 105/331/83 111/332/83
f 107/333/84 106/334/84 110/335/84 109/336/84
f 113/337/85 114/338/85 115/339/85 116/340/85
f 117/341/86 118/342/86 119/343/86 120/344/86
f 116/345/87 115/346/87 117/347/87 120/348/87
f 119/349/88 113/350/88 116/351/88 120/352/88
f 118/353/89 114/354/89 113/355/89 119/356/89
f 115/357/90 114/358/90 118/359/90 117/360/90
f 121/361/91 122/362/91 123/363/91 124/364/91
f 125/365/92 126/366/92 127/367/92 128/368/92
f 124/369/93 123/370/93 125/371/93 128/372/93
f 127/373/94 121/374/94 124/375/94 128/376/94
f 126/377/95 122/378/95 121/379/95 127/380/95
f 123/381/96 122/382/96 126/383/96 125/384/96
f 129/385/97 130/386/97 131/387/97 132/388/97
f 133/389/98 134/390/98 135/391/98 136/392/98
f 132/393/99 131/394/99 133/395/99 136/396/99
f 135/397/100 129/398/100 132/399/100 136/400/100
f 134/401/101 130/402/101 129/403/101 135/404/101
f 131/405/102 130/406/102 134/407/102 133/408/102
f 137/409/103 138/410/103 139/411/103 140/412/103
f 141/413/104 142/414/104 143/415/104 144/416/104
f 140/417/105 139/418/105 141/419/105 144/420/105
f 143/421/106 137/422/106 140/423/106 144/424/106
f 142/425/107 138/426/107 137/427/107 143/428/107
f 139/429/108 138/430/108 142/431/108 141/432/108
f 145/433/109 146/434/109 147/435/109 148/436/109
f 149/437/110 150/438/110 151/439/110 152/440/110
f 148/441/111 147/442/111 149/443/111 152/444/111
f 151/445/112 145/446/112 148/447/112 152/448/112
f 150/449/113 146/450/113 145/451/113 151/452/113
f 147/453/114 146/454/114 150/455/114 149/456/114
f 153/457/115 154/458/115 155/459/115 156/460/115
f 157/461/116 158/462/116 159/463/116 160/464/116
f 156/465/117 155/466/117 157/467/117 160/468/117
f 159/469/118 153/470/118 156/471/118 160/472/118
f 158/473/119 154/474/119 153/475/119 159/476/119
f 155/477/120 154/478/120 158/479/120 157/480/120
f 161/481/121 162/482/121 163/483/121 164/484/121
f 165/485/122 166/486/122 167/487/122 168/488/122
f 164/489/123 163/490/123 165/491/123 168/492/123
f 167/493/124 161/494/124 164/495/124 168/496/124
f 166/497/125 162/498/125 161/499/125 167/500/125
f 163/501/126 162/502/126 166/503/126 165/504/126
f 169/505/127 170/506/127 171/507/127 172/508/127
f 173/509/128 174/510/128 175/511/128 176/512/128
f 172/513/129 171/514/129 173/515/129 176/516/129
f 175/517/130 169/518/130 172/519/130 176/520/130
f 174/521/131 170/522/131 169/523/131 175/524/131
f 171/525/132 170/526/132 174/527/132 173/528/132
f 177/529/133 178/530/133 179/531/133 180/532/133
f 181/533/134 182/534/134 183/535/134 184/536/134
f 180/537/135 179/538/135 181/539/135 184/540/135
f 183/541/136 177/542/136 180/543/136 184/544/136
f 182/545/137 178/546/137 177/547/137 183/548/137
f 179/549/138 178/550/138 182/551/138 181/552/138
f 185/553/139 186/554/139 187/555/139 188/556/139
f 189/557/140 190/558/140 191/559/140 192/560/140
f 188/561/141 187/562/141 189/563/141 192/564/141
f 191/565/142 185/566/142 188/567/142 192/568/142
f 190/569/143 186/570/143 185/571/143 191/572/143
f 187/573/144 186/574/144 190/575/144 189/576/144
f 193/577/145 194/578/145 195/579/145 196/580/145
f 197/581/146 198/582/146 199/583/146 200/584/146
f 198/585/147 194/586/147 193/587/147 199/588/147
f 196/589/148 195/590/148 197/591/148 200/592/148
f 195/593/149 194/594/149 198/595/149 197/596/149
f 199/597/150 193/598/150 196/599/150 200/600/150
f 201/601/151 202/602/151 203/603/151 204/604/151
f 205/605/152 206/606/152 207/607/152 208/608/152
f 204/609/153 203/610/153 205/611/153 208/612/153
f 207/613/154 201/614/154 204/615/154 208/616/154
f 206/617/155 202/618/155 201/619/155 207/620/155
f 203/621/156 202/622/156 206/623/156 205/624/156
f 209/625/157 210/626/157 211/627/157 212/628/157
f 213/629/158 214/630/158 215/631/158 216/632/158
f 212/633/159 211/634/159 213/635/159 216/636/159
f 215/637/160 209/638/160 212/639/160 216/640/160
f 214/641/161 210/642/161 209/643/161 215/644/161
f 211/645/162 210/646/162 214/647/162 213/648/162
f 217/649/163 218/650/163 219/651/163 220/652/163
f 221/653/164 222/654/164 223/655/164 224/656/164
f 220/657/165 219/658/165 221/659/165 224/660/165
f 223/661/166 217/662/166 220/663/166 224/664/166
f 222/665/167 218/666/167 217/667/167 223/668/167
f 219/669/168 218/670/168 222/671/168 221/672/168
o brick1
v 0.1314498263046161 0.5625 0.09864173543769075
v -0.04170590365852167 0.5625 0.43127079787952394
v -0.04170590365852167 0.4375 0.43127079787952394
v 0.1314498263046161 0.4375 0.09864173543769075
v -0.20802043487943822 0.4375 0.34469293289795505
v -0.20802043487943822 0.5625 0.34469293289795505
v -0.03486470491630045 0.5625 0.012063870456121895
v -0.03486470491630045 0.4375 0.012063870456121895
vt 0.703125 0.8125
vt 0.609375 0.8125
vt 0.609375 0.78125
vt 0.703125 0.78125
vt 0.703125 0.734375
vt 0.703125 0.765625
vt 0.609375 0.765625
vt 0.609375 0.734375
vt 0.546875 0.484375
vt 0.59375 0.484375
vt 0.59375 0.578125
vt 0.546875 0.578125
vt 0.59375 0.375
vt 0.59375 0.46875
vt 0.546875 0.46875
vt 0.546875 0.375
vt 0.65625 0.5
vt 0.65625 0.53125
vt 0.609375 0.53125
vt 0.609375 0.5
vt 0.65625 0.484375
vt 0.609375 0.484375
vt 0.609375 0.453125
vt 0.65625 0.453125
vn 0.8870108331782217 0 0.46174861323503397
vn -0.8870108331782218 0 -0.4617486132350341
vn 0 1 0
vn 0 -1 0
vn -0.4617486132350341 0 0.8870108331782216
vn 0.46174861323503397 0 -0.8870108331782217
usemtl m_de50d94d-42dd-acdb-9fdb-1967ed223434
f 225/673/169 226/674/169 227/675/169 228/676/169
f 229/677/170 230/678/170 231/679/170 232/680/170
f 230/681/171 226/682/171 225/683/171 231/684/171
f 228/685/172 227/686/172 229/687/172 232/688/172
f 227/689/173 226/690/173 230/691/173 229/692/173
f 231/693/174 225/694/174 228/695/174 232/696/174
o brick2
v 0.3242146628692718 0.5625 0.3137510942780203
v 0.08316930923681953 0.5625 0.02648442810840368
v 0.08316930923681953 0.4375 0.02648442810840368
v 0.3242146628692718 0.4375 0.3137510942780203
v 0.22680264232162783 0.4375 -0.0940382487078224
v 0.22680264232162783 0.5625 -0.0940382487078224
v 0.4678479959540801 0.5625 0.19322841746179414
v 0.4678479959540801 0.4375 0.19322841746179414
vt 0.671875 0.90625
vt 0.578125 0.90625
vt 0.578125 0.875
vt 0.671875 0.875
vt 0.671875 0.828125
vt 0.671875 0.859375
vt 0.578125 0.859375
vt 0.578125 0.828125
vt 0.546875 0.703125
vt 0.59375 0.703125
vt 0.59375 0.796875
vt 0.546875 0.796875
vt 0.59375 0.59375
vt 0.59375 0.6875
vt 0.546875 0.6875
vt 0.546875 0.59375
vt 0.65625 0.59375
vt 0.65625 0.625
vt 0.609375 0.625
vt 0.609375 0.59375
vt 0.65625 0.578125
vt 0.609375 0.578125
vt 0.609375 0.546875
vt 0.65625 0.546875
vn -0.7660444431189778 0 0.6427876096865396
vn 0.7660444431189778 0 -0.6427876096865397
vn 0 1 0
vn 0 -1 0
vn -0.6427876096865395 0 -0.7660444431189781
vn 0.6427876096865396 0 0.7660444431189778
usemtl m_de50d94d-42dd-acdb-9fdb-1967ed223434
f 233/697/175 234/698/175 235/699/175 236/700/175
f 237/701/176 238/702/176 239/703/176 240/704/176
f 238/705/177 234/706/177 233/707/177 239/708/177
f 236/709/178 235/710/178 237/711/178 240/712/178
f 235/713/179 234/714/179 238/715/179 237/716/179
f 239/717/180 233/718/180 236/719/180 240/720/180