# Made in Blockbench 5.1.6
mtllib more_decor_signs_workbench.mtl

o plate
v 0.5 0.4375 -0.5
v 0.5 0.4375 0.5
v 0.5 0.25 0.5
v 0.5 0.25 -0.5
v -0.5 0.25 0.5
v -0.5 0.4375 0.5
v -0.5 0.4375 -0.5
v -0.5 0.25 -0.5
vt 0.515625 0.578125
vt 0.265625 0.578125
vt 0.265625 0.53125
vt 0.515625 0.53125
vt 0.515625 0.46875
vt 0.515625 0.515625
vt 0.265625 0.515625
vt 0.265625 0.46875
vt 0 0.75
vt 0.25 0.75
vt 0.25 1
vt 0 1
vt 0.25 0.484375
vt 0.25 0.734375
vt 0 0.734375
vt 0 0.484375
vt 0.25 0.421875
vt 0.25 0.46875
vt 0 0.46875
vt 0 0.421875
vt 0.78125 0.578125
vt 0.53125 0.578125
vt 0.53125 0.53125
vt 0.78125 0.53125
vn 1 0 0
vn -1 0 0
vn 0 1 0
vn 0 -1 0
vn 0 0 1
vn 0 0 -1
usemtl m_7db3ce70-e6e7-f65f-452d-7697b1295f8f
f 1/1/1 2/2/1 3/3/1 4/4/1
f 5/5/2 6/6/2 7/7/2 8/8/2
f 6/9/3 2/10/3 1/11/3 7/12/3
f 4/13/4 3/14/4 5/15/4 8/16/4
f 3/17/5 2/18/5 6/19/5 5/20/5
f 7/21/6 1/22/6 4/23/6 8/24/6
o legs
v -0.25 0.25 0.25
v -0.25 0.25 0.375
v -0.25 -0.5 0.375
v -0.25 -0.5 0.25
v -0.375 -0.5 0.375
v -0.375 0.25 0.375
v -0.375 0.25 0.25
v -0.375 -0.5 0.25
v -0.25 0.25 -0.375
v -0.25 0.25 -0.25
v -0.25 -0.5 -0.25
v -0.25 -0.5 -0.375
v -0.375 -0.5 -0.25
v -0.375 0.25 -0.25
v -0.375 0.25 -0.375
v -0.375 -0.5 -0.375
v 0.375 0.25 -0.375
v 0.375 0.25 -0.25
v 0.375 -0.5 -0.25
v 0.375 -0.5 -0.375
v 0.25 -0.5 -0.25
v 0.25 0.25 -0.25
v 0.25 0.25 -0.375
v 0.25 -0.5 -0.375
v 0.375 0.25 0.25
v 0.375 0.25 0.375
v 0.375 -0.5 0.375
v 0.375 -0.5 0.25
v 0.25 -0.5 0.375
v 0.25 0.25 0.375
v 0.25 0.25 0.25
v 0.25 -0.5 0.25
vt 0.5625 0.515625
vt 0.53125 0.515625
vt 0.53125 0.328125
vt 0.5625 0.328125
vt 0.578125 0.8125
vt 0.578125 1
vt 0.546875 1
vt 0.546875 0.8125
vt 0.640625 0.75
vt 0.671875 0.75
vt 0.671875 0.78125
vt 0.640625 0.78125
vt 0.671875 0.703125
vt 0.671875 0.734375
vt 0.640625 0.734375
vt 0.640625 0.703125
vt 0.578125 0.609375
vt 0.578125 0.796875
vt 0.546875 0.796875
vt 0.546875 0.609375
vt 0.296875 0.453125
vt 0.265625 0.453125
vt 0.265625 0.265625
vt 0.296875 0.265625
vt 0.34375 0.453125
vt 0.3125 0.453125
vt 0.3125 0.265625
vt 0.34375 0.265625
vt 0.390625 0.265625
vt 0.390625 0.453125
vt 0.359375 0.453125
vt 0.359375 0.265625
vt 0.640625 0.65625
vt 0.671875 0.65625
vt 0.671875 0.6875
vt 0.640625 0.6875
vt 0.671875 0.609375
vt 0.671875 0.640625
vt 0.640625 0.640625
vt 0.640625 0.609375
vt 0.4375 0.265625
vt 0.4375 0.453125
vt 0.40625 0.453125
vt 0.40625 0.265625
vt 0.484375 0.453125
vt 0.453125 0.453125
vt 0.453125 0.265625
vt 0.484375 0.265625
vt 0.609375 0.515625
vt 0.578125 0.515625
vt 0.578125 0.328125
vt 0.609375 0.328125
vt 0.03125 0.21875
vt 0.03125 0.40625
vt 0 0.40625
vt 0 0.21875
vt 0.625 0.328125
vt 0.65625 0.328125
vt 0.65625 0.359375
vt 0.625 0.359375
vt 0.703125 0.328125
vt 0.703125 0.359375
vt 0.671875 0.359375
vt 0.671875 0.328125
vt 0.625 0.8125
vt 0.625 1
vt 0.59375 1
vt 0.59375 0.8125
vt 0.078125 0.40625
vt 0.046875 0.40625
vt 0.046875 0.21875
vt 0.078125 0.21875
vt 0.125 0.40625
vt 0.09375 0.40625
vt 0.09375 0.21875
vt 0.125 0.21875
vt 0.171875 0.21875
vt 0.171875 0.40625
vt 0.140625 0.40625
vt 0.140625 0.21875
vt 0.6875 0.75
vt 0.71875 0.75
vt 0.71875 0.78125
vt 0.6875 0.78125
vt 0.71875 0.703125
vt 0.71875 0.734375
vt 0.6875 0.734375
vt 0.6875 0.703125
vt 0.21875 0.21875
vt 0.21875 0.40625
vt 0.1875 0.40625
vt 0.1875 0.21875
vt 0.625 0.796875
vt 0.59375 0.796875
vt 0.59375 0.609375
vt 0.625 0.609375
vn 1 0 0
vn -1 0 0
vn 0 1 0
vn 0 -1 0
vn 0 0 1
vn 0 0 -1
vn 1 0 0
vn -1 0 0
vn 0 1 0
vn 0 -1 0
vn 0 0 1
vn 0 0 -1
vn 1 0 0
vn -1 0 0
vn 0 1 0
vn 0 -1 0
vn 0 0 1
vn 0 0 -1
vn 1 0 0
vn -1 0 0
vn 0 1 0
vn 0 -1 0
vn 0 0 1
vn 0 0 -1
usemtl m_7db3ce70-e6e7-f65f-452d-7697b1295f8f
f 9/25/7 10/26/7 11/27/7 12/28/7
f 13/29/8 14/30/8 15/31/8 16/32/8
f 14/33/9 10/34/9 9/35/9 15/36/9
f 12/37/10 11/38/10 13/39/10 16/40/10
f 11/41/11 10/42/11 14/43/11 13/44/11
f 15/45/12 9/46/12 12/47/12 16/48/12
f 17/49/13 18/50/13 19/51/13 20/52/13
f 21/53/14 22/54/14 23/55/14 24/56/14
f 22/57/15 18/58/15 17/59/15 23/60/15
f 20/61/16 19/62/16 21/63/16 24/64/16
f 19/65/17 18/66/17 22/67/17 21/68/17
f 23/69/18 17/70/18 20/71/18 24/72/18
f 25/73/19 26/74/19 27/75/19 28/76/19
f 29/77/20 30/78/20 31/79/20 32/80/20
f 30/81/21 26/82/21 25/83/21 31/84/21
f 28/85/22 27/86/22 29/87/22 32/88/22
f 27/89/23 26/90/23 30/91/23 29/92/23
f 31/93/24 25/94/24 28/95/24 32/96/24
f 33/97/25 34/98/25 35/99/25 36/100/25
f 37/101/26 38/102/26 39/103/26 40/104/26
f 38/105/27 34/106/27 33/107/27 39/108/27
f 36/109/28 35/110/28 37/111/28 40/112/28
f 35/113/29 34/114/29 38/115/29 37/116/29
f 39/117/30 33/118/30 36/119/30 40/120/30
o sign1
v 0.28825278781098845 0.5 0.438605687563125
v 0.438605687563125 0.5 -0.03825278781098845
v 0.28825278781098845 0.4375 0.438605687563125
v 0.438605687563125 0.4375 -0.03825278781098845
v -0.188605687563125 0.5 0.28825278781098845
v -0.03825278781098845 0.5 -0.188605687563125
v -0.188605687563125 0.4375 0.28825278781098845
v -0.03825278781098845 0.4375 -0.188605687563125
vt 0.765625 0.90625
vt 0.640625 0.90625
vt 0.640625 0.890625
vt 0.765625 0.890625
vt 0.765625 0.859375
vt 0.765625 0.875
vt 0.640625 0.875
vt 0.640625 0.859375
vt 0.40625 0.734375
vt 0.53125 0.734375
vt 0.53125 0.859375
vt 0.40625 0.859375
vt 0.53125 0.59375
vt 0.53125 0.71875
vt 0.40625 0.71875
vt 0.40625 0.59375
vt 0.765625 0.828125
vt 0.765625 0.84375
vt 0.640625 0.84375
vt 0.640625 0.828125
vt 0.765625 0.8125
vt 0.640625 0.8125
vt 0.640625 0.796875
vt 0.765625 0.796875
vn 0.9537169507482269 0 0.30070579950427306
vn -0.9537169507482269 0 -0.30070579950427306
vn 0 1 0
vn 0 -1 0
vn -0.30070579950427306 0 0.9537169507482269
vn 0.30070579950427306 0 -0.9537169507482269
usemtl m_7db3ce70-e6e7-f65f-452d-7697b1295f8f
f 42/121/31 41/122/31 43/123/31 44/124/31
f 47/125/32 45/126/32 46/127/32 48/128/32
f 45/129/33 41/130/33 42/131/33 46/132/33
f 44/133/34 43/134/34 47/135/34 48/136/34
f 43/137/35 41/138/35 45/139/35 47/140/35
f 46/141/36 42/142/36 44/143/36 48/144/36
o sign2
v 0.2165063509461097 0.5625 0.46650635094610965
v 0.46650635094610965 0.5625 0.03349364905389031
v 0.2165063509461097 0.5 0.46650635094610965
v 0.46650635094610965 0.5 0.03349364905389031
v -0.21650635094610965 0.5625 0.2165063509461097
v 0.03349364905389031 0.5625 -0.21650635094610965
v -0.21650635094610965 0.5 0.2165063509461097
v 0.03349364905389031 0.5 -0.21650635094610965
vt 0.75 0.390625
vt 0.625 0.390625
vt 0.625 0.375
vt 0.75 0.375
vt 0.765625 0.984375
vt 0.765625 1
vt 0.640625 1
vt 0.640625 0.984375
vt 0.265625 0.59375
vt 0.390625 0.59375
vt 0.390625 0.71875
vt 0.265625 0.71875
vt 0.53125 0.875
vt 0.53125 1
vt 0.40625 1
vt 0.40625 0.875
vt 0.765625 0.953125
vt 0.765625 0.96875
vt 0.640625 0.96875
vt 0.640625 0.953125
vt 0.765625 0.9375
vt 0.640625 0.9375
vt 0.640625 0.921875
vt 0.765625 0.921875
vn 0.8660254037844387 0 0.49999999999999994
vn -0.8660254037844387 0 -0.49999999999999994
vn 0 1 0
vn 0 -1 0
vn -0.49999999999999994 0 0.8660254037844387
vn 0.49999999999999994 0 -0.8660254037844387
usemtl m_7db3ce70-e6e7-f65f-452d-7697b1295f8f
f 50/145/37 49/146/37 51/147/37 52/148/37
f 55/149/38 53/150/38 54/151/38 56/152/38
f 53/153/39 49/154/39 50/155/39 54/156/39
f 52/157/40 51/158/40 55/159/40 56/160/40
f 51/161/41 49/162/41 53/163/41 55/164/41
f 54/165/42 50/166/42 52/167/42 56/168/42
o sign3
v 0.3277898938363194 0.625 0.4146139826697846
v 0.4146139826697846 0.625 -0.07778989383631943
v 0.3277898938363194 0.5625 0.4146139826697846
v 0.4146139826697846 0.5625 -0.07778989383631943
v -0.1646139826697846 0.625 0.3277898938363194
v -0.07778989383631943 0.625 -0.1646139826697846
v -0.1646139826697846 0.5625 0.3277898938363194
v -0.07778989383631943 0.5625 -0.1646139826697846
vt 0.75 0.515625
vt 0.625 0.515625
vt 0.625 0.5
vt 0.75 0.5
vt 0.75 0.46875
vt 0.75 0.484375
vt 0.625 0.484375
vt 0.625 0.46875
vt 0.265625 0.875
vt 0.390625 0.875
vt 0.390625 1
vt 0.265625 1
vt 0.390625 0.734375
vt 0.390625 0.859375
vt 0.265625 0.859375
vt 0.265625 0.734375
vt 0.75 0.4375
vt 0.75 0.453125
vt 0.625 0.453125
vt 0.625 0.4375
vt 0.75 0.421875
vt 0.625 0.421875
vt 0.625 0.40625
vt 0.75 0.40625
vn 0.984807753012208 0 0.17364817766693033
vn -0.984807753012208 0 -0.17364817766693033
vn 0 1 0
vn 0 -1 0
vn -0.17364817766693033 0 0.984807753012208
vn 0.17364817766693033 0 -0.984807753012208
usemtl m_7db3ce70-e6e7-f65f-452d-7697b1295f8f
f 58/169/43 57/170/43 59/171/43 60/172/43
f 63/173/44 61/174/44 62/175/44 64/176/44
f 61/177/45 57/178/45 58/179/45 62/180/45
f 60/181/46 59/182/46 63/183/46 64/184/46
f 59/185/47 57/186/47 61/187/47 63/188/47
f 62/189/48 58/190/48 60/191/48 64/192/48
o stamp
v -0.2871512632704601 0.5 0.16120174783372307
v -0.2762982521662769 0.5 0.09965126327046007
v -0.2871512632704601 0.4375 0.16120174783372307
v -0.2762982521662769 0.4375 0.09965126327046007
v -0.3487017478337231 0.5 0.15034873672953994
v -0.3378487367295399 0.5 0.08879825216627693
v -0.3487017478337231 0.4375 0.15034873672953994
v -0.3378487367295399 0.4375 0.08879825216627693
v -0.3487017478337231 0.5 0.15034873672953994
v -0.3378487367295399 0.5 0.08879825216627693
v -0.3487017478337231 0.4375 0.15034873672953994
v -0.3378487367295399 0.4375 0.08879825216627693
v -0.41025223239698605 0.5 0.13949572562535678
v -0.3993992212928029 0.5 0.07794524106209377
v -0.41025223239698605 0.4375 0.13949572562535678
v -0.3993992212928029 0.4375 0.07794524106209377
v -0.3993992212928029 0.5 0.07794524106209377
v -0.3885462101886198 0.5 0.01639475649883078
v -0.3993992212928029 0.4375 0.07794524106209377
v -0.3885462101886198 0.4375 0.01639475649883078
v -0.4609497058560659 0.5 0.06709222995791064
v -0.45009669475188274 0.5 0.005541745394647635
v -0.4609497058560659 0.4375 0.06709222995791064
v -0.45009669475188274 0.4375 0.005541745394647635
v -0.3378487367295399 0.5 0.08879825216627693
v -0.3269957256253568 0.5 0.027247767603013923
v -0.3378487367295399 0.4375 0.08879825216627693
v -0.3269957256253568 0.4375 0.027247767603013923
v -0.3993992212928029 0.5 0.07794524106209377
v -0.3885462101886198 0.5 0.01639475649883078
v -0.3993992212928029 0.4375 0.07794524106209377
v -0.3885462101886198 0.4375 0.01639475649883078
v -0.2762982521662769 0.5 0.09965126327046007
v -0.2654452410620938 0.5 0.03810077870719708
v -0.2762982521662769 0.4375 0.09965126327046007
v -0.2654452410620938 0.4375 0.03810077870719708
v -0.3378487367295399 0.5 0.08879825216627693
v -0.3269957256253568 0.5 0.027247767603013923
v -0.3378487367295399 0.4375 0.08879825216627693
v -0.3269957256253568 0.4375 0.027247767603013923
v -0.21474776760301392 0.5 0.11050427437464322
v -0.20389475649883076 0.5 0.048953789811380224
v -0.21474776760301392 0.4375 0.11050427437464322
v -0.20389475649883076 0.4375 0.048953789811380224
v -0.2762982521662769 0.5 0.09965126327046007
v -0.2654452410620938 0.5 0.03810077870719708
v -0.2762982521662769 0.4375 0.09965126327046007
v -0.2654452410620938 0.4375 0.03810077870719708
v -0.20389475649883076 0.5 0.048953789811380224
v -0.19304174539464763 0.5 -0.01259669475188277
v -0.20389475649883076 0.4375 0.048953789811380224
v -0.19304174539464763 0.4375 -0.01259669475188277
v -0.2654452410620938 0.5 0.03810077870719708
v -0.25459222995791064 0.5 -0.023449705856065928
v -0.2654452410620938 0.4375 0.03810077870719708
v -0.25459222995791064 0.4375 -0.023449705856065928
v -0.2654452410620938 0.5 0.03810077870719708
v -0.25459222995791064 0.5 -0.023449705856065928
v -0.2654452410620938 0.4375 0.03810077870719708
v -0.25459222995791064 0.4375 -0.023449705856065928
v -0.3269957256253568 0.5 0.027247767603013923
v -0.31614271452117365 0.5 -0.03430271696024906
v -0.3269957256253568 0.4375 0.027247767603013923
v -0.31614271452117365 0.4375 -0.03430271696024906
v -0.3885462101886198 0.5 0.01639475649883078
v -0.37769319908443666 0.5 -0.045155728064432216
v -0.3885462101886198 0.4375 0.01639475649883078
v -0.37769319908443666 0.4375 -0.045155728064432216
v -0.45009669475188274 0.5 0.005541745394647635
v -0.4392436836476996 0.5 -0.056008739168615346
v -0.45009669475188274 0.4375 0.005541745394647635
v -0.4392436836476996 0.4375 -0.056008739168615346
v -0.3269957256253568 0.5 0.027247767603013923
v -0.31614271452117365 0.5 -0.03430271696024906
v -0.3269957256253568 0.4375 0.027247767603013923
v -0.31614271452117365 0.4375 -0.03430271696024906
v -0.3885462101886198 0.5 0.01639475649883078
v -0.37769319908443666 0.5 -0.045155728064432216
v -0.3885462101886198 0.4375 0.01639475649883078
v -0.37769319908443666 0.4375 -0.045155728064432216
v -0.31614271452117365 0.5 -0.03430271696024906
v -0.30528970341699047 0.5 -0.09585320152351207
v -0.31614271452117365 0.4375 -0.03430271696024906
v -0.30528970341699047 0.4375 -0.09585320152351207
v -0.37769319908443666 0.5 -0.045155728064432216
v -0.3668401879802535 0.5 -0.10670621262769522
v -0.37769319908443666 0.4375 -0.045155728064432216
v -0.3668401879802535 0.4375 -0.10670621262769522
v -0.25459222995791064 0.5 -0.023449705856065928
v -0.24373921885372749 0.5 -0.08500019041932894
v -0.25459222995791064 0.4375 -0.023449705856065928
v -0.24373921885372749 0.4375 -0.08500019041932894
v -0.31614271452117365 0.5 -0.03430271696024906
v -0.30528970341699047 0.5 -0.09585320152351207
v -0.31614271452117365 0.4375 -0.03430271696024906
v -0.30528970341699047 0.4375 -0.09585320152351207
v -0.24373921885372749 0.5 -0.08500019041932894
v -0.23288620774954433 0.5 -0.14655067498259194
v -0.24373921885372749 0.4375 -0.08500019041932894
v -0.23288620774954433 0.4375 -0.14655067498259194
v -0.30528970341699047 0.5 -0.09585320152351207
v -0.29443669231280734 0.5 -0.15740368608677507
v -0.30528970341699047 0.4375 -0.09585320152351207
v -0.29443669231280734 0.4375 -0.15740368608677507
v -0.30528970341699047 0.5 -0.09585320152351207
v -0.29443669231280734 0.5 -0.15740368608677507
v -0.30528970341699047 0.4375 -0.09585320152351207
v -0.29443669231280734 0.4375 -0.15740368608677507
v -0.3668401879802535 0.5 -0.10670621262769522
v -0.35598717687607034 0.5 -0.1682566971909582
v -0.3668401879802535 0.4375 -0.10670621262769522
v -0.35598717687607034 0.4375 -0.1682566971909582
v -0.35598717687607034 0.5 -0.1682566971909582
v -0.3451341657718872 0.5 -0.2298071817542212
v -0.35598717687607034 0.4375 -0.1682566971909582
v -0.3451341657718872 0.4375 -0.2298071817542212
v -0.41753766143933335 0.5 -0.1791097082951414
v -0.4066846503351502 0.5 -0.2406601928584044
v -0.41753766143933335 0.4375 -0.1791097082951414
v -0.4066846503351502 0.4375 -0.2406601928584044
v -0.29443669231280734 0.5 -0.15740368608677507
v -0.2835836812086242 0.5 -0.21895417065003808
v -0.29443669231280734 0.4375 -0.15740368608677507
v -0.2835836812086242 0.4375 -0.21895417065003808
v -0.35598717687607034 0.5 -0.1682566971909582
v -0.3451341657718872 0.5 -0.2298071817542212
v -0.35598717687607034 0.4375 -0.1682566971909582
v -0.3451341657718872 0.4375 -0.2298071817542212
v -0.23288620774954433 0.5 -0.14655067498259194
v -0.2220331966453612 0.5 -0.20810115954585495
v -0.23288620774954433 0.4375 -0.14655067498259194
v -0.2220331966453612 0.4375 -0.20810115954585495
v -0.29443669231280734 0.5 -0.15740368608677507
v -0.2835836812086242 0.5 -0.21895417065003808
v -0.29443669231280734 0.4375 -0.15740368608677507
v -0.2835836812086242 0.4375 -0.21895417065003808
v -0.17133572318628135 0.5 -0.13569766387840881
v -0.1604827120820982 0.5 -0.19724814844167182
v -0.17133572318628135 0.4375 -0.13569766387840881
v -0.1604827120820982 0.4375 -0.19724814844167182
v -0.23288620774954433 0.5 -0.14655067498259194
v -0.2220331966453612 0.5 -0.20810115954585495
v -0.23288620774954433 0.4375 -0.14655067498259194
v -0.2220331966453612 0.4375 -0.20810115954585495
v -0.21118018554117807 0.4375 -0.26965164410911796
v -0.09893222751883521 0.5 -0.18639513733748864
v -0.08807921641465205 0.5 -0.24794562190075164
v -0.09893222751883521 0.4375 -0.18639513733748864
v -0.08807921641465205 0.4375 -0.24794562190075164
v -0.1604827120820982 0.5 -0.19724814844167182
v -0.14962970097791506 0.5 -0.25879863300493483
v -0.1604827120820982 0.4375 -0.19724814844167182
v -0.14962970097791506 0.4375 -0.25879863300493483
v -0.14962970097791506 0.5 -0.25879863300493483
v -0.13877668987373193 0.5 -0.32034911756819784
v -0.14962970097791506 0.4375 -0.25879863300493483
v -0.13877668987373193 0.4375 -0.32034911756819784
v -0.21118018554117807 0.5 -0.26965164410911796
v -0.2003271744369949 0.5 -0.33120212867238097
v -0.21118018554117807 0.4375 -0.26965164410911796
v -0.2003271744369949 0.4375 -0.33120212867238097
v -0.21118018554117807 0.5 -0.26965164410911796
v -0.2003271744369949 0.5 -0.33120212867238097
v -0.21118018554117807 0.4375 -0.26965164410911796
v -0.2003271744369949 0.4375 -0.33120212867238097
v -0.2727306701044411 0.5 -0.2805046552133011
v -0.26187765900025795 0.5 -0.3420551397765641
v -0.2727306701044411 0.4375 -0.2805046552133011
v -0.26187765900025795 0.4375 -0.3420551397765641
v -0.2727306701044411 0.5 -0.2805046552133011
v -0.26187765900025795 0.5 -0.3420551397765641
v -0.2727306701044411 0.4375 -0.2805046552133011
v -0.26187765900025795 0.4375 -0.3420551397765641
v -0.33428115466770403 0.5 -0.2913576663174842
v -0.3234281435635209 0.5 -0.35290815088074723
v -0.33428115466770403 0.4375 -0.2913576663174842
v -0.3234281435635209 0.4375 -0.35290815088074723
v -0.33428115466770403 0.5 -0.2913576663174842
v -0.3234281435635209 0.5 -0.35290815088074723
v -0.33428115466770403 0.4375 -0.2913576663174842
v -0.3234281435635209 0.4375 -0.35290815088074723
v -0.39583163923096704 0.5 -0.3022106774216674
v -0.3849786281267839 0.5 -0.3637611619849304
v -0.39583163923096704 0.4375 -0.3022106774216674
v -0.3849786281267839 0.4375 -0.3637611619849304
v -0.3234281435635209 0.5 -0.35290815088074723
v -0.31257513245933777 0.5 -0.4144586354440102
v -0.3234281435635209 0.4375 -0.35290815088074723
v -0.31257513245933777 0.4375 -0.4144586354440102
v -0.3849786281267839 0.5 -0.3637611619849304
v -0.3741256170226007 0.5 -0.4253116465481933
v -0.3849786281267839 0.4375 -0.3637611619849304
v -0.3741256170226007 0.4375 -0.4253116465481933
v -0.26187765900025795 0.5 -0.3420551397765641
v -0.25102464789607476 0.5 -0.40360562433982705
v -0.26187765900025795 0.4375 -0.3420551397765641
v -0.25102464789607476 0.4375 -0.40360562433982705
v -0.3234281435635209 0.5 -0.35290815088074723
v -0.31257513245933777 0.5 -0.4144586354440102
v -0.3234281435635209 0.4375 -0.35290815088074723
v -0.31257513245933777 0.4375 -0.4144586354440102
v -0.2003271744369949 0.5 -0.33120212867238097
v -0.18947416333281175 0.5 -0.3927526132356439
v -0.2003271744369949 0.4375 -0.33120212867238097
v -0.18947416333281175 0.4375 -0.3927526132356439
v -0.26187765900025795 0.5 -0.3420551397765641
v -0.25102464789607476 0.5 -0.40360562433982705
v -0.26187765900025795 0.4375 -0.3420551397765641
v -0.25102464789607476 0.4375 -0.40360562433982705
v -0.13877668987373193 0.5 -0.32034911756819784
v -0.12792367876954874 0.5 -0.3818996021314608
v -0.13877668987373193 0.4375 -0.32034911756819784
v -0.12792367876954874 0.4375 -0.3818996021314608
v -0.2003271744369949 0.5 -0.33120212867238097
v -0.18947416333281175 0.5 -0.3927526132356439
v -0.2003271744369949 0.4375 -0.33120212867238097
v -0.18947416333281175 0.4375 -0.3927526132356439
v -0.08807921641465205 0.5 -0.24794562190075164
v -0.07722620531046892 0.5 -0.30949610646401465
v -0.08807921641465205 0.4375 -0.24794562190075164
v -0.07722620531046892 0.4375 -0.30949610646401465
v -0.14962970097791506 0.5 -0.25879863300493483
v -0.13877668987373193 0.5 -0.32034911756819784
v -0.14962970097791506 0.4375 -0.25879863300493483
v -0.13877668987373193 0.4375 -0.32034911756819784
v -0.39583163923096704 0.5 -0.3022106774216674
v -0.3849786281267839 0.5 -0.3637611619849304
v -0.39583163923096704 0.4375 -0.3022106774216674
v -0.3849786281267839 0.4375 -0.3637611619849304
v -0.45738212379423004 0.5 -0.31306368852585054
v -0.4465291126900469 0.5 -0.37461417308911354
v -0.45738212379423004 0.4375 -0.31306368852585054
v -0.4465291126900469 0.4375 -0.37461417308911354
v -0.2220331966453612 0.5 -0.20810115954585495
v -0.21118018554117807 0.5 -0.26965164410911796
v -0.2220331966453612 0.4375 -0.20810115954585495
v -0.2835836812086242 0.5 -0.21895417065003808
v -0.2727306701044411 0.5 -0.2805046552133011
v -0.2835836812086242 0.4375 -0.21895417065003808
v -0.2727306701044411 0.4375 -0.2805046552133011
v -0.1604827120820982 0.5 -0.19724814844167182
v -0.14962970097791506 0.5 -0.25879863300493483
v -0.1604827120820982 0.4375 -0.19724814844167182
v -0.14962970097791506 0.4375 -0.25879863300493483
v -0.2220331966453612 0.5 -0.20810115954585495
v -0.21118018554117807 0.5 -0.26965164410911796
v -0.2220331966453612 0.4375 -0.20810115954585495
v -0.21118018554117807 0.4375 -0.26965164410911796
v -0.4066846503351502 0.5 -0.2406601928584044
v -0.39583163923096704 0.5 -0.3022106774216674
v -0.4066846503351502 0.4375 -0.2406601928584044
v -0.39583163923096704 0.4375 -0.3022106774216674
v -0.4682351348984132 0.5 -0.25151320396258753
v -0.45738212379423004 0.5 -0.31306368852585054
v -0.4682351348984132 0.4375 -0.25151320396258753
v -0.45738212379423004 0.4375 -0.31306368852585054
v -0.2835836812086242 0.5 -0.21895417065003808
v -0.2727306701044411 0.5 -0.2805046552133011
v -0.2835836812086242 0.4375 -0.21895417065003808
v -0.2727306701044411 0.4375 -0.2805046552133011
v -0.3451341657718872 0.5 -0.2298071817542212
v -0.33428115466770403 0.5 -0.2913576663174842
v -0.3451341657718872 0.4375 -0.2298071817542212
v -0.33428115466770403 0.4375 -0.2913576663174842
v -0.3451341657718872 0.5 -0.2298071817542212
v -0.33428115466770403 0.5 -0.2913576663174842
v -0.3451341657718872 0.4375 -0.2298071817542212
v -0.33428115466770403 0.4375 -0.2913576663174842
v -0.4066846503351502 0.5 -0.2406601928584044
v -0.39583163923096704 0.5 -0.3022106774216674
v -0.4066846503351502 0.4375 -0.2406601928584044
v -0.39583163923096704 0.4375 -0.3022106774216674
vt 0.515625 0.453125
vt 0.5 0.453125
vt 0.5 0.4375
vt 0.515625 0.4375
vt 0.515625 0.40625
vt 0.515625 0.421875
vt 0.5 0.421875
vt 0.5 0.40625
vt 0.234375 0.390625
vt 0.25 0.390625
vt 0.25 0.40625
vt 0.234375 0.40625
vt 0.515625 0.375
vt 0.515625 0.390625
vt 0.5 0.390625
vt 0.5 0.375
vt 0.25 0.359375
vt 0.25 0.375
vt 0.234375 0.375
vt 0.234375 0.359375
vt 0.515625 0.359375
vt 0.5 0.359375
vt 0.5 0.34375
vt 0.515625 0.34375
vt 0.25 0.34375
vt 0.234375 0.34375
vt 0.234375 0.328125
vt 0.25 0.328125
vt 0.515625 0.3125
vt 0.515625 0.328125
vt 0.5 0.328125
vt 0.5 0.3125
vt 0.234375 0.296875
vt 0.25 0.296875
vt 0.25 0.3125
vt 0.234375 0.3125
vt 0.703125 0.671875
vt 0.703125 0.6875
vt 0.6875 0.6875
vt 0.6875 0.671875
vt 0.703125 0.640625
vt 0.703125 0.65625
vt 0.6875 0.65625
vt 0.6875 0.640625
vt 0.703125 0.625
vt 0.6875 0.625
vt 0.6875 0.609375
vt 0.703125 0.609375
vt 0.546875 0.3125
vt 0.53125 0.3125
vt 0.53125 0.296875
vt 0.546875 0.296875
vt 0.578125 0.296875
vt 0.578125 0.3125
vt 0.5625 0.3125
vt 0.5625 0.296875
vt 0.59375 0.296875
vt 0.609375 0.296875
vt 0.609375 0.3125
vt 0.59375 0.3125
vt 0.640625 0.296875
vt 0.640625 0.3125
vt 0.625 0.3125
vt 0.625 0.296875
vt 0.671875 0.296875
vt 0.671875 0.3125
vt 0.65625 0.3125
vt 0.65625 0.296875
vt 0.703125 0.3125
vt 0.6875 0.3125
vt 0.6875 0.296875
vt 0.703125 0.296875
vt 0.515625 0.296875
vt 0.5 0.296875
vt 0.5 0.28125
vt 0.515625 0.28125
vt 0.25 0.265625
vt 0.25 0.28125
vt 0.234375 0.28125
vt 0.234375 0.265625
vt 0.71875 0.671875
vt 0.734375 0.671875
vt 0.734375 0.6875
vt 0.71875 0.6875
vt 0.734375 0.640625
vt 0.734375 0.65625
vt 0.71875 0.65625
vt 0.71875 0.640625
vt 0.734375 0.609375
vt 0.734375 0.625
vt 0.71875 0.625
vt 0.71875 0.609375
vt 0.546875 0.28125
vt 0.53125 0.28125
vt 0.53125 0.265625
vt 0.546875 0.265625
vt 0.578125 0.28125
vt 0.5625 0.28125
vt 0.5625 0.265625
vt 0.578125 0.265625
vt 0.609375 0.265625
vt 0.609375 0.28125
vt 0.59375 0.28125
vt 0.59375 0.265625
vt 0.625 0.265625
vt 0.640625 0.265625
vt 0.640625 0.28125
vt 0.625 0.28125
vt 0.734375 0.34375
vt 0.734375 0.359375
vt 0.71875 0.359375
vt 0.71875 0.34375
vt 0.671875 0.265625
vt 0.671875 0.28125
vt 0.65625 0.28125
vt 0.65625 0.265625
vt 0.734375 0.328125
vt 0.71875 0.328125
vt 0.71875 0.3125
vt 0.734375 0.3125
vt 0.703125 0.28125
vt 0.6875 0.28125
vt 0.6875 0.265625
vt 0.703125 0.265625
vt 0.734375 0.28125
vt 0.734375 0.296875
vt 0.71875 0.296875
vt 0.71875 0.28125
vt 0.734375 0.765625
vt 0.75 0.765625
vt 0.75 0.78125
vt 0.734375 0.78125
vt 0.75 0.734375
vt 0.75 0.75
vt 0.734375 0.75
vt 0.734375 0.734375
vt 0.75 0.703125
vt 0.75 0.71875
vt 0.734375 0.71875
vt 0.734375 0.703125
vt 0.515625 0.265625
vt 0.5 0.265625
vt 0.5 0.25
vt 0.515625 0.25
vt 0.734375 0.265625
vt 0.71875 0.265625
vt 0.71875 0.25
vt 0.734375 0.25
vt 0.25 0.234375
vt 0.25 0.25
vt 0.234375 0.25
vt 0.234375 0.234375
vt 0.265625 0.234375
vt 0.28125 0.234375
vt 0.28125 0.25
vt 0.265625 0.25
vt 0.3125 0.234375
vt 0.3125 0.25
vt 0.296875 0.25
vt 0.296875 0.234375
vt 0.765625 0.671875
vt 0.765625 0.6875
vt 0.75 0.6875
vt 0.75 0.671875
vt 0.34375 0.25
vt 0.328125 0.25
vt 0.328125 0.234375
vt 0.34375 0.234375
vt 0.765625 0.65625
vt 0.75 0.65625
vt 0.75 0.640625
vt 0.765625 0.640625
vt 0.375 0.234375
vt 0.375 0.25
vt 0.359375 0.25
vt 0.359375 0.234375
vt 0.75 0.609375
vt 0.765625 0.609375
vt 0.765625 0.625
vt 0.75 0.625
vt 0.40625 0.234375
vt 0.40625 0.25
vt 0.390625 0.25
vt 0.390625 0.234375
vt 0.4375 0.234375
vt 0.4375 0.25
vt 0.421875 0.25
vt 0.421875 0.234375
vt 0.46875 0.25
vt 0.453125 0.25
vt 0.453125 0.234375
vt 0.46875 0.234375
vt 0.546875 0.25
vt 0.53125 0.25
vt 0.53125 0.234375
vt 0.546875 0.234375
vt 0.578125 0.234375
vt 0.578125 0.25
vt 0.5625 0.25
vt 0.5625 0.234375
vt 0.59375 0.234375
vt 0.609375 0.234375
vt 0.609375 0.25
vt 0.59375 0.25
vt 0.640625 0.234375
vt 0.640625 0.25
vt 0.625 0.25
vt 0.625 0.234375
vt 0.765625 0.34375
vt 0.765625 0.359375
vt 0.75 0.359375
vt 0.75 0.34375
vt 0.671875 0.25
vt 0.65625 0.25
vt 0.65625 0.234375
vt 0.671875 0.234375
vt 0.765625 0.328125
vt 0.75 0.328125
vt 0.75 0.3125
vt 0.765625 0.3125
vt 0.703125 0.234375
vt 0.703125 0.25
vt 0.6875 0.25
vt 0.6875 0.234375
vt 0.75 0.28125
vt 0.765625 0.28125
vt 0.765625 0.296875
vt 0.75 0.296875
vt 0.765625 0.25
vt 0.765625 0.265625
vt 0.75 0.265625
vt 0.75 0.25
vt 0.78125 0.765625
vt 0.78125 0.78125
vt 0.765625 0.78125
vt 0.765625 0.765625
vt 0.78125 0.75
vt 0.765625 0.75
vt 0.765625 0.734375
vt 0.78125 0.734375
vt 0.78125 0.71875
vt 0.765625 0.71875
vt 0.765625 0.703125
vt 0.78125 0.703125
vt 0.5 0.21875
vt 0.5 0.234375
vt 0.484375 0.234375
vt 0.484375 0.21875
vt 0.765625 0.5
vt 0.78125 0.5
vt 0.78125 0.515625
vt 0.765625 0.515625
vt 0.78125 0.46875
vt 0.78125 0.484375
vt 0.765625 0.484375
vt 0.765625 0.46875
vt 0.78125 0.4375
vt 0.78125 0.453125
vt 0.765625 0.453125
vt 0.765625 0.4375
vt 0.78125 0.421875
vt 0.765625 0.421875
vt 0.765625 0.40625
vt 0.78125 0.40625
vt 0.78125 0.390625
vt 0.765625 0.390625
vt 0.765625 0.375
vt 0.78125 0.375
vt 0.734375 0.21875
vt 0.734375 0.234375
vt 0.71875 0.234375
vt 0.71875 0.21875
vt 0.75 0.21875
vt 0.765625 0.21875
vt 0.765625 0.234375
vt 0.75 0.234375
vt 0.796875 0.984375
vt 0.796875 1
vt 0.78125 1
vt 0.78125 0.984375
vt 0.796875 0.953125
vt 0.796875 0.96875
vt 0.78125 0.96875
vt 0.78125 0.953125
vt 0.796875 0.9375
vt 0.78125 0.9375
vt 0.78125 0.921875
vt 0.796875 0.921875
vt 0.796875 0.90625
vt 0.78125 0.90625
vt 0.78125 0.890625
vt 0.796875 0.890625
vt 0.796875 0.859375
vt 0.796875 0.875
vt 0.78125 0.875
vt 0.78125 0.859375
vt 0.78125 0.828125
vt 0.796875 0.828125
vt 0.796875 0.84375
vt 0.78125 0.84375
vt 0.796875 0.796875
vt 0.796875 0.8125
vt 0.78125 0.8125
vt 0.78125 0.796875
vt 0.25 0.203125
vt 0.25 0.21875
vt 0.234375 0.21875
vt 0.234375 0.203125
vt 0.28125 0.21875
vt 0.265625 0.21875
vt 0.265625 0.203125
vt 0.28125 0.203125
vt 0.3125 0.21875
vt 0.296875 0.21875
vt 0.296875 0.203125
vt 0.3125 0.203125
vt 0.796875 0.671875
vt 0.796875 0.6875
vt 0.78125 0.6875
vt 0.78125 0.671875
vt 0.328125 0.203125
vt 0.34375 0.203125
vt 0.34375 0.21875
vt 0.328125 0.21875
vt 0.796875 0.640625
vt 0.796875 0.65625
vt 0.78125 0.65625
vt 0.78125 0.640625
vt 0.375 0.203125
vt 0.375 0.21875
vt 0.359375 0.21875
vt 0.359375 0.203125
vt 0.796875 0.625
vt 0.78125 0.625
vt 0.78125 0.609375
vt 0.796875 0.609375
vt 0.40625 0.21875
vt 0.390625 0.21875
vt 0.390625 0.203125
vt 0.40625 0.203125
vt 0.4375 0.203125
vt 0.4375 0.21875
vt 0.421875 0.21875
vt 0.421875 0.203125
vt 0.453125 0.203125
vt 0.46875 0.203125
vt 0.46875 0.21875
vt 0.453125 0.21875
vt 0.53125 0.203125
vt 0.53125 0.21875
vt 0.515625 0.21875
vt 0.515625 0.203125
vt 0.5625 0.203125
vt 0.5625 0.21875
vt 0.546875 0.21875
vt 0.546875 0.203125
vt 0.59375 0.21875
vt 0.578125 0.21875
vt 0.578125 0.203125
vt 0.59375 0.203125
vt 0.625 0.21875
vt 0.609375 0.21875
vt 0.609375 0.203125
vt 0.625 0.203125
vt 0.65625 0.203125
vt 0.65625 0.21875
vt 0.640625 0.21875
vt 0.640625 0.203125
vt 0.78125 0.34375
vt 0.796875 0.34375
vt 0.796875 0.359375
vt 0.78125 0.359375
vt 0.6875 0.203125
vt 0.6875 0.21875
vt 0.671875 0.21875
vt 0.671875 0.203125
vt 0.796875 0.3125
vt 0.796875 0.328125
vt 0.78125 0.328125
vt 0.78125 0.3125
vt 0.796875 0.296875
vt 0.78125 0.296875
vt 0.78125 0.28125
vt 0.796875 0.28125
vt 0.796875 0.265625
vt 0.78125 0.265625
vt 0.78125 0.25
vt 0.796875 0.25
vt 0.796875 0.21875
vt 0.796875 0.234375
vt 0.78125 0.234375
vt 0.78125 0.21875
vt 0 0.1875
vt 0.015625 0.1875
vt 0.015625 0.203125
vt 0 0.203125
vt 0.046875 0.1875
vt 0.046875 0.203125
vt 0.03125 0.203125
vt 0.03125 0.1875
vt 0.078125 0.1875
vt 0.078125 0.203125
vt 0.0625 0.203125
vt 0.0625 0.1875
vt 0.109375 0.203125
vt 0.09375 0.203125
vt 0.09375 0.1875
vt 0.109375 0.1875
vt 0.140625 0.203125
vt 0.125 0.203125
vt 0.125 0.1875
vt 0.140625 0.1875
vt 0.171875 0.1875
vt 0.171875 0.203125
vt 0.15625 0.203125
vt 0.15625 0.1875
vt 0.1875 0.1875
vt 0.203125 0.1875
vt 0.203125 0.203125
vt 0.1875 0.203125
vt 0.8125 0.765625
vt 0.8125 0.78125
vt 0.796875 0.78125
vt 0.796875 0.765625
vt 0.8125 0.734375
vt 0.8125 0.75
vt 0.796875 0.75
vt 0.796875 0.734375
vt 0.8125 0.71875
vt 0.796875 0.71875
vt 0.796875 0.703125
vt 0.8125 0.703125
vt 0.8125 0.59375
vt 0.796875 0.59375
vt 0.796875 0.578125
vt 0.8125 0.578125
vt 0.8125 0.546875
vt 0.8125 0.5625
vt 0.796875 0.5625
vt 0.796875 0.546875
vt 0.796875 0.515625
vt 0.8125 0.515625
vt 0.8125 0.53125
vt 0.796875 0.53125
vt 0.5 0.1875
vt 0.5 0.203125
vt 0.484375 0.203125
vt 0.484375 0.1875
vt 0.8125 0.484375
vt 0.8125 0.5
vt 0.796875 0.5
vt 0.796875 0.484375
vt 0.8125 0.46875
vt 0.796875 0.46875
vt 0.796875 0.453125
vt 0.8125 0.453125
vt 0.8125 0.4375
vt 0.796875 0.4375
vt 0.796875 0.421875
vt 0.8125 0.421875
vt 0.8125 0.390625
vt 0.8125 0.40625
vt 0.796875 0.40625
vt 0.796875 0.390625
vt 0.703125 0.1875
vt 0.71875 0.1875
vt 0.71875 0.203125
vt 0.703125 0.203125
vt 0.75 0.1875
vt 0.75 0.203125
vt 0.734375 0.203125
vt 0.734375 0.1875
vt 0.78125 0.1875
vt 0.78125 0.203125
vt 0.765625 0.203125
vt 0.765625 0.1875
vt 0.8125 0.203125
vt 0.796875 0.203125
vt 0.796875 0.1875
vt 0.8125 0.1875
vt 0.828125 1
vt 0.8125 1
vt 0.8125 0.984375
vt 0.828125 0.984375
vt 0.828125 0.953125
vt 0.828125 0.96875
vt 0.8125 0.96875
vt 0.8125 0.953125
vt 0.8125 0.921875
vt 0.828125 0.921875
vt 0.828125 0.9375
vt 0.8125 0.9375
vt 0.828125 0.890625
vt 0.828125 0.90625
vt 0.8125 0.90625
vt 0.8125 0.890625
vt 0.828125 0.859375
vt 0.828125 0.875
vt 0.8125 0.875
vt 0.8125 0.859375
vt 0.828125 0.84375
vt 0.8125 0.84375
vt 0.8125 0.828125
vt 0.828125 0.828125
vt 0.828125 0.8125
vt 0.8125 0.8125
vt 0.8125 0.796875
vt 0.828125 0.796875
vt 0.234375 0.171875
vt 0.234375 0.1875
vt 0.21875 0.1875
vt 0.21875 0.171875
vt 0.25 0.171875
vt 0.265625 0.171875
vt 0.265625 0.1875
vt 0.25 0.1875
vt 0.296875 0.171875
vt 0.296875 0.1875
vt 0.28125 0.1875
vt 0.28125 0.171875
vt 0.328125 0.171875
vt 0.328125 0.1875
vt 0.3125 0.1875
vt 0.3125 0.171875
vt 0.828125 0.6875
vt 0.8125 0.6875
vt 0.8125 0.671875
vt 0.828125 0.671875
vt 0.359375 0.1875
vt 0.34375 0.1875
vt 0.34375 0.171875
vt 0.359375 0.171875
vt 0.828125 0.640625
vt 0.828125 0.65625
vt 0.8125 0.65625
vt 0.8125 0.640625
vt 0.375 0.171875
vt 0.390625 0.171875
vt 0.390625 0.1875
vt 0.375 0.1875
vt 0.828125 0.609375
vt 0.828125 0.625
vt 0.8125 0.625
vt 0.8125 0.609375
vt 0.421875 0.171875
vt 0.421875 0.1875
vt 0.40625 0.1875
vt 0.40625 0.171875
vt 0.453125 0.1875
vt 0.4375 0.1875
vt 0.4375 0.171875
vt 0.453125 0.171875
vt 0.53125 0.1875
vt 0.515625 0.1875
vt 0.515625 0.171875
vt 0.53125 0.171875
vt 0.5625 0.171875
vt 0.5625 0.1875
vt 0.546875 0.1875
vt 0.546875 0.171875
vt 0.578125 0.171875
vt 0.59375 0.171875
vt 0.59375 0.1875
vt 0.578125 0.1875
vt 0.625 0.171875
vt 0.625 0.1875
vt 0.609375 0.1875
vt 0.609375 0.171875
vt 0.828125 0.359375
vt 0.828125 0.375
vt 0.8125 0.375
vt 0.8125 0.359375
vt 0.65625 0.1875
vt 0.640625 0.1875
vt 0.640625 0.171875
vt 0.65625 0.171875
vt 0.828125 0.34375
vt 0.8125 0.34375
vt 0.8125 0.328125
vt 0.828125 0.328125
vt 0.6875 0.171875
vt 0.6875 0.1875
vt 0.671875 0.1875
vt 0.671875 0.171875
vt 0.8125 0.296875
vt 0.828125 0.296875
vt 0.828125 0.3125
vt 0.8125 0.3125
vt 0.828125 0.265625
vt 0.828125 0.28125
vt 0.8125 0.28125
vt 0.8125 0.265625
vt 0.828125 0.234375
vt 0.828125 0.25
vt 0.8125 0.25
vt 0.8125 0.234375
vt 0.015625 0.171875
vt 0 0.171875
vt 0 0.15625
vt 0.015625 0.15625
vt 0.046875 0.171875
vt 0.03125 0.171875
vt 0.03125 0.15625
vt 0.046875 0.15625
vt 0.078125 0.15625
vt 0.078125 0.171875
vt 0.0625 0.171875
vt 0.0625 0.15625
vt 0.09375 0.15625
vt 0.109375 0.15625
vt 0.109375 0.171875
vt 0.09375 0.171875
vt 0.140625 0.15625
vt 0.140625 0.171875
vt 0.125 0.171875
vt 0.125 0.15625
vt 0.171875 0.15625
vt 0.171875 0.171875
vt 0.15625 0.171875
vt 0.15625 0.15625
vt 0.203125 0.171875
vt 0.1875 0.171875
vt 0.1875 0.15625
vt 0.203125 0.15625
vt 0.84375 0.78125
vt 0.828125 0.78125
vt 0.828125 0.765625
vt 0.84375 0.765625
vt 0.84375 0.734375
vt 0.84375 0.75
vt 0.828125 0.75
vt 0.828125 0.734375
vt 0.828125 0.703125
vt 0.84375 0.703125
vt 0.84375 0.71875
vt 0.828125 0.71875
vt 0.84375 0.578125
vt 0.84375 0.59375
vt 0.828125 0.59375
vt 0.828125 0.578125
vt 0.84375 0.546875
vt 0.84375 0.5625
vt 0.828125 0.5625
vt 0.828125 0.546875
vt 0.484375 0.171875
vt 0.46875 0.171875
vt 0.46875 0.15625
vt 0.484375 0.15625
vt 0.84375 0.53125
vt 0.828125 0.53125
vt 0.828125 0.515625
vt 0.84375 0.515625
vt 0.84375 0.484375
vt 0.84375 0.5
vt 0.828125 0.5
vt 0.828125 0.484375
vt 0.828125 0.453125
vt 0.84375 0.453125
vt 0.84375 0.46875
vt 0.828125 0.46875
vt 0.84375 0.421875
vt 0.84375 0.4375
vt 0.828125 0.4375
vt 0.828125 0.421875
vt 0.84375 0.390625
vt 0.84375 0.40625
vt 0.828125 0.40625
vt 0.828125 0.390625
vt 0.71875 0.171875
vt 0.703125 0.171875
vt 0.703125 0.15625
vt 0.71875 0.15625
vt 0.75 0.171875
vt 0.734375 0.171875
vt 0.734375 0.15625
vt 0.75 0.15625
vt 0.78125 0.15625
vt 0.78125 0.171875
vt 0.765625 0.171875
vt 0.765625 0.15625
vt 0.828125 0.203125
vt 0.84375 0.203125
vt 0.84375 0.21875
vt 0.828125 0.21875
vt 0.8125 0.15625
vt 0.8125 0.171875
vt 0.796875 0.171875
vt 0.796875 0.15625
vt 0.84375 0.171875
vt 0.84375 0.1875
vt 0.828125 0.1875
vt 0.828125 0.171875
vt 0.859375 1
vt 0.84375 1
vt 0.84375 0.984375
vt 0.859375 0.984375
vt 0.859375 0.96875
vt 0.84375 0.96875
vt 0.84375 0.953125
vt 0.859375 0.953125
vt 0.859375 0.921875
vt 0.859375 0.9375
vt 0.84375 0.9375
vt 0.84375 0.921875
vt 0.84375 0.890625
vt 0.859375 0.890625
vt 0.859375 0.90625
vt 0.84375 0.90625
vt 0.859375 0.859375
vt 0.859375 0.875
vt 0.84375 0.875
vt 0.84375 0.859375
vt 0.859375 0.828125
vt 0.859375 0.84375
vt 0.84375 0.84375
vt 0.84375 0.828125
vt 0.859375 0.8125
vt 0.84375 0.8125
vt 0.84375 0.796875
vt 0.859375 0.796875
vt 0.234375 0.15625
vt 0.21875 0.15625
vt 0.21875 0.140625
vt 0.234375 0.140625
vt 0.265625 0.140625
vt 0.265625 0.15625
vt 0.25 0.15625
vt 0.25 0.140625
vt 0.28125 0.140625
vt 0.296875 0.140625
vt 0.296875 0.15625
vt 0.28125 0.15625
vt 0.328125 0.140625
vt 0.328125 0.15625
vt 0.3125 0.15625
vt 0.3125 0.140625
vt 0.859375 0.671875
vt 0.859375 0.6875
vt 0.84375 0.6875
vt 0.84375 0.671875
vt 0.359375 0.15625
vt 0.34375 0.15625
vt 0.34375 0.140625
vt 0.359375 0.140625
vt 0.859375 0.65625
vt 0.84375 0.65625
vt 0.84375 0.640625
vt 0.859375 0.640625
vt 0.390625 0.140625
vt 0.390625 0.15625
vt 0.375 0.15625
vt 0.375 0.140625
vt 0.84375 0.609375
vt 0.859375 0.609375
vt 0.859375 0.625
vt 0.84375 0.625
vt 0.421875 0.140625
vt 0.421875 0.15625
vt 0.40625 0.15625
vt 0.40625 0.140625
vt 0.453125 0.140625
vt 0.453125 0.15625
vt 0.4375 0.15625
vt 0.4375 0.140625
vt 0.515625 0.15625
vt 0.5 0.15625
vt 0.5 0.140625
vt 0.515625 0.140625
vt 0.546875 0.15625
vt 0.53125 0.15625
vt 0.53125 0.140625
vt 0.546875 0.140625
vt 0.578125 0.140625
vt 0.578125 0.15625
vt 0.5625 0.15625
vt 0.5625 0.140625
vt 0.59375 0.140625
vt 0.609375 0.140625
vt 0.609375 0.15625
vt 0.59375 0.15625
vt 0.640625 0.140625
vt 0.640625 0.15625
vt 0.625 0.15625
vt 0.625 0.140625
vt 0.859375 0.359375
vt 0.859375 0.375
vt 0.84375 0.375
vt 0.84375 0.359375
vt 0.671875 0.15625
vt 0.65625 0.15625
vt 0.65625 0.140625
vt 0.671875 0.140625
vt 0.859375 0.34375
vt 0.84375 0.34375
vt 0.84375 0.328125
vt 0.859375 0.328125
vt 0.859375 0.296875
vt 0.859375 0.3125
vt 0.84375 0.3125
vt 0.84375 0.296875
vt 0.84375 0.265625
vt 0.859375 0.265625
vt 0.859375 0.28125
vt 0.84375 0.28125
vt 0.859375 0.234375
vt 0.859375 0.25
vt 0.84375 0.25
vt 0.84375 0.234375
vt 0.84375 0.140625
vt 0.84375 0.15625
vt 0.828125 0.15625
vt 0.828125 0.140625
vt 0.015625 0.140625
vt 0 0.140625
vt 0 0.125
vt 0.015625 0.125
vn 0.984807753012208 0 0.17364817766693033
vn -0.984807753012208 0 -0.17364817766693033
vn 0 1 0
vn 0 -1 0
vn -0.17364817766693033 0 0.984807753012208
vn 0.17364817766693033 0 -0.984807753012208
vn 0.984807753012208 0 0.17364817766693033
vn -0.984807753012208 0 -0.17364817766693033
vn 0 1 0
vn 0 -1 0
vn -0.17364817766693033 0 0.984807753012208
vn 0.17364817766693033 0 -0.984807753012208
vn 0.984807753012208 0 0.17364817766693033
vn -0.984807753012208 0 -0.17364817766693033
vn 0 1 0
vn 0 -1 0
vn -0.17364817766693033 0 0.984807753012208
vn 0.17364817766693033 0 -0.984807753012208
vn 0.984807753012208 0 0.17364817766693033
vn -0.984807753012208 0 -0.17364817766693033
vn 0 1 0
vn 0 -1 0
vn -0.17364817766693033 0 0.984807753012208
vn 0.17364817766693033 0 -0.984807753012208
vn 0.984807753012208 0 0.17364817766693033
vn -0.984807753012208 0 -0.17364817766693033
vn 0 1 0
vn 0 -1 0
vn -0.17364817766693033 0 0.984807753012208
vn 0.17364817766693033 0 -0.984807753012208
vn 0.984807753012208 0 0.17364817766693033
vn -0.984807753012208 0 -0.17364817766693033
vn 0 1 0
vn 0 -1 0
vn -0.17364817766693033 0 0.984807753012208
vn 0.17364817766693033 0 -0.984807753012208
vn 0.984807753012208 0 0.17364817766693033
vn -0.984807753012208 0 -0.17364817766693033
vn 0 1 0
vn 0 -1 0
vn -0.17364817766693033 0 0.984807753012208
vn 0.17364817766693033 0 -0.984807753012208
vn 0.984807753012208 0 0.17364817766693033
vn -0.984807753012208 0 -0.17364817766693033
vn 0 1 0
vn 0 -1 0
vn -0.17364817766693033 0 0.984807753012208
vn 0.17364817766693033 0 -0.984807753012208
vn 0.984807753012208 0 0.17364817766693033
vn -0.984807753012208 0 -0.17364817766693033
vn 0 1 0
vn 0 -1 0
vn -0.17364817766693033 0 0.984807753012208
vn 0.17364817766693033 0 -0.984807753012208
vn 0.984807753012208 0 0.17364817766693033
vn -0.984807753012208 0 -0.17364817766693033
vn 0 1 0
vn 0 -1 0
vn -0.17364817766693033 0 0.984807753012208
vn 0.17364817766693033 0 -0.984807753012208
vn 0.984807753012208 0 0.17364817766693033
vn -0.984807753012208 0 -0.17364817766693033
vn 0 1 0
vn 0 -1 0
vn -0.17364817766693033 0 0.984807753012208
vn 0.17364817766693033 0 -0.984807753012208
vn 0.984807753012208 0 0.17364817766693033
vn -0.984807753012208 0 -0.17364817766693033
vn 0 1 0
vn 0 -1 0
vn -0.17364817766693033 0 0.984807753012208
vn 0.17364817766693033 0 -0.984807753012208
vn 0.984807753012208 0 0.17364817766693033
vn -0.984807753012208 0 -0.17364817766693033
vn 0 1 0
vn 0 -1 0
vn -0.17364817766693033 0 0.984807753012208
vn 0.17364817766693033 0 -0.984807753012208
vn 0.984807753012208 0 0.17364817766693033
vn -0.984807753012208 0 -0.17364817766693033
vn 0 1 0
vn 0 -1 0
vn -0.17364817766693033 0 0.984807753012208
vn 0.17364817766693033 0 -0.984807753012208
vn 0.984807753012208 0 0.17364817766693033
vn -0.984807753012208 0 -0.17364817766693033
vn 0 1 0
vn 0 -1 0
vn -0.17364817766693033 0 0.984807753012208
vn 0.17364817766693033 0 -0.984807753012208
vn 0.984807753012208 0 0.17364817766693033
vn -0.984807753012208 0 -0.17364817766693033
vn 0 1 0
vn 0 -1 0
vn -0.17364817766693033 0 0.984807753012208
vn 0.17364817766693033 0 -0.984807753012208
vn 0.984807753012208 0 0.17364817766693033
vn -0.984807753012208 0 -0.17364817766693033
vn 0 1 0
vn 0 -1 0
vn -0.17364817766693033 0 0.984807753012208
vn 0.17364817766693033 0 -0.984807753012208
vn 0.984807753012208 0 0.17364817766693033
vn -0.984807753012208 0 -0.17364817766693033
vn 0 1 0
vn 0 -1 0
vn -0.17364817766693033 0 0.984807753012208
vn 0.17364817766693033 0 -0.984807753012208
vn 0.984807753012208 0 0.17364817766693033
vn -0.984807753012208 0 -0.17364817766693033
vn 0 1 0
vn 0 -1 0
vn -0.17364817766693033 0 0.984807753012208
vn 0.17364817766693033 0 -0.984807753012208
vn 0.984807753012208 0 0.17364817766693033
vn -0.984807753012208 0 -0.17364817766693033
vn 0 1 0
vn 0 -1 0
vn -0.17364817766693033 0 0.984807753012208
vn 0.17364817766693033 0 -0.984807753012208
vn 0.984807753012208 0 0.17364817766693033
vn -0.984807753012208 0 -0.17364817766693033
vn 0 1 0
vn 0 -1 0
vn -0.17364817766693033 0 0.984807753012208
vn 0.17364817766693033 0 -0.984807753012208
vn 0.984807753012208 0 0.17364817766693033
vn -0.984807753012208 0 -0.17364817766693033
vn 0 1 0
vn 0 -1 0
vn -0.17364817766693033 0 0.984807753012208
vn 0.17364817766693033 0 -0.984807753012208
vn 0.984807753012208 0 0.17364817766693033
vn -0.984807753012208 0 -0.17364817766693033
vn 0 1 0
vn 0 -1 0
vn -0.17364817766693033 0 0.984807753012208
vn 0.17364817766693033 0 -0.984807753012208
vn 0.984807753012208 0 0.17364817766693033
vn -0.984807753012208 0 -0.17364817766693033
vn 0 1 0
vn 0 -1 0
vn -0.17364817766693033 0 0.984807753012208
vn 0.17364817766693033 0 -0.984807753012208
vn 0.984807753012208 0 0.17364817766693033
vn -0.984807753012208 0 -0.17364817766693033
vn 0 1 0
vn 0 -1 0
vn -0.17364817766693033 0 0.984807753012208
vn 0.17364817766693033 0 -0.984807753012208
vn 0.984807753012208 0 0.17364817766693033
vn -0.984807753012208 0 -0.17364817766693033
vn 0 1 0
vn 0 -1 0
vn -0.17364817766693033 0 0.984807753012208
vn 0.17364817766693033 0 -0.984807753012208
vn 0.984807753012208 0 0.17364817766693033
vn -0.984807753012208 0 -0.17364817766693033
vn 0 1 0
vn 0 -1 0
vn -0.17364817766693033 0 0.984807753012208
vn 0.17364817766693033 0 -0.984807753012208
vn 0.984807753012208 0 0.17364817766693033
vn -0.984807753012208 0 -0.17364817766693033
vn 0 1 0
vn 0 -1 0
vn -0.17364817766693033 0 0.984807753012208
vn 0.17364817766693033 0 -0.984807753012208
vn 0.984807753012208 0 0.17364817766693033
vn -0.984807753012208 0 -0.17364817766693033
vn 0 1 0
vn 0 -1 0
vn -0.17364817766693033 0 0.984807753012208
vn 0.17364817766693033 0 -0.984807753012208
vn 0.984807753012208 0 0.17364817766693033
vn -0.984807753012208 0 -0.17364817766693033
vn 0 1 0
vn 0 -1 0
vn -0.17364817766693033 0 0.984807753012208
vn 0.17364817766693033 0 -0.984807753012208
vn 0.984807753012208 0 0.17364817766693033
vn -0.984807753012208 0 -0.17364817766693033
vn 0 1 0
vn 0 -1 0
vn -0.17364817766693033 0 0.984807753012208
vn 0.17364817766693033 0 -0.984807753012208
vn 0.984807753012208 0 0.17364817766693033
vn -0.984807753012208 0 -0.17364817766693033
vn 0 1 0
vn 0 -1 0
vn -0.17364817766693033 0 0.984807753012208
vn 0.17364817766693033 0 -0.984807753012208
vn 0.984807753012208 0 0.17364817766693033
vn -0.984807753012208 0 -0.17364817766693033
vn 0 1 0
vn 0 -1 0
vn -0.17364817766693033 0 0.984807753012208
vn 0.17364817766693033 0 -0.984807753012208
vn 0.984807753012208 0 0.17364817766693033
vn -0.984807753012208 0 -0.17364817766693033
vn 0 1 0
vn 0 -1 0
vn -0.17364817766693033 0 0.984807753012208
vn 0.17364817766693033 0 -0.984807753012208
usemtl m_7db3ce70-e6e7-f65f-452d-7697b1295f8f
f 66/193/49 65/194/49 67/195/49 68/196/49
f 71/197/50 69/198/50 70/199/50 72/200/50
f 69/201/51 65/202/51 66/203/51 70/204/51
f 68/205/52 67/206/52 71/207/52 72/208/52
f 67/209/53 65/210/53 69/211/53 71/212/53
f 70/213/54 66/214/54 68/215/54 72/216/54
f 74/217/55 73/218/55 75/219/55 76/220/55
f 79/221/56 77/222/56 78/223/56 80/224/56
f 77/225/57 73/226/57 74/227/57 78/228/57
f 76/229/58 75/230/58 79/231/58 80/232/58
f 75/233/59 73/234/59 77/235/59 79/236/59
f 78/237/60 74/238/60 76/239/60 80/240/60
f 82/241/61 81/242/61 83/243/61 84/244/61
f 87/245/62 85/246/62 86/247/62 88/248/62
f 85/249/63 81/250/63 82/251/63 86/252/63
f 84/253/64 83/254/64 87/255/64 88/256/64
f 83/257/65 81/258/65 85/259/65 87/260/65
f 86/261/66 82/262/66 84/263/66 88/264/66
f 90/265/67 89/266/67 91/267/67 92/268/67
f 95/269/68 93/270/68 94/271/68 96/272/68
f 93/273/69 89/274/69 90/275/69 94/276/69
f 92/277/70 91/278/70 95/279/70 96/280/70
f 91/281/71 89/282/71 93/283/71 95/284/71
f 94/285/72 90/286/72 92/287/72 96/288/72
f 98/289/73 97/290/73 99/291/73 100/292/73
f 103/293/74 101/294/74 102/295/74 104/296/74
f 101/297/75 97/298/75 98/299/75 102/300/75
f 100/301/76 99/302/76 103/303/76 104/304/76
f 99/305/77 97/306/77 101/307/77 103/308/77
f 102/309/78 98/310/78 100/311/78 104/312/78
f 106/313/79 105/314/79 107/315/79 108/316/79
f 111/317/80 109/318/80 110/319/80 112/320/80
f 109/321/81 105/322/81 106/323/81 110/324/81
f 108/325/82 107/326/82 111/327/82 112/328/82
f 107/329/83 105/330/83 109/331/83 111/332/83
f 110/333/84 106/334/84 108/335/84 112/336/84
f 114/337/85 113/338/85 115/339/85 116/340/85
f 119/341/86 117/342/86 118/343/86 120/344/86
f 117/345/87 113/346/87 114/347/87 118/348/87
f 116/349/88 115/350/88 119/351/88 120/352/88
f 115/353/89 113/354/89 117/355/89 119/356/89
f 118/357/90 114/358/90 116/359/90 120/360/90
f 122/361/91 121/362/91 123/363/91 124/364/91
f 127/365/92 125/366/92 126/367/92 128/368/92
f 125/369/93 121/370/93 122/371/93 126/372/93
f 124/373/94 123/374/94 127/375/94 128/376/94
f 123/377/95 121/378/95 125/379/95 127/380/95
f 126/381/96 122/382/96 124/383/96 128/384/96
f 130/385/97 129/386/97 131/387/97 132/388/97
f 135/389/98 133/390/98 134/391/98 136/392/98
f 133/393/99 129/394/99 130/395/99 134/396/99
f 132/397/100 131/398/100 135/399/100 136/400/100
f 131/401/101 129/402/101 133/403/101 135/404/101
f 134/405/102 130/406/102 132/407/102 136/408/102
f 138/409/103 137/410/103 139/411/103 140/412/103
f 143/413/104 141/414/104 142/415/104 144/416/104
f 141/417/105 137/418/105 138/419/105 142/420/105
f 140/421/106 139/422/106 143/423/106 144/424/106
f 139/425/107 137/426/107 141/427/107 143/428/107
f 142/429/108 138/430/108 140/431/108 144/432/108
f 146/433/109 145/434/109 147/435/109 148/436/109
f 151/437/110 149/438/110 150/439/110 152/440/110
f 149/441/111 145/442/111 146/443/111 150/444/111
f 148/445/112 147/446/112 151/447/112 152/448/112
f 147/449/113 145/450/113 149/451/113 151/452/113
f 150/453/114 146/454/114 148/455/114 152/456/114
f 154/457/115 153/458/115 155/459/115 156/460/115
f 159/461/116 157/462/116 158/463/116 160/464/116
f 157/465/117 153/466/117 154/467/117 158/468/117
f 156/469/118 155/470/118 159/471/118 160/472/118
f 155/473/119 153/474/119 157/475/119 159/476/119
f 158/477/120 154/478/120 156/479/120 160/480/120
f 162/481/121 161/482/121 163/483/121 164/484/121
f 167/485/122 165/486/122 166/487/122 168/488/122
f 165/489/123 161/490/123 162/491/123 166/492/123
f 164/493/124 163/494/124 167/495/124 168/496/124
f 163/497/125 161/498/125 165/499/125 167/500/125
f 166/501/126 162/502/126 164/503/126 168/504/126
f 170/505/127 169/506/127 171/507/127 172/508/127
f 175/509/128 173/510/128 174/511/128 176/512/128
f 173/513/129 169/514/129 170/515/129 174/516/129
f 172/517/130 171/518/130 175/519/130 176/520/130
f 171/521/131 169/522/131 173/523/131 175/524/131
f 174/525/132 170/526/132 172/527/132 176/528/132
f 178/529/133 177/530/133 179/531/133 180/532/133
f 183/533/134 181/534/134 182/535/134 184/536/134
f 181/537/135 177/538/135 178/539/135 182/540/135
f 180/541/136 179/542/136 183/543/136 184/544/136
f 179/545/137 177/546/137 181/547/137 183/548/137
f 182/549/138 178/550/138 180/551/138 184/552/138
f 186/553/139 185/554/139 187/555/139 188/556/139
f 191/557/140 189/558/140 190/559/140 192/560/140
f 189/561/141 185/562/141 186/563/141 190/564/141
f 188/565/142 187/566/142 191/567/142 192/568/142
f 187/569/143 185/570/143 189/571/143 191/572/143
f 190/573/144 186/574/144 188/575/144 192/576/144
f 194/577/145 193/578/145 195/579/145 196/580/145
f 199/581/146 197/582/146 198/583/146 200/584/146
f 197/585/147 193/586/147 194/587/147 198/588/147
f 196/589/148 195/590/148 199/591/148 200/592/148
f 195/593/149 193/594/149 197/595/149 199/596/149
f 198/597/150 194/598/150 196/599/150 200/600/150
f 202/601/151 201/602/151 203/603/151 204/604/151
f 207/605/152 205/606/152 206/607/152 208/608/152
f 205/609/153 201/610/153 202/611/153 206/612/153
f 204/613/154 203/614/154 207/615/154 208/616/154
f 203/617/155 201/618/155 205/619/155 207/620/155
f 206/621/156 202/622/156 204/623/156 208/624/156
f 211/625/157 210/626/157 212/627/157 213/628/157
f 216/629/158 214/630/158 215/631/158 217/632/158
f 214/633/159 210/634/159 211/635/159 215/636/159
f 213/637/160 212/638/160 216/639/160 217/640/160
f 212/641/161 210/642/161 214/643/161 216/644/161
f 215/645/162 211/646/162 213/647/162 217/648/162
f 219/649/163 218/650/163 220/651/163 221/652/163
f 224/653/164 222/654/164 223/655/164 225/656/164
f 222/657/165 218/658/165 219/659/165 223/660/165
f 221/661/166 220/662/166 224/663/166 225/664/166
f 220/665/167 218/666/167 222/667/167 224/668/167
f 223/669/168 219/670/168 221/671/168 225/672/168
f 227/673/169 226/674/169 228/675/169 229/676/169
f 232/677/170 230/678/170 231/679/170 233/680/170
f 230/681/171 226/682/171 227/683/171 231/684/171
f 229/685/172 228/686/172 232/687/172 233/688/172
f 228/689/173 226/690/173 230/691/173 232/692/173
f 231/693/174 227/694/174 229/695/174 233/696/174
f 235/697/175 234/698/175 236/699/175 237/700/175
f 240/701/176 238/702/176 239/703/176 241/704/176
f 238/705/177 234/706/177 235/707/177 239/708/177
f 237/709/178 236/710/178 240/711/178 241/712/178
f 236/713/179 234/714/179 238/715/179 240/716/179
f 239/717/180 235/718/180 237/719/180 241/720/180
f 243/721/181 242/722/181 244/723/181 245/724/181
f 248/725/182 246/726/182 247/727/182 249/728/182
f 246/729/183 242/730/183 243/731/183 247/732/183
f 245/733/184 244/734/184 248/735/184 249/736/184
f 244/737/185 242/738/185 246/739/185 248/740/185
f 247/741/186 243/742/186 245/743/186 249/744/186
f 251/745/187 250/746/187 252/747/187 253/748/187
f 256/749/188 254/750/188 255/751/188 257/752/188
f 254/753/189 250/754/189 251/755/189 255/756/189
f 253/757/190 252/758/190 256/759/190 257/760/190
f 252/761/191 250/762/191 254/763/191 256/764/191
f 255/765/192 251/766/192 253/767/192 257/768/192
f 259/769/193 258/770/193 260/771/193 261/772/193
f 264/773/194 262/774/194 263/775/194 265/776/194
f 262/777/195 258/778/195 259/779/195 263/780/195
f 261/781/196 260/782/196 264/783/196 265/784/196
f 260/785/197 258/786/197 262/787/197 264/788/197
f 263/789/198 259/790/198 261/791/198 265/792/198
f 267/793/199 266/794/199 268/795/199 269/796/199
f 272/797/200 270/798/200 271/799/200 273/800/200
f 270/801/201 266/802/201 267/803/201 271/804/201
f 269/805/202 268/806/202 272/807/202 273/808/202
f 268/809/203 266/810/203 270/811/203 272/812/203
f 271/813/204 267/814/204 269/815/204 273/816/204
f 275/817/205 274/818/205 276/819/205 277/820/205
f 280/821/206 278/822/206 279/823/206 281/824/206
f 278/825/207 274/826/207 275/827/207 279/828/207
f 277/829/208 276/830/208 280/831/208 281/832/208
f 276/833/209 274/834/209 278/835/209 280/836/209
f 279/837/210 275/838/210 277/839/210 281/840/210
f 283/841/211 282/842/211 284/843/211 285/844/211
f 288/845/212 286/846/212 287/847/212 289/848/212
f 286/849/213 282/850/213 283/851/213 287/852/213
f 285/853/214 284/854/214 288/855/214 289/856/214
f 284/857/215 282/858/215 286/859/215 288/860/215
f 287/861/216 283/862/216 285/863/216 289/864/216
f 291/865/217 290/866/217 292/867/217 293/868/217
f 296/869/218 294/870/218 295/871/218 297/872/218
f 294/873/219 290/874/219 291/875/219 295/876/219
f 293/877/220 292/878/220 296/879/220 297/880/220
f 292/881/221 290/882/221 294/883/221 296/884/221
f 295/885/222 291/886/222 293/887/222 297/888/222
f 299/889/223 298/890/223 300/891/223 209/892/223
f 303/893/224 301/894/224 302/895/224 304/896/224
f 301/897/225 298/898/225 299/899/225 302/900/225
f 209/901/226 300/902/226 303/903/226 304/904/226
f 300/905/227 298/906/227 301/907/227 303/908/227
f 302/909/228 299/910/228 209/911/228 304/912/228
f 306/913/229 305/914/229 307/915/229 308/916/229
f 311/917/230 309/918/230 310/919/230 312/920/230
f 309/921/231 305/922/231 306/923/231 310/924/231
f 308/925/232 307/926/232 311/927/232 312/928/232
f 307/929/233 305/930/233 309/931/233 311/932/233
f 310/933/234 306/934/234 308/935/234 312/936/234
f 314/937/235 313/938/235 315/939/235 316/940/235
f 319/941/236 317/942/236 318/943/236 320/944/236
f 317/945/237 313/946/237 314/947/237 318/948/237
f 316/949/238 315/950/238 319/951/238 320/952/238
f 315/953/239 313/954/239 317/955/239 319/956/239
f 318/957/240 314/958/240 316/959/240 320/960/240
f 322/961/241 321/962/241 323/963/241 324/964/241
f 327/965/242 325/966/242 326/967/242 328/968/242
f 325/969/243 321/970/243 322/971/243 326/972/243
f 324/973/244 323/974/244 327/975/244 328/976/244
f 323/977/245 321/978/245 325/979/245 327/980/245
f 326/981/246 322/982/246 324/983/246 328/984/246
f 330/985/247 329/986/247 331/987/247 332/988/247
f 335/989/248 333/990/248 334/991/248 336/992/248
f 333/993/249 329/994/249 330/995/249 334/996/249
f 332/997/250 331/998/250 335/999/250 336/1000/250
f 331/1001/251 329/1002/251 333/1003/251 335/1004/251
f 334/1005/252 330/1006/252 332/1007/252 336/1008/252