# Made in Blockbench 5.1.6
mtllib more_decor_medium_factory_lamp.mtl

o mesh
v -1.4375 0.5 -0.18750000000000033
v 1.4375 0.5 -0.18749999999999967
v 1.4375 0.4375 -0.18749999999999967
v -1.4375 0.4375 -0.18750000000000033
v 1.4375 0.4375 0.18750000000000033
v 1.4375 0.5 0.18750000000000033
v -1.4375 0.5 0.18749999999999967
v -1.4375 0.4375 0.18749999999999967
vt 0.71875 0.8125
vt 0 0.8125
vt 0 0.796875
vt 0.71875 0.796875
vt 0.71875 0.78125
vt 0.71875 0.796875
vt 0 0.796875
vt 0 0.78125
vt 0.71875 0.90625
vt 0.71875 1
vt 0 1
vt 0 0.90625
vt 0 0.8125
vt 0.71875 0.8125
vt 0.71875 0.90625
vt 0 0.90625
vt 0.09375 0.765625
vt 0.09375 0.78125
vt 0 0.78125
vt 0 0.765625
vt 0.1875 0.78125
vt 0.09375 0.78125
vt 0.09375 0.765625
vt 0.1875 0.765625
vn 2.3169871818264136e-16 0 -1
vn -2.3169871818264136e-16 0 1
vn 0 1 0
vn 0 -1 0
vn 1 0 0
vn -1 0 0
usemtl m_b5d7befd-4e49-45b0-274a-f854f39d08df
f 1/1/1 2/2/1 3/3/1 4/4/1
f 5/5/2 6/6/2 7/7/2 8/8/2
f 6/9/3 2/10/3 1/11/3 7/12/3
f 4/13/4 3/14/4 5/15/4 8/16/4
f 3/17/5 2/18/5 6/19/5 5/20/5
f 7/21/6 1/22/6 4/23/6 8/24/6