# Made in Blockbench 5.1.6
mtllib more_decor_small_factory_lamp.mtl

o mesh
v -0.43749999999999994 0.5 -0.1875000000000001
v 0.43750000000000006 0.5 -0.1874999999999999
v 0.43750000000000006 0.4375 -0.1874999999999999
v -0.43749999999999994 0.4375 -0.1875000000000001
v 0.43749999999999994 0.4375 0.1875000000000001
v 0.43749999999999994 0.5 0.1875000000000001
v -0.43750000000000006 0.5 0.1874999999999999
v -0.43750000000000006 0.4375 0.1874999999999999
vt 0.875 1
vt 0.4375 1
vt 0.4375 0.96875
vt 0.875 0.96875
vt 0.875 0.90625
vt 0.875 0.9375
vt 0.4375 0.9375
vt 0.4375 0.90625
vt 0 0.5625
vt 0.1875 0.5625
vt 0.1875 1
vt 0 1
vt 0.40625 0.5625
vt 0.40625 1
vt 0.21875 1
vt 0.21875 0.5625
vt 0.625 0.84375
vt 0.625 0.875
vt 0.4375 0.875
vt 0.4375 0.84375
vt 0.625 0.8125
vt 0.4375 0.8125
vt 0.4375 0.78125
vt 0.625 0.78125
vn 2.220446049250313e-16 0 -1
vn -2.220446049250313e-16 0 1
vn 0 1 0
vn 0 -1 0
vn 1 0 2.220446049250313e-16
vn -1 0 -2.220446049250313e-16
usemtl m_eea482aa-dd17-ef15-62fa-14690c22d91d
f 1/1/1 2/2/1 3/3/1 4/4/1
f 5/5/2 6/6/2 7/7/2 8/8/2
f 6/9/3 2/10/3 1/11/3 7/12/3
f 4/13/4 3/14/4 5/15/4 8/16/4
f 3/17/5 2/18/5 6/19/5 5/20/5
f 7/21/6 1/22/6 4/23/6 8/24/6