# Made in Blockbench 5.1.6
mtllib more_decor_large_factory_lamp.mtl

o mesh
v -2.4375 0.5 -0.18750000000000056
v 2.4375 0.5 -0.18749999999999944
v 2.4375 0.4375 -0.18749999999999944
v -2.4375 0.4375 -0.18750000000000056
v 2.4375 0.4375 0.18750000000000056
v 2.4375 0.5 0.18750000000000056
v -2.4375 0.5 0.18749999999999944
v -2.4375 0.4375 0.18749999999999944
vt 0.609375 0.90625
vt 0 0.90625
vt 0 0.8984375
vt 0.609375 0.8984375
vt 0.609375 0.890625
vt 0.609375 0.8984375
vt 0 0.8984375
vt 0 0.890625
vt 0.609375 0.953125
vt 0.609375 1
vt 0 1
vt 0 0.953125
vt 0 0.90625
vt 0.609375 0.90625
vt 0.609375 0.953125
vt 0 0.953125
vt 0.046875 0.8828125
vt 0.046875 0.890625
vt 0 0.890625
vt 0 0.8828125
vt 0.09375 0.890625
vt 0.046875 0.890625
vt 0.046875 0.8828125
vt 0.09375 0.8828125
vn 2.277380563333654e-16 0 -1
vn -2.277380563333654e-16 0 1
vn 0 1 0
vn 0 -1 0
vn 1 0 0
vn -1 0 0
usemtl m_e52bbad6-22c1-e1f6-1385-a6f0e8e50803
f 1/1/1 2/2/1 3/3/1 4/4/1
f 5/5/2 6/6/2 7/7/2 8/8/2
f 6/9/3 2/10/3 1/11/3 7/12/3
f 4/13/4 3/14/4 5/15/4 8/16/4
f 3/17/5 2/18/5 6/19/5 5/20/5
f 7/21/6 1/22/6 4/23/6 8/24/6