# Made in Blockbench 5.1.6
mtllib more_decor_encased_lamp.mtl

o base
v 0.1875 -0.375 0.1875
v 0.1875 -0.375 -0.1875
v 0.1875 -0.5 0.1875
v 0.1875 -0.5 -0.1875
v -0.1875 -0.375 0.1875
v -0.1875 -0.375 -0.1875
v -0.1875 -0.5 0.1875
v -0.1875 -0.5 -0.1875
vt 0.9375 0.46875
vt 0.75 0.46875
vt 0.75 0.40625
vt 0.9375 0.40625
vt 0.96875 0.9375
vt 0.96875 1
vt 0.78125 1
vt 0.78125 0.9375
vt 0 0.8125
vt 0.1875 0.8125
vt 0.1875 1
vt 0 1
vt 0.1875 0.59375
vt 0.1875 0.78125
vt 0 0.78125
vt 0 0.59375
vt 0.96875 0.84375
vt 0.96875 0.90625
vt 0.78125 0.90625
vt 0.78125 0.84375
vt 0.96875 0.8125
vt 0.78125 0.8125
vt 0.78125 0.75
vt 0.96875 0.75
vn 1 0 0
vn -1 0 0
vn 0 1 0
vn 0 -1 0
vn 0 0 1
vn 0 0 -1
usemtl m_59ad4d47-1626-40af-cdaa-6b8fb858d7ce
f 2/1/1 1/2/1 3/3/1 4/4/1
f 7/5/2 5/6/2 6/7/2 8/8/2
f 5/9/3 1/10/3 2/11/3 6/12/3
f 4/13/4 3/14/4 7/15/4 8/16/4
f 3/17/5 1/18/5 5/19/5 7/20/5
f 6/21/6 2/22/6 4/23/6 8/24/6
o light
v 0.125 -0.0625 0.125
v 0.125 -0.0625 -0.125
v 0.125 -0.375 0.125
v 0.125 -0.375 -0.125
v -0.125 -0.0625 0.125
v -0.125 -0.0625 -0.125
v -0.125 -0.375 0.125
v -0.125 -0.375 -0.125
vt 0.125 0.34375
vt 0 0.34375
vt 0 0.1875
vt 0.125 0.1875
vt 0.28125 0.1875
vt 0.28125 0.34375
vt 0.15625 0.34375
vt 0.15625 0.1875
vt 0.625 0.21875
vt 0.75 0.21875
vt 0.75 0.34375
vt 0.625 0.34375
vt 0.875 0.5
vt 0.875 0.625
vt 0.75 0.625
vt 0.75 0.5
vt 0.4375 0.1875
vt 0.4375 0.34375
vt 0.3125 0.34375
vt 0.3125 0.1875
vt 0.59375 0.34375
vt 0.46875 0.34375
vt 0.46875 0.1875
vt 0.59375 0.1875
vn 1 0 0
vn -1 0 0
vn 0 1 0
vn 0 -1 0
vn 0 0 1
vn 0 0 -1
usemtl m_59ad4d47-1626-40af-cdaa-6b8fb858d7ce
f 10/25/7 9/26/7 11/27/7 12/28/7
f 15/29/8 13/30/8 14/31/8 16/32/8
f 13/33/9 9/34/9 10/35/9 14/36/9
f 12/37/10 11/38/10 15/39/10 16/40/10
f 11/41/11 9/42/11 13/43/11 15/44/11
f 14/45/12 10/46/12 12/47/12 16/48/12
o case
v -0.15625 -0.03125 0.15625
v -0.15625 -0.03125 -0.15625
v -0.15625 -0.375 0.15625
v -0.15625 -0.375 -0.15625
v -0.15625 -0.03125 0.15625
v -0.15625 -0.03125 -0.15625
v -0.15625 -0.375 0.15625
v -0.15625 -0.375 -0.15625
v -0.15625 -0.03125 -0.15624999999999997
v 0.15625 -0.03125 -0.15625000000000003
v -0.15625 -0.375 -0.15624999999999997
v 0.15625 -0.375 -0.15625000000000003
v -0.15625 -0.03125 -0.15624999999999997
v 0.15625 -0.03125 -0.15625000000000003
v -0.15625 -0.375 -0.15624999999999997
v 0.15625 -0.375 -0.15625000000000003
v 0.15625 -0.03125 0.15625
v 0.15625 -0.03125 -0.15625
v 0.15625 -0.03125 0.15625
v 0.15625 -0.03125 -0.15625
v -0.15625 -0.03125 0.15625
v -0.15625 -0.03125 -0.15625
v -0.15625 -0.03125 0.15625
v -0.15625 -0.03125 -0.15625
v -0.15625 -0.03125 0.15625000000000003
v 0.15625 -0.03125 0.15624999999999997
v -0.15625 -0.375 0.15625000000000003
v 0.15625 -0.375 0.15624999999999997
v -0.15625 -0.03125 0.15625000000000003
v 0.15625 -0.03125 0.15624999999999997
v -0.15625 -0.375 0.15625000000000003
v 0.15625 -0.375 0.15624999999999997
v 0.15625 -0.03125 0.15625
v 0.15625 -0.03125 -0.15625
v 0.15625 -0.375 0.15625
v 0.15625 -0.375 -0.15625
v 0.15625 -0.03125 0.15625
v 0.15625 -0.03125 -0.15625
v 0.15625 -0.375 0.15625
v 0.15625 -0.375 -0.15625
vt 0.375 1
vt 0.21875 1
vt 0.21875 0.8125
vt 0.375 0.8125
vt 0.375 0.59375
vt 0.375 0.78125
vt 0.21875 0.78125
vt 0.21875 0.59375
vt 0 0.84375
vt 0 1
vt 0 0.84375
vt 0 1
vt 0 0.84375
vt 0 0.84375
vt 0 1
vt 0 1
vt 0 1
vt 0 1
vt 0 1
vt 0 1
vt 0 1
vt 0 1
vt 0 1
vt 0 1
vt 0.15625 0.5625
vt 0 0.5625
vt 0 0.375
vt 0.15625 0.375
vt 0.34375 0.375
vt 0.34375 0.5625
vt 0.1875 0.5625
vt 0.1875 0.375
vt 0 1
vt 0.15625 1
vt 0 1
vt 0.15625 1
vt 0 1
vt 0 1
vt 0.15625 1
vt 0.15625 1
vt 0 1
vt 0 1
vt 0 1
vt 0 1
vt 0 1
vt 0 1
vt 0 1
vt 0 1
vt 0 0.84375
vt 0 0.84375
vt 0 1
vt 0 1
vt 0 0.84375
vt 0 1
vt 0 0.84375
vt 0 1
vt 0.59375 0.84375
vt 0.75 0.84375
vt 0.75 1
vt 0.59375 1
vt 0.75 0.65625
vt 0.75 0.8125
vt 0.59375 0.8125
vt 0.59375 0.65625
vt 0.15625 1
vt 0 1
vt 0.15625 1
vt 0 1
vt 0.15625 1
vt 0.15625 1
vt 0 1
vt 0 1
vt 0.53125 0.5625
vt 0.375 0.5625
vt 0.375 0.375
vt 0.53125 0.375
vt 0.71875 0.375
vt 0.71875 0.5625
vt 0.5625 0.5625
vt 0.5625 0.375
vt 0 1
vt 0.15625 1
vt 0 1
vt 0.15625 1
vt 0 1
vt 0 1
vt 0.15625 1
vt 0.15625 1
vt 0 1
vt 0 1
vt 0 1
vt 0 1
vt 0 1
vt 0 1
vt 0 1
vt 0 1
vt 0.5625 1
vt 0.40625 1
vt 0.40625 0.8125
vt 0.5625 0.8125
vt 0.5625 0.59375
vt 0.5625 0.78125
vt 0.40625 0.78125
vt 0.40625 0.59375
vt 0 0.84375
vt 0 1
vt 0 0.84375
vt 0 1
vt 0 0.84375
vt 0 0.84375
vt 0 1
vt 0 1
vt 0 1
vt 0 1
vt 0 1
vt 0 1
vt 0 1
vt 0 1
vt 0 1
vt 0 1
vn 1 0 0
vn -1 0 0
vn 0 0 0
vn 0 0 0
vn 0 0 0
vn 0 0 0
vn 1.7763568394002506e-16 0 1
vn -1.7763568394002506e-16 0 -1
vn 0 0 0
vn 0 0 0
vn 0 0 0
vn 0 0 0
vn 0 0 0
vn 0 0 0
vn 0 1 0
vn 0 -1 0
vn 0 0 0
vn 0 0 0
vn 1.7763568394002506e-16 0 1
vn -1.7763568394002506e-16 0 -1
vn 0 0 0
vn 0 0 0
vn 0 0 0
vn 0 0 0
vn 1 0 0
vn -1 0 0
vn 0 0 0
vn 0 0 0
vn 0 0 0
vn 0 0 0
usemtl m_59ad4d47-1626-40af-cdaa-6b8fb858d7ce
f 18/49/13 17/50/13 19/51/13 20/52/13
f 23/53/14 21/54/14 22/55/14 24/56/14
f 17/57/15 18/58/15 21/59/15 22/60/15
f 19/61/16 23/62/16 20/63/16 24/64/16
f 17/65/17 21/66/17 19/67/17 23/68/17
f 18/69/18 20/70/18 22/71/18 24/72/18
f 26/73/19 25/74/19 27/75/19 28/76/19
f 31/77/20 29/78/20 30/79/20 32/80/20
f 25/81/21 26/82/21 29/83/21 30/84/21
f 27/85/22 31/86/22 28/87/22 32/88/22
f 25/89/23 29/90/23 27/91/23 31/92/23
f 26/93/24 28/94/24 30/95/24 32/96/24
f 33/97/25 35/98/25 34/99/25 36/100/25
f 37/101/26 38/102/26 39/103/26 40/104/26
f 37/105/27 33/106/27 34/107/27 38/108/27
f 36/109/28 35/110/28 39/111/28 40/112/28
f 33/113/29 37/114/29 35/115/29 39/116/29
f 34/117/30 36/118/30 38/119/30 40/120/30
f 42/121/31 41/122/31 43/123/31 44/124/31
f 47/125/32 45/126/32 46/127/32 48/128/32
f 41/129/33 42/130/33 45/131/33 46/132/33
f 43/133/34 47/134/34 44/135/34 48/136/34
f 41/137/35 45/138/35 43/139/35 47/140/35
f 42/141/36 44/142/36 46/143/36 48/144/36
f 50/145/37 49/146/37 51/147/37 52/148/37
f 55/149/38 53/150/38 54/151/38 56/152/38
f 49/153/39 50/154/39 53/155/39 54/156/39
f 51/157/40 55/158/40 52/159/40 56/160/40
f 49/161/41 53/162/41 51/163/41 55/164/41
f 50/165/42 52/166/42 54/167/42 56/168/42