# Made in Blockbench 5.1.6
mtllib more_decor_glass_workbench.mtl

o plate
v 0.5 0.4375 -0.5
v 0.5 0.4375 0.5
v 0.5 0.25 0.5
v 0.5 0.25 -0.5
v -0.5 0.25 0.5
v -0.5 0.4375 0.5
v -0.5 0.4375 -0.5
v -0.5 0.25 -0.5
vt 0.515625 1
vt 0.265625 1
vt 0.265625 0.953125
vt 0.515625 0.953125
vt 0.515625 0.890625
vt 0.515625 0.9375
vt 0.265625 0.9375
vt 0.265625 0.890625
vt 0 0.75
vt 0.25 0.75
vt 0.25 1
vt 0 1
vt 0.25 0.484375
vt 0.25 0.734375
vt 0 0.734375
vt 0 0.484375
vt 0.515625 0.828125
vt 0.515625 0.875
vt 0.265625 0.875
vt 0.265625 0.828125
vt 0.515625 0.8125
vt 0.265625 0.8125
vt 0.265625 0.765625
vt 0.515625 0.765625
vn 1 0 0
vn -1 0 0
vn 0 1 0
vn 0 -1 0
vn 0 0 1
vn 0 0 -1
usemtl m_ffcebcc6-9077-e34a-2b41-d27cc7cd3c11
f 1/1/1 2/2/1 3/3/1 4/4/1
f 5/5/2 6/6/2 7/7/2 8/8/2
f 6/9/3 2/10/3 1/11/3 7/12/3
f 4/13/4 3/14/4 5/15/4 8/16/4
f 3/17/5 2/18/5 6/19/5 5/20/5
f 7/21/6 1/22/6 4/23/6 8/24/6
o legs
v -0.25 0.25 0.25
v -0.25 0.25 0.375
v -0.25 -0.5 0.375
v -0.25 -0.5 0.25
v -0.375 -0.5 0.375
v -0.375 0.25 0.375
v -0.375 0.25 0.25
v -0.375 -0.5 0.25
v -0.25 0.25 -0.375
v -0.25 0.25 -0.25
v -0.25 -0.5 -0.25
v -0.25 -0.5 -0.375
v -0.375 -0.5 -0.25
v -0.375 0.25 -0.25
v -0.375 0.25 -0.375
v -0.375 -0.5 -0.375
v 0.375 0.25 -0.375
v 0.375 0.25 -0.25
v 0.375 -0.5 -0.25
v 0.375 -0.5 -0.375
v 0.25 -0.5 -0.25
v 0.25 0.25 -0.25
v 0.25 0.25 -0.375
v 0.25 -0.5 -0.375
v 0.375 0.25 0.25
v 0.375 0.25 0.375
v 0.375 -0.5 0.375
v 0.375 -0.5 0.25
v 0.25 -0.5 0.375
v 0.25 0.25 0.375
v 0.25 0.25 0.25
v 0.25 -0.5 0.25
vt 0.296875 0.75
vt 0.265625 0.75
vt 0.265625 0.5625
vt 0.296875 0.5625
vt 0.34375 0.5625
vt 0.34375 0.75
vt 0.3125 0.75
vt 0.3125 0.5625
vt 0.21875 0.4375
vt 0.25 0.4375
vt 0.25 0.46875
vt 0.21875 0.46875
vt 0.609375 0.96875
vt 0.609375 1
vt 0.578125 1
vt 0.578125 0.96875
vt 0.390625 0.5625
vt 0.390625 0.75
vt 0.359375 0.75
vt 0.359375 0.5625
vt 0.4375 0.75
vt 0.40625 0.75
vt 0.40625 0.5625
vt 0.4375 0.5625
vt 0.484375 0.75
vt 0.453125 0.75
vt 0.453125 0.5625
vt 0.484375 0.5625
vt 0.296875 0.359375
vt 0.296875 0.546875
vt 0.265625 0.546875
vt 0.265625 0.359375
vt 0.578125 0.921875
vt 0.609375 0.921875
vt 0.609375 0.953125
vt 0.578125 0.953125
vt 0.609375 0.875
vt 0.609375 0.90625
vt 0.578125 0.90625
vt 0.578125 0.875
vt 0.34375 0.359375
vt 0.34375 0.546875
vt 0.3125 0.546875
vt 0.3125 0.359375
vt 0.390625 0.546875
vt 0.359375 0.546875
vt 0.359375 0.359375
vt 0.390625 0.359375
vt 0.4375 0.546875
vt 0.40625 0.546875
vt 0.40625 0.359375
vt 0.4375 0.359375
vt 0.484375 0.359375
vt 0.484375 0.546875
vt 0.453125 0.546875
vt 0.453125 0.359375
vt 0.578125 0.828125
vt 0.609375 0.828125
vt 0.609375 0.859375
vt 0.578125 0.859375
vt 0.25 0.390625
vt 0.25 0.421875
vt 0.21875 0.421875
vt 0.21875 0.390625
vt 0.53125 0.5625
vt 0.53125 0.75
vt 0.5 0.75
vt 0.5 0.5625
vt 0.53125 0.546875
vt 0.5 0.546875
vt 0.5 0.359375
vt 0.53125 0.359375
vt 0.03125 0.46875
vt 0 0.46875
vt 0 0.28125
vt 0.03125 0.28125
vt 0.5625 0.8125
vt 0.5625 1
vt 0.53125 1
vt 0.53125 0.8125
vt 0.546875 0.375
vt 0.578125 0.375
vt 0.578125 0.40625
vt 0.546875 0.40625
vt 0.625 0.375
vt 0.625 0.40625
vt 0.59375 0.40625
vt 0.59375 0.375
vt 0.078125 0.28125
vt 0.078125 0.46875
vt 0.046875 0.46875
vt 0.046875 0.28125
vt 0.125 0.46875
vt 0.09375 0.46875
vt 0.09375 0.28125
vt 0.125 0.28125
vn 1 0 0
vn -1 0 0
vn 0 1 0
vn 0 -1 0
vn 0 0 1
vn 0 0 -1
vn 1 0 0
vn -1 0 0
vn 0 1 0
vn 0 -1 0
vn 0 0 1
vn 0 0 -1
vn 1 0 0
vn -1 0 0
vn 0 1 0
vn 0 -1 0
vn 0 0 1
vn 0 0 -1
vn 1 0 0
vn -1 0 0
vn 0 1 0
vn 0 -1 0
vn 0 0 1
vn 0 0 -1
usemtl m_ffcebcc6-9077-e34a-2b41-d27cc7cd3c11
f 9/25/7 10/26/7 11/27/7 12/28/7
f 13/29/8 14/30/8 15/31/8 16/32/8
f 14/33/9 10/34/9 9/35/9 15/36/9
f 12/37/10 11/38/10 13/39/10 16/40/10
f 11/41/11 10/42/11 14/43/11 13/44/11
f 15/45/12 9/46/12 12/47/12 16/48/12
f 17/49/13 18/50/13 19/51/13 20/52/13
f 21/53/14 22/54/14 23/55/14 24/56/14
f 22/57/15 18/58/15 17/59/15 23/60/15
f 20/61/16 19/62/16 21/63/16 24/64/16
f 19/65/17 18/66/17 22/67/17 21/68/17
f 23/69/18 17/70/18 20/71/18 24/72/18
f 25/73/19 26/74/19 27/75/19 28/76/19
f 29/77/20 30/78/20 31/79/20 32/80/20
f 30/81/21 26/82/21 25/83/21 31/84/21
f 28/85/22 27/86/22 29/87/22 32/88/22
f 27/89/23 26/90/23 30/91/23 29/92/23
f 31/93/24 25/94/24 28/95/24 32/96/24
f 33/97/25 34/98/25 35/99/25 36/100/25
f 37/101/26 38/102/26 39/103/26 40/104/26
f 38/105/27 34/106/27 33/107/27 39/108/27
f 36/109/28 35/110/28 37/111/28 40/112/28
f 35/113/29 34/114/29 38/115/29 37/116/29
f 39/117/30 33/118/30 36/119/30 40/120/30
o glass
v 0.39247307372159324 0.68875 0.16113792894838178
v 0.33836317023706747 0.68875 0.40521193072836514
v 0.33836317023706747 0.43875 0.40521193072836514
v 0.39247307372159324 0.43875 0.16113792894838178
v 0.09428916845708413 0.43875 0.3511020272438394
v 0.09428916845708413 0.68875 0.3511020272438394
v 0.14839907194160987 0.68875 0.10702802546385606
v 0.14839907194160987 0.43875 0.10702802546385606
vt 0.609375 0.71875
vt 0.546875 0.71875
vt 0.546875 0.65625
vt 0.609375 0.65625
vt 0.609375 0.578125
vt 0.609375 0.640625
vt 0.546875 0.640625
vt 0.546875 0.578125
vt 0.140625 0.46875
vt 0.140625 0.40625
vt 0.203125 0.40625
vt 0.203125 0.46875
vt 0.609375 0.734375
vt 0.609375 0.796875
vt 0.546875 0.796875
vt 0.546875 0.734375
vt 0.609375 0.421875
vt 0.609375 0.484375
vt 0.546875 0.484375
vt 0.546875 0.421875
vt 0.609375 0.5625
vt 0.546875 0.5625
vt 0.546875 0.5
vt 0.609375 0.5
vn 0.9762960071199335 0 0.2164396139381029
vn -0.9762960071199334 0 -0.216439613938103
vn 0 1 0
vn 0 -1 0
vn -0.21643961393810307 0 0.9762960071199334
vn 0.21643961393810285 0 -0.9762960071199334
usemtl m_ffcebcc6-9077-e34a-2b41-d27cc7cd3c11
f 41/121/31 42/122/31 43/123/31 44/124/31
f 45/125/32 46/126/32 47/127/32 48/128/32
f 46/129/33 42/130/33 41/131/33 47/132/33
f 44/133/34 43/134/34 45/135/34 48/136/34
f 43/137/35 42/138/35 46/139/35 45/140/35
f 47/141/36 41/142/36 44/143/36 48/144/36
o shard
v 0.21342357430653253 0.5 -0.16414993119561053
v 0.20526568729277928 0.5 -0.2261152350314737
v 0.20526568729277928 0.4375 -0.2261152350314737
v 0.21342357430653253 0.4375 -0.16414993119561053
v 0.26723099112864246 0.4375 -0.23427312204522693
v 0.26723099112864246 0.5 -0.23427312204522693
v 0.2753888781423957 0.5 -0.1723078182093638
v 0.2753888781423957 0.4375 -0.1723078182093638
v 0.32103840795075234 0.5 -0.30439631289484337
v 0.31288052093699914 0.5 -0.36636161673070655
v 0.31288052093699914 0.4375 -0.36636161673070655
v 0.32103840795075234 0.4375 -0.30439631289484337
v 0.3748458247728622 0.4375 -0.3745195037444598
v 0.3748458247728622 0.5 -0.3745195037444598
v 0.3830037117866155 0.5 -0.3125541999085966
v 0.3830037117866155 0.4375 -0.3125541999085966
v 0.32919629496450564 0.5 -0.2424310090589802
v 0.32103840795075234 0.5 -0.30439631289484337
v 0.32103840795075234 0.4375 -0.30439631289484337
v 0.32919629496450564 0.4375 -0.2424310090589802
v 0.3830037117866155 0.4375 -0.3125541999085966
v 0.3830037117866155 0.5 -0.3125541999085966
v 0.39116159880036877 0.5 -0.2505888960727335
v 0.39116159880036877 0.4375 -0.2505888960727335
v 0.19710780027902602 0.5 -0.28808053886733687
v 0.18894991326527277 0.5 -0.35004584270320005
v 0.18894991326527277 0.4375 -0.35004584270320005
v 0.19710780027902602 0.4375 -0.28808053886733687
v 0.25091521710113596 0.4375 -0.3582037297169533
v 0.25091521710113596 0.5 -0.3582037297169533
v 0.2590731041148892 0.5 -0.2962384258810901
v 0.2590731041148892 0.4375 -0.2962384258810901
v 0.28354676515614896 0.5 -0.11034251437350065
v 0.2753888781423957 0.5 -0.1723078182093638
v 0.2753888781423957 0.4375 -0.1723078182093638
v 0.28354676515614896 0.4375 -0.11034251437350065
v 0.33735418197825884 0.4375 -0.18046570522311703
v 0.33735418197825884 0.5 -0.18046570522311703
v 0.34551206899201214 0.5 -0.11850040138725387
v 0.34551206899201214 0.4375 -0.11850040138725387
v 0.14330038345691612 0.5 -0.21795734801772043
v 0.13514249644316284 0.5 -0.2799226518535836
v 0.13514249644316284 0.4375 -0.2799226518535836
v 0.14330038345691612 0.4375 -0.21795734801772043
v 0.19710780027902602 0.4375 -0.28808053886733687
v 0.19710780027902602 0.5 -0.28808053886733687
v 0.20526568729277928 0.5 -0.2261152350314737
v 0.20526568729277928 0.4375 -0.2261152350314737
v 0.25091521710113596 0.5 -0.3582037297169533
v 0.24275733008738268 0.5 -0.42016903355281643
v 0.24275733008738268 0.4375 -0.42016903355281643
v 0.25091521710113596 0.4375 -0.3582037297169533
v 0.30472263392324583 0.4375 -0.42832692056656974
v 0.30472263392324583 0.5 -0.42832692056656974
v 0.31288052093699914 0.5 -0.36636161673070655
v 0.31288052093699914 0.4375 -0.36636161673070655
v 0.399319485814122 0.5 -0.1886235922368703
v 0.39116159880036877 0.5 -0.2505888960727335
v 0.39116159880036877 0.4375 -0.2505888960727335
v 0.399319485814122 0.4375 -0.1886235922368703
v 0.45312690263623195 0.4375 -0.25874678308648674
v 0.45312690263623195 0.5 -0.25874678308648674
v 0.4612847896499852 0.5 -0.1967814792506236
v 0.4612847896499852 0.4375 -0.1967814792506236
v 0.40747737282787533 0.5 -0.12665828840100712
v 0.399319485814122 0.5 -0.1886235922368703
v 0.399319485814122 0.4375 -0.1886235922368703
v 0.40747737282787533 0.4375 -0.12665828840100712
v 0.4612847896499852 0.4375 -0.1967814792506236
v 0.4612847896499852 0.5 -0.1967814792506236
v 0.46944267666373846 0.5 -0.13481617541476043
v 0.46944267666373846 0.4375 -0.13481617541476043
v 0.4156352598416285 0.5 -0.064692984565144
v 0.40747737282787533 0.5 -0.12665828840100712
v 0.40747737282787533 0.4375 -0.12665828840100712
v 0.4156352598416285 0.4375 -0.064692984565144
v 0.46944267666373846 0.4375 -0.13481617541476043
v 0.46944267666373846 0.5 -0.13481617541476043
v 0.4776005636774917 0.5 -0.07285087157889719
v 0.4776005636774917 0.4375 -0.07285087157889719
v 0.36182784301951865 0.5 0.005430206284472439
v 0.3536699560057654 0.5 -0.056535097551390745
v 0.3536699560057654 0.4375 -0.056535097551390745
v 0.36182784301951865 0.4375 0.005430206284472439
v 0.4156352598416285 0.4375 -0.064692984565144
v 0.4156352598416285 0.5 -0.064692984565144
v 0.42379314685538183 0.5 -0.0027276807292808125
v 0.42379314685538183 0.4375 -0.0027276807292808125
v 0.29986253918365546 0.5 0.01358809329822569
v 0.29170465216990227 0.5 -0.04837721053763738
v 0.29170465216990227 0.4375 -0.04837721053763738
v 0.29986253918365546 0.4375 0.01358809329822569
v 0.3536699560057654 0.4375 -0.056535097551390745
v 0.3536699560057654 0.5 -0.056535097551390745
v 0.36182784301951865 0.5 0.005430206284472439
v 0.36182784301951865 0.4375 0.005430206284472439
v 0.23789723534779234 0.5 0.02174598031197894
v 0.22973934833403908 0.5 -0.04021932352388419
v 0.22973934833403908 0.4375 -0.04021932352388419
v 0.23789723534779234 0.4375 0.02174598031197894
v 0.29170465216990227 0.4375 -0.04837721053763738
v 0.29170465216990227 0.5 -0.04837721053763738
v 0.29986253918365546 0.5 0.01358809329822569
v 0.29986253918365546 0.4375 0.01358809329822569
v 0.11396662767606597 0.5 0.0380617543394855
v 0.10580874066231273 0.5 -0.023903549496377685
v 0.10580874066231273 0.4375 -0.023903549496377685
v 0.11396662767606597 0.4375 0.0380617543394855
v 0.1677740444981759 0.4375 -0.032061436510130936
v 0.1677740444981759 0.5 -0.032061436510130936
v 0.17593193151192915 0.5 0.029903867325732247
v 0.17593193151192915 0.4375 0.029903867325732247
v 0.17593193151192915 0.5 0.029903867325732247
v 0.1677740444981759 0.5 -0.032061436510130936
v 0.1677740444981759 0.4375 -0.032061436510130936
v 0.17593193151192915 0.4375 0.029903867325732247
v 0.22973934833403908 0.4375 -0.04021932352388419
v 0.22973934833403908 0.5 -0.04021932352388419
v 0.23789723534779234 0.5 0.02174598031197894
v 0.23789723534779234 0.4375 0.02174598031197894
v 0.052001323840202784 0.5 0.04621964135323875
v 0.04384343682644959 0.5 -0.015745662482624434
v 0.04384343682644959 0.4375 -0.015745662482624434
v 0.052001323840202784 0.4375 0.04621964135323875
v 0.10580874066231273 0.4375 -0.023903549496377685
v 0.10580874066231273 0.5 -0.023903549496377685
v 0.11396662767606597 0.5 0.0380617543394855
v 0.11396662767606597 0.4375 0.0380617543394855
v 0.04384343682644959 0.5 -0.015745662482624434
v 0.03568554981269631 0.5 -0.07771096631848756
v 0.03568554981269631 0.4375 -0.07771096631848756
v 0.04384343682644959 0.4375 -0.015745662482624434
v 0.09765085364855947 0.4375 -0.08586885333224084
v 0.09765085364855947 0.5 -0.08586885333224084
v 0.10580874066231273 0.5 -0.023903549496377685
v 0.10580874066231273 0.4375 -0.023903549496377685
v 0.09765085364855947 0.5 -0.08586885333224084
v 0.0894929666348062 0.5 -0.147834157168104
v 0.0894929666348062 0.4375 -0.147834157168104
v 0.09765085364855947 0.4375 -0.08586885333224084
v 0.15145827047066937 0.4375 -0.15599204418185725
v 0.15145827047066937 0.5 -0.15599204418185725
v 0.15961615748442262 0.5 -0.09402674034599412
v 0.15961615748442262 0.4375 -0.09402674034599412
v 0.0894929666348062 0.5 -0.147834157168104
v 0.08133507962105296 0.5 -0.20979946100396718
v 0.08133507962105296 0.4375 -0.20979946100396718
v 0.0894929666348062 0.4375 -0.147834157168104
v 0.14330038345691612 0.4375 -0.21795734801772043
v 0.14330038345691612 0.5 -0.21795734801772043
v 0.15145827047066937 0.5 -0.15599204418185725
v 0.15145827047066937 0.4375 -0.15599204418185725
vt 0.859375 0.4375
vt 0.84375 0.4375
vt 0.84375 0.421875
vt 0.859375 0.421875
vt 0.640625 0.140625
vt 0.640625 0.15625
vt 0.625 0.15625
vt 0.625 0.140625
vt 0.8125 0.625
vt 0.8125 0.609375
vt 0.828125 0.609375
vt 0.828125 0.625
vt 0.421875 0.171875
vt 0.421875 0.1875
vt 0.40625 0.1875
vt 0.40625 0.171875
vt 0.203125 0.109375
vt 0.203125 0.125
vt 0.1875 0.125
vt 0.1875 0.109375
vt 0.890625 0.8125
vt 0.875 0.8125
vt 0.875 0.796875
vt 0.890625 0.796875
vt 0.859375 0.15625
vt 0.84375 0.15625
vt 0.84375 0.140625
vt 0.859375 0.140625
vt 0.015625 0.125
vt 0.015625 0.140625
vt 0 0.140625
vt 0 0.125
vt 0.8125 0.59375
vt 0.8125 0.578125
vt 0.828125 0.578125
vt 0.828125 0.59375
vt 0.453125 0.171875
vt 0.453125 0.1875
vt 0.4375 0.1875
vt 0.4375 0.171875
vt 0.890625 0.953125
vt 0.890625 0.96875
vt 0.875 0.96875
vt 0.875 0.953125
vt 0.890625 0.9375
vt 0.875 0.9375
vt 0.875 0.921875
vt 0.890625 0.921875
vt 0.859375 0.75
vt 0.84375 0.75
vt 0.84375 0.734375
vt 0.859375 0.734375
vt 0.859375 0.828125
vt 0.859375 0.84375
vt 0.84375 0.84375
vt 0.84375 0.828125
vt 0.8125 0.5625
vt 0.8125 0.546875
vt 0.828125 0.546875
vt 0.828125 0.5625
vt 0.484375 0.171875
vt 0.484375 0.1875
vt 0.46875 0.1875
vt 0.46875 0.171875
vt 0.890625 0.890625
vt 0.890625 0.90625
vt 0.875 0.90625
vt 0.875 0.890625
vt 0.875 0.3125
vt 0.859375 0.3125
vt 0.859375 0.296875
vt 0.875 0.296875
vt 0.296875 0.15625
vt 0.28125 0.15625
vt 0.28125 0.140625
vt 0.296875 0.140625
vt 0.859375 0.703125
vt 0.859375 0.71875
vt 0.84375 0.71875
vt 0.84375 0.703125
vt 0.8125 0.53125
vt 0.8125 0.515625
vt 0.828125 0.515625
vt 0.828125 0.53125
vt 0.515625 0.171875
vt 0.515625 0.1875
vt 0.5 0.1875
vt 0.5 0.171875
vt 0.234375 0.109375
vt 0.234375 0.125
vt 0.21875 0.125
vt 0.21875 0.109375
vt 0.890625 0.78125
vt 0.875 0.78125
vt 0.875 0.765625
vt 0.890625 0.765625
vt 0.515625 0.15625
vt 0.5 0.15625
vt 0.5 0.140625
vt 0.515625 0.140625
vt 0.859375 0.640625
vt 0.859375 0.65625
vt 0.84375 0.65625
vt 0.84375 0.640625
vt 0.8125 0.5
vt 0.8125 0.484375
vt 0.828125 0.484375
vt 0.828125 0.5
vt 0.828125 0.453125
vt 0.828125 0.46875
vt 0.8125 0.46875
vt 0.8125 0.453125
vt 0.265625 0.109375
vt 0.265625 0.125
vt 0.25 0.125
vt 0.25 0.109375
vt 0.890625 0.75
vt 0.875 0.75
vt 0.875 0.734375
vt 0.890625 0.734375
vt 0.328125 0.15625
vt 0.3125 0.15625
vt 0.3125 0.140625
vt 0.328125 0.140625
vt 0.359375 0.140625
vt 0.359375 0.15625
vt 0.34375 0.15625
vt 0.34375 0.140625
vt 0.8125 0.4375
vt 0.8125 0.421875
vt 0.828125 0.421875
vt 0.828125 0.4375
vt 0.640625 0.171875
vt 0.640625 0.1875
vt 0.625 0.1875
vt 0.625 0.171875
vt 0.875 0.265625
vt 0.875 0.28125
vt 0.859375 0.28125
vt 0.859375 0.265625
vt 0.875 0.25
vt 0.859375 0.25
vt 0.859375 0.234375
vt 0.875 0.234375
vt 0.390625 0.15625
vt 0.375 0.15625
vt 0.375 0.140625
vt 0.390625 0.140625
vt 0.203125 0.140625
vt 0.203125 0.15625
vt 0.1875 0.15625
vt 0.1875 0.140625
vt 0.65625 0.1875
vt 0.65625 0.171875
vt 0.671875 0.171875
vt 0.671875 0.1875
vt 0.703125 0.171875
vt 0.703125 0.1875
vt 0.6875 0.1875
vt 0.6875 0.171875
vt 0.546875 0.125
vt 0.546875 0.140625
vt 0.53125 0.140625
vt 0.53125 0.125
vt 0.875 0.34375
vt 0.859375 0.34375
vt 0.859375 0.328125
vt 0.875 0.328125
vt 0.671875 0.15625
vt 0.65625 0.15625
vt 0.65625 0.140625
vt 0.671875 0.140625
vt 0.703125 0.140625
vt 0.703125 0.15625
vt 0.6875 0.15625
vt 0.6875 0.140625
vt 0.71875 0.1875
vt 0.71875 0.171875
vt 0.734375 0.171875
vt 0.734375 0.1875
vt 0.765625 0.171875
vt 0.765625 0.1875
vt 0.75 0.1875
vt 0.75 0.171875
vt 0.578125 0.125
vt 0.578125 0.140625
vt 0.5625 0.140625
vt 0.5625 0.125
vt 0.609375 0.140625
vt 0.59375 0.140625
vt 0.59375 0.125
vt 0.609375 0.125
vt 0.265625 0.15625
vt 0.25 0.15625
vt 0.25 0.140625
vt 0.265625 0.140625
vt 0.859375 0.796875
vt 0.859375 0.8125
vt 0.84375 0.8125
vt 0.84375 0.796875
vt 0.78125 0.1875
vt 0.78125 0.171875
vt 0.796875 0.171875
vt 0.796875 0.1875
vt 0.828125 0.203125
vt 0.828125 0.21875
vt 0.8125 0.21875
vt 0.8125 0.203125
vt 0.875 0.390625
vt 0.875 0.40625
vt 0.859375 0.40625
vt 0.859375 0.390625
vt 0.078125 0.140625
vt 0.0625 0.140625
vt 0.0625 0.125
vt 0.078125 0.125
vt 0.859375 0.625
vt 0.84375 0.625
vt 0.84375 0.609375
vt 0.859375 0.609375
vt 0.859375 0.671875
vt 0.859375 0.6875
vt 0.84375 0.6875
vt 0.84375 0.671875
vt 0.8125 0.1875
vt 0.8125 0.171875
vt 0.828125 0.171875
vt 0.828125 0.1875
vt 0.015625 0.15625
vt 0.015625 0.171875
vt 0 0.171875
vt 0 0.15625
vt 0.109375 0.125
vt 0.109375 0.140625
vt 0.09375 0.140625
vt 0.09375 0.125
vt 0.296875 0.125
vt 0.28125 0.125
vt 0.28125 0.109375
vt 0.296875 0.109375
vt 0.421875 0.15625
vt 0.40625 0.15625
vt 0.40625 0.140625
vt 0.421875 0.140625
vt 0.859375 0.578125
vt 0.859375 0.59375
vt 0.84375 0.59375
vt 0.84375 0.578125
vt 0.03125 0.171875
vt 0.03125 0.15625
vt 0.046875 0.15625
vt 0.046875 0.171875
vt 0.078125 0.15625
vt 0.078125 0.171875
vt 0.0625 0.171875
vt 0.0625 0.15625
vt 0.890625 0.703125
vt 0.890625 0.71875
vt 0.875 0.71875
vt 0.875 0.703125
vt 0.328125 0.125
vt 0.3125 0.125
vt 0.3125 0.109375
vt 0.328125 0.109375
vt 0.859375 0.5
vt 0.84375 0.5
vt 0.84375 0.484375
vt 0.859375 0.484375
vt 0.453125 0.140625
vt 0.453125 0.15625
vt 0.4375 0.15625
vt 0.4375 0.140625
vt 0.09375 0.171875
vt 0.09375 0.15625
vt 0.109375 0.15625
vt 0.109375 0.171875
vt 0.140625 0.15625
vt 0.140625 0.171875
vt 0.125 0.171875
vt 0.125 0.15625
vt 0.140625 0.125
vt 0.140625 0.140625
vt 0.125 0.140625
vt 0.125 0.125
vt 0.171875 0.140625
vt 0.15625 0.140625
vt 0.15625 0.125
vt 0.171875 0.125
vt 0.859375 0.5625
vt 0.84375 0.5625
vt 0.84375 0.546875
vt 0.859375 0.546875
vt 0.859375 0.453125
vt 0.859375 0.46875
vt 0.84375 0.46875
vt 0.84375 0.453125
vt 0.15625 0.171875
vt 0.15625 0.15625
vt 0.171875 0.15625
vt 0.171875 0.171875
vt 0.546875 0.15625
vt 0.546875 0.171875
vt 0.53125 0.171875
vt 0.53125 0.15625
vt 0.890625 0.671875
vt 0.890625 0.6875
vt 0.875 0.6875
vt 0.875 0.671875
vt 0.359375 0.125
vt 0.34375 0.125
vt 0.34375 0.109375
vt 0.359375 0.109375
vt 0.734375 0.15625
vt 0.71875 0.15625
vt 0.71875 0.140625
vt 0.734375 0.140625
vt 0.234375 0.140625
vt 0.234375 0.15625
vt 0.21875 0.15625
vt 0.21875 0.140625
vt 0.5625 0.171875
vt 0.5625 0.15625
vt 0.578125 0.15625
vt 0.578125 0.171875
vt 0.609375 0.15625
vt 0.609375 0.171875
vt 0.59375 0.171875
vt 0.59375 0.15625
vt 0.890625 0.640625
vt 0.890625 0.65625
vt 0.875 0.65625
vt 0.875 0.640625
vt 0.890625 0.875
vt 0.875 0.875
vt 0.875 0.859375
vt 0.890625 0.859375
vt 0.859375 0.78125
vt 0.84375 0.78125
vt 0.84375 0.765625
vt 0.859375 0.765625
vt 0.484375 0.140625
vt 0.484375 0.15625
vt 0.46875 0.15625
vt 0.46875 0.140625
vt 0.828125 0.40625
vt 0.828125 0.390625
vt 0.84375 0.390625
vt 0.84375 0.40625
vt 0.84375 0.359375
vt 0.84375 0.375
vt 0.828125 0.375
vt 0.828125 0.359375
vt 0.890625 0.828125
vt 0.890625 0.84375
vt 0.875 0.84375
vt 0.875 0.828125
vt 0.390625 0.125
vt 0.375 0.125
vt 0.375 0.109375
vt 0.390625 0.109375
vt 0.765625 0.15625
vt 0.75 0.15625
vt 0.75 0.140625
vt 0.765625 0.140625
vt 0.796875 0.140625
vt 0.796875 0.15625
vt 0.78125 0.15625
vt 0.78125 0.140625
vt 0.828125 0.34375
vt 0.828125 0.328125
vt 0.84375 0.328125
vt 0.84375 0.34375
vt 0.84375 0.296875
vt 0.84375 0.3125
vt 0.828125 0.3125
vt 0.828125 0.296875
vt 0.890625 0.609375
vt 0.890625 0.625
vt 0.875 0.625
vt 0.875 0.609375
vt 0.421875 0.125
vt 0.40625 0.125
vt 0.40625 0.109375
vt 0.421875 0.109375
vt 0.859375 0.21875
vt 0.84375 0.21875
vt 0.84375 0.203125
vt 0.859375 0.203125
vt 0.828125 0.140625
vt 0.828125 0.15625
vt 0.8125 0.15625
vt 0.8125 0.140625
vt 0.828125 0.28125
vt 0.828125 0.265625
vt 0.84375 0.265625
vt 0.84375 0.28125
vt 0.84375 0.234375
vt 0.84375 0.25
vt 0.828125 0.25
vt 0.828125 0.234375
vt 0.890625 0.578125
vt 0.890625 0.59375
vt 0.875 0.59375
vt 0.875 0.578125
vt 0.453125 0.125
vt 0.4375 0.125
vt 0.4375 0.109375
vt 0.453125 0.109375
vt 0.859375 0.875
vt 0.84375 0.875
vt 0.84375 0.859375
vt 0.859375 0.859375
vt 0.859375 0.515625
vt 0.859375 0.53125
vt 0.84375 0.53125
vt 0.84375 0.515625
vt 0.84375 1
vt 0.84375 0.984375
vt 0.859375 0.984375
vt 0.859375 1
vt 0.859375 0.953125
vt 0.859375 0.96875
vt 0.84375 0.96875
vt 0.84375 0.953125
vt 0.890625 0.546875
vt 0.890625 0.5625
vt 0.875 0.5625
vt 0.875 0.546875
vt 0.875 0.375
vt 0.859375 0.375
vt 0.859375 0.359375
vt 0.875 0.359375
vt 0.859375 0.1875
vt 0.84375 0.1875
vt 0.84375 0.171875
vt 0.859375 0.171875
vt 0.046875 0.125
vt 0.046875 0.140625
vt 0.03125 0.140625
vt 0.03125 0.125
vt 0.84375 0.9375
vt 0.84375 0.921875
vt 0.859375 0.921875
vt 0.859375 0.9375
vt 0.859375 0.890625
vt 0.859375 0.90625
vt 0.84375 0.90625
vt 0.84375 0.890625
vt 0.890625 0.984375
vt 0.890625 1
vt 0.875 1
vt 0.875 0.984375
vt 0.484375 0.125
vt 0.46875 0.125
vt 0.46875 0.109375
vt 0.484375 0.109375
vn -0.9914448613738105 0 0.13052619222005196
vn 0.9914448613738105 0 -0.13052619222005196
vn 0 1 0
vn 0 -1 0
vn -0.1305261922200519 0 -0.9914448613738105
vn 0.1305261922200519 0 0.9914448613738105
vn -0.9914448613738104 0 0.1305261922200519
vn 0.9914448613738104 0 -0.1305261922200519
vn 0 1 0
vn 0 -1 0
vn -0.13052619222005207 0 -0.9914448613738105
vn 0.13052619222005207 0 0.9914448613738105
vn -0.9914448613738105 0 0.13052619222005218
vn 0.9914448613738105 0 -0.13052619222005235
vn 0 1 0
vn 0 -1 0
vn -0.13052619222005207 0 -0.9914448613738105
vn 0.13052619222005218 0 0.9914448613738105
vn -0.9914448613738105 0 0.13052619222005218
vn 0.9914448613738105 0 -0.13052619222005218
vn 0 1 0
vn 0 -1 0
vn -0.13052619222005185 0 -0.9914448613738105
vn 0.13052619222005185 0 0.9914448613738105
vn -0.9914448613738105 0 0.13052619222005202
vn 0.9914448613738105 0 -0.13052619222005207
vn 0 1 0
vn 0 -1 0
vn -0.1305261922200519 0 -0.9914448613738105
vn 0.1305261922200519 0 0.9914448613738104
vn -0.9914448613738105 0 0.13052619222005218
vn 0.9914448613738104 0 -0.1305261922200521
vn 0 1 0
vn 0 -1 0
vn -0.13052619222005218 0 -0.9914448613738105
vn 0.13052619222005213 0 0.9914448613738105
vn -0.9914448613738105 0 0.13052619222005207
vn 0.9914448613738105 0 -0.13052619222005235
vn 0 1 0
vn 0 -1 0
vn -0.13052619222005235 0 -0.9914448613738105
vn 0.13052619222005218 0 0.9914448613738105
vn -0.9914448613738105 0 0.13052619222005185
vn 0.9914448613738105 0 -0.13052619222005185
vn 0 1 0
vn 0 -1 0
vn -0.1305261922200523 0 -0.9914448613738105
vn 0.1305261922200523 0 0.9914448613738105
vn -0.9914448613738105 0 0.13052619222005218
vn 0.9914448613738105 0 -0.1305261922200523
vn 0 1 0
vn 0 -1 0
vn -0.1305261922200523 0 -0.9914448613738105
vn 0.1305261922200528 0 0.9914448613738104
vn -0.9914448613738105 0 0.13052619222005207
vn 0.9914448613738105 0 -0.13052619222005218
vn 0 1 0
vn 0 -1 0
vn -0.1305261922200528 0 -0.9914448613738104
vn 0.13052619222005185 0 0.9914448613738105
vn -0.9914448613738105 0 0.13052619222005207
vn 0.9914448613738105 0 -0.13052619222005207
vn 0 1 0
vn 0 -1 0
vn -0.1305261922200519 0 -0.9914448613738104
vn 0.1305261922200519 0 0.9914448613738104
vn -0.9914448613738105 0 0.13052619222005202
vn 0.9914448613738105 0 -0.13052619222005207
vn 0 1 0
vn 0 -1 0
vn -0.1305261922200528 0 -0.9914448613738104
vn 0.1305261922200528 0 0.9914448613738104
vn -0.9914448613738105 0 0.13052619222005207
vn 0.9914448613738105 0 -0.13052619222005202
vn 0 1 0
vn 0 -1 0
vn -0.13052619222005185 0 -0.9914448613738105
vn 0.13052619222005185 0 0.9914448613738105
vn -0.9914448613738105 0 0.13052619222005185
vn 0.9914448613738105 0 -0.1305261922200523
vn 0 1 0
vn 0 -1 0
vn -0.13052619222005185 0 -0.9914448613738105
vn 0.130526192220052 0 0.9914448613738104
vn -0.9914448613738105 0 0.1305261922200523
vn 0.9914448613738105 0 -0.13052619222005207
vn 0 1 0
vn 0 -1 0
vn -0.130526192220052 0 -0.9914448613738104
vn 0.1305261922200519 0 0.9914448613738104
vn -0.9914448613738105 0 0.13052619222005185
vn 0.9914448613738105 0 -0.13052619222005185
vn 0 1 0
vn 0 -1 0
vn -0.13052619222005185 0 -0.9914448613738105
vn 0.13052619222005185 0 0.9914448613738105
vn -0.9914448613738105 0 0.13052619222005185
vn 0.9914448613738105 0 -0.13052619222005185
vn 0 1 0
vn 0 -1 0
vn -0.13052619222005185 0 -0.9914448613738105
vn 0.13052619222005185 0 0.9914448613738105
vn -0.9914448613738105 0 0.1305261922200524
vn 0.9914448613738105 0 -0.13052619222005207
vn 0 1 0
vn 0 -1 0
vn -0.1305261922200519 0 -0.9914448613738104
vn 0.1305261922200523 0 0.9914448613738105
vn -0.9914448613738105 0 0.13052619222005185
vn 0.9914448613738104 0 -0.1305261922200519
vn 0 1 0
vn 0 -1 0
vn -0.13052619222005218 0 -0.9914448613738105
vn 0.1305261922200519 0 0.9914448613738104
usemtl m_ffcebcc6-9077-e34a-2b41-d27cc7cd3c11
f 49/145/37 50/146/37 51/147/37 52/148/37
f 53/149/38 54/150/38 55/151/38 56/152/38
f 54/153/39 50/154/39 49/155/39 55/156/39
f 52/157/40 51/158/40 53/159/40 56/160/40
f 51/161/41 50/162/41 54/163/41 53/164/41
f 55/165/42 49/166/42 52/167/42 56/168/42
f 57/169/43 58/170/43 59/171/43 60/172/43
f 61/173/44 62/174/44 63/175/44 64/176/44
f 62/177/45 58/178/45 57/179/45 63/180/45
f 60/181/46 59/182/46 61/183/46 64/184/46
f 59/185/47 58/186/47 62/187/47 61/188/47
f 63/189/48 57/190/48 60/191/48 64/192/48
f 65/193/49 66/194/49 67/195/49 68/196/49
f 69/197/50 70/198/50 71/199/50 72/200/50
f 70/201/51 66/202/51 65/203/51 71/204/51
f 68/205/52 67/206/52 69/207/52 72/208/52
f 67/209/53 66/210/53 70/211/53 69/212/53
f 71/213/54 65/214/54 68/215/54 72/216/54
f 73/217/55 74/218/55 75/219/55 76/220/55
f 77/221/56 78/222/56 79/223/56 80/224/56
f 78/225/57 74/226/57 73/227/57 79/228/57
f 76/229/58 75/230/58 77/231/58 80/232/58
f 75/233/59 74/234/59 78/235/59 77/236/59
f 79/237/60 73/238/60 76/239/60 80/240/60
f 81/241/61 82/242/61 83/243/61 84/244/61
f 85/245/62 86/246/62 87/247/62 88/248/62
f 86/249/63 82/250/63 81/251/63 87/252/63
f 84/253/64 83/254/64 85/255/64 88/256/64
f 83/257/65 82/258/65 86/259/65 85/260/65
f 87/261/66 81/262/66 84/263/66 88/264/66
f 89/265/67 90/266/67 91/267/67 92/268/67
f 93/269/68 94/270/68 95/271/68 96/272/68
f 94/273/69 90/274/69 89/275/69 95/276/69
f 92/277/70 91/278/70 93/279/70 96/280/70
f 91/281/71 90/282/71 94/283/71 93/284/71
f 95/285/72 89/286/72 92/287/72 96/288/72
f 97/289/73 98/290/73 99/291/73 100/292/73
f 101/293/74 102/294/74 103/295/74 104/296/74
f 102/297/75 98/298/75 97/299/75 103/300/75
f 100/301/76 99/302/76 101/303/76 104/304/76
f 99/305/77 98/306/77 102/307/77 101/308/77
f 103/309/78 97/310/78 100/311/78 104/312/78
f 105/313/79 106/314/79 107/315/79 108/316/79
f 109/317/80 110/318/80 111/319/80 112/320/80
f 110/321/81 106/322/81 105/323/81 111/324/81
f 108/325/82 107/326/82 109/327/82 112/328/82
f 107/329/83 106/330/83 110/331/83 109/332/83
f 111/333/84 105/334/84 108/335/84 112/336/84
f 113/337/85 114/338/85 115/339/85 116/340/85
f 117/341/86 118/342/86 119/343/86 120/344/86
f 118/345/87 114/346/87 113/347/87 119/348/87
f 116/349/88 115/350/88 117/351/88 120/352/88
f 115/353/89 114/354/89 118/355/89 117/356/89
f 119/357/90 113/358/90 116/359/90 120/360/90
f 121/361/91 122/362/91 123/363/91 124/364/91
f 125/365/92 126/366/92 127/367/92 128/368/92
f 126/369/93 122/370/93 121/371/93 127/372/93
f 124/373/94 123/374/94 125/375/94 128/376/94
f 123/377/95 122/378/95 126/379/95 125/380/95
f 127/381/96 121/382/96 124/383/96 128/384/96
f 129/385/97 130/386/97 131/387/97 132/388/97
f 133/389/98 134/390/98 135/391/98 136/392/98
f 134/393/99 130/394/99 129/395/99 135/396/99
f 132/397/100 131/398/100 133/399/100 136/400/100
f 131/401/101 130/402/101 134/403/101 133/404/101
f 135/405/102 129/406/102 132/407/102 136/408/102
f 137/409/103 138/410/103 139/411/103 140/412/103
f 141/413/104 142/414/104 143/415/104 144/416/104
f 142/417/105 138/418/105 137/419/105 143/420/105
f 140/421/106 139/422/106 141/423/106 144/424/106
f 139/425/107 138/426/107 142/427/107 141/428/107
f 143/429/108 137/430/108 140/431/108 144/432/108
f 145/433/109 146/434/109 147/435/109 148/436/109
f 149/437/110 150/438/110 151/439/110 152/440/110
f 150/441/111 146/442/111 145/443/111 151/444/111
f 148/445/112 147/446/112 149/447/112 152/448/112
f 147/449/113 146/450/113 150/451/113 149/452/113
f 151/453/114 145/454/114 148/455/114 152/456/114
f 153/457/115 154/458/115 155/459/115 156/460/115
f 157/461/116 158/462/116 159/463/116 160/464/116
f 158/465/117 154/466/117 153/467/117 159/468/117
f 156/469/118 155/470/118 157/471/118 160/472/118
f 155/473/119 154/474/119 158/475/119 157/476/119
f 159/477/120 153/478/120 156/479/120 160/480/120
f 161/481/121 162/482/121 163/483/121 164/484/121
f 165/485/122 166/486/122 167/487/122 168/488/122
f 166/489/123 162/490/123 161/491/123 167/492/123
f 164/493/124 163/494/124 165/495/124 168/496/124
f 163/497/125 162/498/125 166/499/125 165/500/125
f 167/501/126 161/502/126 164/503/126 168/504/126
f 169/505/127 170/506/127 171/507/127 172/508/127
f 173/509/128 174/510/128 175/511/128 176/512/128
f 174/513/129 170/514/129 169/515/129 175/516/129
f 172/517/130 171/518/130 173/519/130 176/520/130
f 171/521/131 170/522/131 174/523/131 173/524/131
f 175/525/132 169/526/132 172/527/132 176/528/132
f 177/529/133 178/530/133 179/531/133 180/532/133
f 181/533/134 182/534/134 183/535/134 184/536/134
f 182/537/135 178/538/135 177/539/135 183/540/135
f 180/541/136 179/542/136 181/543/136 184/544/136
f 179/545/137 178/546/137 182/547/137 181/548/137
f 183/549/138 177/550/138 180/551/138 184/552/138
f 185/553/139 186/554/139 187/555/139 188/556/139
f 189/557/140 190/558/140 191/559/140 192/560/140
f 190/561/141 186/562/141 185/563/141 191/564/141
f 188/565/142 187/566/142 189/567/142 192/568/142
f 187/569/143 186/570/143 190/571/143 189/572/143
f 191/573/144 185/574/144 188/575/144 192/576/144
f 193/577/145 194/578/145 195/579/145 196/580/145
f 197/581/146 198/582/146 199/583/146 200/584/146
f 198/585/147 194/586/147 193/587/147 199/588/147
f 196/589/148 195/590/148 197/591/148 200/592/148
f 195/593/149 194/594/149 198/595/149 197/596/149
f 199/597/150 193/598/150 196/599/150 200/600/150
o hammer
v -0.36171055562677534 0.5 0.14535126729958575
v -0.41714873270041425 0.5 0.17421055562677537
v -0.36171055562677534 0.4375 0.14535126729958575
v -0.41714873270041425 0.4375 0.17421055562677537
v -0.33285126729958575 0.5 0.20078944437322463
v -0.38828944437322466 0.5 0.22964873270041425
v -0.33285126729958575 0.4375 0.20078944437322463
v -0.38828944437322466 0.4375 0.22964873270041425
v -0.13995784733221991 0.5 0.029914113990827357
v -0.19539602440585876 0.5 0.05877340231801695
v -0.13995784733221991 0.4375 0.029914113990827357
v -0.19539602440585876 0.4375 0.05877340231801695
v -0.1110985590050303 0.5 0.08535229106446621
v -0.16653673607866917 0.5 0.1142115793916558
v -0.1110985590050303 0.4375 0.08535229106446621
v -0.16653673607866917 0.4375 0.1142115793916558
v -0.16881713565940953 0.5 -0.02552406308281152
v -0.22425531273304838 0.5 0.0033352252443780706
v -0.16881713565940953 0.4375 -0.02552406308281152
v -0.22425531273304838 0.4375 0.0033352252443780706
v -0.13995784733221991 0.5 0.029914113990827357
v -0.19539602440585876 0.5 0.05877340231801695
v -0.13995784733221991 0.4375 0.029914113990827357
v -0.19539602440585876 0.4375 0.05877340231801695
v -0.08451967025858109 0.5 0.0010548256636377373
v -0.13995784733221991 0.5 0.029914113990827357
v -0.08451967025858109 0.4375 0.0010548256636377373
v -0.13995784733221991 0.4375 0.029914113990827357
v -0.055660381931391445 0.5 0.05649300273727659
v -0.1110985590050303 0.5 0.08535229106446621
v -0.055660381931391445 0.4375 0.05649300273727659
v -0.1110985590050303 0.4375 0.08535229106446621
v -0.14223824691296028 0.5 -0.10982152848364002
v -0.19767642398659913 0.5 -0.08096224015645037
v -0.14223824691296028 0.4375 -0.10982152848364002
v -0.19767642398659913 0.4375 -0.08096224015645037
v -0.11337895858577068 0.5 -0.05438335141000114
v -0.16881713565940953 0.5 -0.02552406308281152
v -0.11337895858577068 0.4375 -0.05438335141000114
v -0.16881713565940953 0.4375 -0.02552406308281152
v -0.11337895858577068 0.5 -0.05438335141000114
v -0.16881713565940953 0.5 -0.02552406308281152
v -0.11337895858577068 0.4375 -0.05438335141000114
v -0.16881713565940953 0.4375 -0.02552406308281152
v -0.08451967025858109 0.5 0.0010548256636377373
v -0.13995784733221991 0.5 0.029914113990827357
v -0.08451967025858109 0.4375 0.0010548256636377373
v -0.13995784733221991 0.4375 0.029914113990827357
v -0.05794078151213178 0.5 -0.0832426397371907
v -0.11337895858577068 0.5 -0.05438335141000114
v -0.05794078151213178 0.4375 -0.0832426397371907
v -0.11337895858577068 0.4375 -0.05438335141000114
v -0.029081493184942186 0.5 -0.027804462663551854
v -0.08451967025858109 0.5 0.0010548256636377373
v -0.029081493184942186 0.4375 -0.027804462663551854
v -0.08451967025858109 0.4375 0.0010548256636377373
v -0.11565935816651096 0.5 -0.19411899388446846
v -0.1710975352401499 0.5 -0.16525970555727887
v -0.11565935816651096 0.4375 -0.19411899388446846
v -0.1710975352401499 0.4375 -0.16525970555727887
v -0.08680006983932137 0.5 -0.13868081681082955
v -0.14223824691296028 0.5 -0.10982152848364002
v -0.08680006983932137 0.4375 -0.13868081681082955
v -0.14223824691296028 0.4375 -0.10982152848364002
v -0.08680006983932137 0.5 -0.13868081681082955
v -0.14223824691296028 0.5 -0.10982152848364002
v -0.08680006983932137 0.4375 -0.13868081681082955
v -0.14223824691296028 0.4375 -0.10982152848364002
v -0.05794078151213178 0.5 -0.0832426397371907
v -0.11337895858577068 0.5 -0.05438335141000114
v -0.05794078151213178 0.4375 -0.0832426397371907
v -0.11337895858577068 0.4375 -0.05438335141000114
v -0.03136189276568252 0.5 -0.1675401051380192
v -0.08680006983932137 0.5 -0.13868081681082955
v -0.03136189276568252 0.4375 -0.1675401051380192
v -0.08680006983932137 0.4375 -0.13868081681082955
v -0.002502604438492928 0.5 -0.11210192806438035
v -0.05794078151213178 0.5 -0.0832426397371907
v -0.002502604438492928 0.4375 -0.11210192806438035
v -0.05794078151213178 0.4375 -0.0832426397371907
v -0.08908046942006176 0.5 -0.2784164592852969
v -0.14451864649370058 0.5 -0.2495571709581073
v -0.08908046942006176 0.4375 -0.2784164592852969
v -0.14451864649370058 0.4375 -0.2495571709581073
v -0.06022118109287211 0.5 -0.22297828221165805
v -0.11565935816651096 0.5 -0.19411899388446846
v -0.06022118109287211 0.4375 -0.22297828221165805
v -0.11565935816651096 0.4375 -0.19411899388446846
v -0.06022118109287211 0.5 -0.22297828221165805
v -0.11565935816651096 0.5 -0.19411899388446846
v -0.06022118109287211 0.4375 -0.22297828221165805
v -0.11565935816651096 0.4375 -0.19411899388446846
v -0.03136189276568252 0.5 -0.1675401051380192
v -0.08680006983932137 0.5 -0.13868081681082955
v -0.03136189276568252 0.4375 -0.1675401051380192
v -0.08680006983932137 0.4375 -0.13868081681082955
v -0.004783004019233261 0.5 -0.2518375705388477
v -0.06022118109287211 0.5 -0.22297828221165805
v -0.004783004019233261 0.4375 -0.2518375705388477
v -0.06022118109287211 0.4375 -0.22297828221165805
v 0.02407628430795633 0.5 -0.1963993934652088
v -0.03136189276568252 0.5 -0.1675401051380192
v 0.02407628430795633 0.4375 -0.1963993934652088
v -0.03136189276568252 0.4375 -0.1675401051380192
v -0.0625015806736125 0.5 -0.3627139246861254
v -0.11793975774725135 0.5 -0.33385463635893575
v -0.0625015806736125 0.4375 -0.3627139246861254
v -0.11793975774725135 0.4375 -0.33385463635893575
v -0.03364229234642291 0.5 -0.30727574761248655
v -0.08908046942006176 0.5 -0.2784164592852969
v -0.03364229234642291 0.4375 -0.30727574761248655
v -0.08908046942006176 0.4375 -0.2784164592852969
v -0.03364229234642291 0.5 -0.30727574761248655
v -0.08908046942006176 0.5 -0.2784164592852969
v -0.03364229234642291 0.4375 -0.30727574761248655
v -0.08908046942006176 0.4375 -0.2784164592852969
v -0.004783004019233261 0.5 -0.2518375705388477
v -0.06022118109287211 0.5 -0.22297828221165805
v -0.004783004019233261 0.4375 -0.2518375705388477
v -0.06022118109287211 0.4375 -0.22297828221165805
v 0.021795884727216053 0.5 -0.3361350359396762
v -0.03364229234642291 0.5 -0.30727574761248655
v 0.021795884727216053 0.4375 -0.3361350359396762
v -0.03364229234642291 0.4375 -0.30727574761248655
v 0.05065517305440559 0.5 -0.2806968588660373
v -0.004783004019233261 0.5 -0.2518375705388477
v 0.05065517305440559 0.4375 -0.2806968588660373
v -0.004783004019233261 0.4375 -0.2518375705388477
v -0.035922691927163186 0.5 -0.4470113900869539
v -0.09136086900080209 0.5 -0.41815210175976425
v -0.035922691927163186 0.4375 -0.4470113900869539
v -0.09136086900080209 0.4375 -0.41815210175976425
v -0.0070634035999735945 0.5 -0.39157321301331494
v -0.0625015806736125 0.5 -0.3627139246861254
v -0.0070634035999735945 0.4375 -0.39157321301331494
v -0.0625015806736125 0.4375 -0.3627139246861254
v -0.0070634035999735945 0.5 -0.39157321301331494
v -0.0625015806736125 0.5 -0.3627139246861254
v -0.0070634035999735945 0.4375 -0.39157321301331494
v -0.0625015806736125 0.4375 -0.3627139246861254
v 0.021795884727216053 0.5 -0.3361350359396762
v -0.03364229234642291 0.5 -0.30727574761248655
v 0.021795884727216053 0.4375 -0.3361350359396762
v -0.03364229234642291 0.4375 -0.30727574761248655
v 0.048374773473665256 0.5 -0.4204325013405046
v -0.0070634035999735945 0.5 -0.39157321301331494
v 0.048374773473665256 0.4375 -0.4204325013405046
v -0.0070634035999735945 0.4375 -0.39157321301331494
v 0.0772340618008549 0.5 -0.36499432426686573
v 0.021795884727216053 0.5 -0.3361350359396762
v 0.0772340618008549 0.4375 -0.36499432426686573
v 0.021795884727216053 0.4375 -0.3361350359396762
v -0.1110985590050303 0.5 0.08535229106446621
v -0.16653673607866917 0.5 0.1142115793916558
v -0.1110985590050303 0.4375 0.08535229106446621
v -0.16653673607866917 0.4375 0.1142115793916558
v -0.0822392706778407 0.5 0.14079046813810508
v -0.13767744775147955 0.5 0.16964975646529468
v -0.0822392706778407 0.4375 0.14079046813810508
v -0.13767744775147955 0.4375 0.16964975646529468
v -0.19539602440585876 0.5 0.05877340231801695
v -0.25083420147949764 0.5 0.08763269064520657
v -0.19539602440585876 0.4375 0.05877340231801695
v -0.25083420147949764 0.4375 0.08763269064520657
v -0.16653673607866917 0.5 0.1142115793916558
v -0.22197491315230805 0.5 0.14307086771884542
v -0.16653673607866917 0.4375 0.1142115793916558
v -0.22197491315230805 0.4375 0.14307086771884542
v -0.3639909552075157 0.5 0.0056156248251184315
v -0.4194291322811546 0.5 0.03447491315230805
v -0.3639909552075157 0.4375 0.0056156248251184315
v -0.4194291322811546 0.4375 0.03447491315230805
v -0.3351316668803261 0.5 0.06105380189875728
v -0.390569843953965 0.5 0.0899130902259469
v -0.3351316668803261 0.4375 0.06105380189875728
v -0.390569843953965 0.4375 0.0899130902259469
v -0.2796934898066873 0.5 0.03219451357156769
v -0.3351316668803261 0.5 0.06105380189875728
v -0.2796934898066873 0.4375 0.03219451357156769
v -0.3351316668803261 0.4375 0.06105380189875728
v -0.25083420147949764 0.5 0.08763269064520657
v -0.3062723785531365 0.5 0.11649197897239616
v -0.25083420147949764 0.4375 0.08763269064520657
v -0.3062723785531365 0.4375 0.11649197897239616
v -0.390569843953965 0.5 0.0899130902259469
v -0.44600802102760384 0.5 0.11877237855313649
v -0.390569843953965 0.4375 0.0899130902259469
v -0.44600802102760384 0.4375 0.11877237855313649
v -0.36171055562677534 0.5 0.14535126729958575
v -0.41714873270041425 0.5 0.17421055562677537
v -0.36171055562677534 0.4375 0.14535126729958575
v -0.41714873270041425 0.4375 0.17421055562677537
v -0.41714873270041425 0.5 0.17421055562677537
v -0.4725869097740531 0.5 0.203069843953965
v -0.41714873270041425 0.4375 0.17421055562677537
v -0.4725869097740531 0.4375 0.203069843953965
v -0.38828944437322466 0.5 0.22964873270041425
v -0.4437276214468635 0.5 0.25850802102760384
v -0.38828944437322466 0.4375 0.22964873270041425
v -0.4437276214468635 0.4375 0.25850802102760384
v -0.33285126729958575 0.5 0.20078944437322463
v -0.38828944437322466 0.5 0.22964873270041425
v -0.33285126729958575 0.4375 0.20078944437322463
v -0.38828944437322466 0.4375 0.22964873270041425
v -0.30399197897239616 0.5 0.2562276214468635
v -0.359430156046035 0.5 0.2850869097740531
v -0.30399197897239616 0.4375 0.2562276214468635
v -0.359430156046035 0.4375 0.2850869097740531
v -0.24855380189875728 0.5 0.2273683331196739
v -0.30399197897239616 0.5 0.2562276214468635
v -0.24855380189875728 0.4375 0.2273683331196739
v -0.30399197897239616 0.4375 0.2562276214468635
v -0.2196945135715677 0.5 0.2828065101933127
v -0.27513269064520657 0.5 0.31166579852050236
v -0.2196945135715677 0.4375 0.2828065101933127
v -0.27513269064520657 0.4375 0.31166579852050236
v -0.16425633649792884 0.5 0.2539472218661232
v -0.2196945135715677 0.5 0.2828065101933127
v -0.16425633649792884 0.4375 0.2539472218661232
v -0.2196945135715677 0.4375 0.2828065101933127
v -0.13539704817073922 0.5 0.309385398939762
v -0.19083522524437807 0.5 0.3382446872669516
v -0.13539704817073922 0.4375 0.309385398939762
v -0.19083522524437807 0.4375 0.3382446872669516
v -0.07995887109710031 0.5 0.2805261106125724
v -0.13539704817073922 0.5 0.309385398939762
v -0.07995887109710031 0.4375 0.2805261106125724
v -0.13539704817073922 0.4375 0.309385398939762
v -0.05109958276991078 0.5 0.3359642876862112
v -0.10653775984354963 0.5 0.3648235760134009
v -0.05109958276991078 0.4375 0.3359642876862112
v -0.10653775984354963 0.4375 0.3648235760134009
v -0.024520694023461465 0.5 0.25166682228538284
v -0.07995887109710031 0.5 0.2805261106125724
v -0.024520694023461465 0.4375 0.25166682228538284
v -0.07995887109710031 0.4375 0.2805261106125724
v 0.004338594303728072 0.5 0.3071049993590217
v -0.05109958276991078 0.5 0.3359642876862112
v 0.004338594303728072 0.4375 0.3071049993590217
v -0.05109958276991078 0.4375 0.3359642876862112
v 0.0020581947229877384 0.5 0.16736935688455432
v -0.05337998235065111 0.5 0.19622864521174394
v 0.0020581947229877384 0.4375 0.16736935688455432
v -0.05337998235065111 0.4375 0.19622864521174394
v 0.030917483050177386 0.5 0.2228075339581932
v -0.024520694023461465 0.5 0.25166682228538284
v 0.030917483050177386 0.4375 0.2228075339581932
v -0.024520694023461465 0.4375 0.25166682228538284
v -0.05337998235065111 0.5 0.19622864521174394
v -0.10881815942428996 0.5 0.22508793353893353
v -0.05337998235065111 0.4375 0.19622864521174394
v -0.10881815942428996 0.4375 0.22508793353893353
v -0.024520694023461465 0.5 0.25166682228538284
v -0.07995887109710031 0.5 0.2805261106125724
v -0.024520694023461465 0.4375 0.25166682228538284
v -0.07995887109710031 0.4375 0.2805261106125724
v -0.10881815942428996 0.5 0.22508793353893353
v -0.16425633649792884 0.5 0.2539472218661232
v -0.10881815942428996 0.4375 0.22508793353893353
v -0.16425633649792884 0.4375 0.2539472218661232
v -0.07995887109710031 0.5 0.2805261106125724
v -0.13539704817073922 0.5 0.309385398939762
v -0.07995887109710031 0.4375 0.2805261106125724
v -0.13539704817073922 0.4375 0.309385398939762
v -0.0822392706778407 0.5 0.14079046813810508
v -0.13767744775147955 0.5 0.16964975646529468
v -0.0822392706778407 0.4375 0.14079046813810508
v -0.13767744775147955 0.4375 0.16964975646529468
v -0.05337998235065111 0.5 0.19622864521174394
v -0.10881815942428996 0.5 0.22508793353893353
v -0.05337998235065111 0.4375 0.19622864521174394
v -0.10881815942428996 0.4375 0.22508793353893353
v -0.13767744775147955 0.5 0.16964975646529468
v -0.19311562482511843 0.5 0.1985090447924843
v -0.13767744775147955 0.4375 0.16964975646529468
v -0.19311562482511843 0.4375 0.1985090447924843
v -0.10881815942428996 0.5 0.22508793353893353
v -0.16425633649792884 0.5 0.2539472218661232
v -0.10881815942428996 0.4375 0.22508793353893353
v -0.16425633649792884 0.4375 0.2539472218661232
v -0.19311562482511843 0.5 0.1985090447924843
v -0.24855380189875728 0.5 0.2273683331196739
v -0.19311562482511843 0.4375 0.1985090447924843
v -0.24855380189875728 0.4375 0.2273683331196739
v -0.16425633649792884 0.5 0.2539472218661232
v -0.2196945135715677 0.5 0.2828065101933127
v -0.16425633649792884 0.4375 0.2539472218661232
v -0.2196945135715677 0.4375 0.2828065101933127
v -0.16653673607866917 0.5 0.1142115793916558
v -0.22197491315230805 0.5 0.14307086771884542
v -0.16653673607866917 0.4375 0.1142115793916558
v -0.22197491315230805 0.4375 0.14307086771884542
v -0.13767744775147955 0.5 0.16964975646529468
v -0.19311562482511843 0.5 0.1985090447924843
v -0.13767744775147955 0.4375 0.16964975646529468
v -0.19311562482511843 0.4375 0.1985090447924843
v -0.22197491315230805 0.5 0.14307086771884542
v -0.2774130902259469 0.5 0.171930156046035
v -0.22197491315230805 0.4375 0.14307086771884542
v -0.2774130902259469 0.4375 0.171930156046035
v -0.19311562482511843 0.5 0.1985090447924843
v -0.24855380189875728 0.5 0.2273683331196739
v -0.19311562482511843 0.4375 0.1985090447924843
v -0.24855380189875728 0.4375 0.2273683331196739
v -0.2774130902259469 0.5 0.171930156046035
v -0.33285126729958575 0.5 0.20078944437322463
v -0.2774130902259469 0.4375 0.171930156046035
v -0.33285126729958575 0.4375 0.20078944437322463
v -0.24855380189875728 0.5 0.2273683331196739
v -0.30399197897239616 0.5 0.2562276214468635
v -0.24855380189875728 0.4375 0.2273683331196739
v -0.30399197897239616 0.4375 0.2562276214468635
v -0.3062723785531365 0.5 0.11649197897239616
v -0.36171055562677534 0.5 0.14535126729958575
v -0.3062723785531365 0.4375 0.11649197897239616
v -0.36171055562677534 0.4375 0.14535126729958575
v -0.2774130902259469 0.5 0.171930156046035
v -0.33285126729958575 0.5 0.20078944437322463
v -0.2774130902259469 0.4375 0.171930156046035
v -0.33285126729958575 0.4375 0.20078944437322463
v -0.25083420147949764 0.5 0.08763269064520657
v -0.3062723785531365 0.5 0.11649197897239616
v -0.25083420147949764 0.4375 0.08763269064520657
v -0.3062723785531365 0.4375 0.11649197897239616
v -0.22197491315230805 0.5 0.14307086771884542
v -0.2774130902259469 0.5 0.171930156046035
v -0.22197491315230805 0.4375 0.14307086771884542
v -0.2774130902259469 0.4375 0.171930156046035
v -0.3351316668803261 0.5 0.06105380189875728
v -0.390569843953965 0.5 0.0899130902259469
v -0.3351316668803261 0.4375 0.06105380189875728
v -0.390569843953965 0.4375 0.0899130902259469
v -0.3062723785531365 0.5 0.11649197897239616
v -0.36171055562677534 0.5 0.14535126729958575
v -0.3062723785531365 0.4375 0.11649197897239616
v -0.36171055562677534 0.4375 0.14535126729958575
v -0.026801093604201853 0.5 0.11193117981091547
v -0.0822392706778407 0.5 0.14079046813810508
v -0.026801093604201853 0.4375 0.11193117981091547
v -0.0822392706778407 0.4375 0.14079046813810508
v 0.0020581947229877384 0.5 0.16736935688455432
v -0.05337998235065111 0.5 0.19622864521174394
v 0.0020581947229877384 0.4375 0.16736935688455432
v -0.05337998235065111 0.4375 0.19622864521174394
v 0.057496371796626644 0.5 0.13851006855736472
v 0.0020581947229877384 0.5 0.16736935688455432
v 0.057496371796626644 0.4375 0.13851006855736472
v 0.0020581947229877384 0.4375 0.16736935688455432
v 0.08635566012381624 0.5 0.1939482456310036
v 0.030917483050177386 0.5 0.2228075339581932
v 0.08635566012381624 0.4375 0.1939482456310036
v 0.030917483050177386 0.4375 0.2228075339581932
v 0.030917483050177386 0.5 0.2228075339581932
v -0.024520694023461465 0.5 0.25166682228538284
v 0.030917483050177386 0.4375 0.2228075339581932
v -0.024520694023461465 0.4375 0.25166682228538284
v 0.05977677137736692 0.5 0.27824571103183204
v 0.004338594303728072 0.5 0.3071049993590217
v 0.05977677137736692 0.4375 0.27824571103183204
v 0.004338594303728072 0.4375 0.3071049993590217
v 0.004338594303728072 0.5 0.3071049993590217
v -0.05109958276991078 0.5 0.3359642876862112
v 0.004338594303728072 0.4375 0.3071049993590217
v -0.05109958276991078 0.4375 0.3359642876862112
v 0.03319788263091772 0.5 0.36254317643266054
v -0.02224029444272113 0.5 0.3914024647598501
v 0.03319788263091772 0.4375 0.36254317643266054
v -0.02224029444272113 0.4375 0.3914024647598501
vt 0.15625 0.390625
vt 0.140625 0.390625
vt 0.140625 0.375
vt 0.15625 0.375
vt 0.1875 0.375
vt 0.1875 0.390625
vt 0.171875 0.390625
vt 0.171875 0.375
vt 0.625 0.984375
vt 0.640625 0.984375
vt 0.640625 1
vt 0.625 1
vt 0.640625 0.953125
vt 0.640625 0.96875
vt 0.625 0.96875
vt 0.625 0.953125
vt 0.640625 0.921875
vt 0.640625 0.9375
vt 0.625 0.9375
vt 0.625 0.921875
vt 0.640625 0.90625
vt 0.625 0.90625
vt 0.625 0.890625
vt 0.640625 0.890625
vt 0.640625 0.875
vt 0.625 0.875
vt 0.625 0.859375
vt 0.640625 0.859375
vt 0.640625 0.828125
vt 0.640625 0.84375
vt 0.625 0.84375
vt 0.625 0.828125
vt 0.625 0.796875
vt 0.640625 0.796875
vt 0.640625 0.8125
vt 0.625 0.8125
vt 0.21875 0.359375
vt 0.21875 0.375
vt 0.203125 0.375
vt 0.203125 0.359375
vt 0.640625 0.765625
vt 0.640625 0.78125
vt 0.625 0.78125
vt 0.625 0.765625
vt 0.25 0.375
vt 0.234375 0.375
vt 0.234375 0.359375
vt 0.25 0.359375
vt 0.640625 0.75
vt 0.625 0.75
vt 0.625 0.734375
vt 0.640625 0.734375
vt 0.640625 0.703125
vt 0.640625 0.71875
vt 0.625 0.71875
vt 0.625 0.703125
vt 0.625 0.671875
vt 0.640625 0.671875
vt 0.640625 0.6875
vt 0.625 0.6875
vt 0.640625 0.640625
vt 0.640625 0.65625
vt 0.625 0.65625
vt 0.625 0.640625
vt 0.640625 0.609375
vt 0.640625 0.625
vt 0.625 0.625
vt 0.625 0.609375
vt 0.640625 0.59375
vt 0.625 0.59375
vt 0.625 0.578125
vt 0.640625 0.578125
vt 0.640625 0.5625
vt 0.625 0.5625
vt 0.625 0.546875
vt 0.640625 0.546875
vt 0.640625 0.515625
vt 0.640625 0.53125
vt 0.625 0.53125
vt 0.625 0.515625
vt 0.625 0.484375
vt 0.640625 0.484375
vt 0.640625 0.5
vt 0.625 0.5
vt 0.640625 0.453125
vt 0.640625 0.46875
vt 0.625 0.46875
vt 0.625 0.453125
vt 0.640625 0.421875
vt 0.640625 0.4375
vt 0.625 0.4375
vt 0.625 0.421875
vt 0.15625 0.359375
vt 0.140625 0.359375
vt 0.140625 0.34375
vt 0.15625 0.34375
vt 0.1875 0.359375
vt 0.171875 0.359375
vt 0.171875 0.34375
vt 0.1875 0.34375
vt 0.5625 0.34375
vt 0.5625 0.359375
vt 0.546875 0.359375
vt 0.546875 0.34375
vt 0.578125 0.34375
vt 0.59375 0.34375
vt 0.59375 0.359375
vt 0.578125 0.359375
vt 0.65625 0.390625
vt 0.65625 0.40625
vt 0.640625 0.40625
vt 0.640625 0.390625
vt 0.625 0.34375
vt 0.625 0.359375
vt 0.609375 0.359375
vt 0.609375 0.34375
vt 0.65625 0.375
vt 0.640625 0.375
vt 0.640625 0.359375
vt 0.65625 0.359375
vt 0.671875 1
vt 0.65625 1
vt 0.65625 0.984375
vt 0.671875 0.984375
vt 0.671875 0.953125
vt 0.671875 0.96875
vt 0.65625 0.96875
vt 0.65625 0.953125
vt 0.65625 0.921875
vt 0.671875 0.921875
vt 0.671875 0.9375
vt 0.65625 0.9375
vt 0.671875 0.890625
vt 0.671875 0.90625
vt 0.65625 0.90625
vt 0.65625 0.890625
vt 0.671875 0.859375
vt 0.671875 0.875
vt 0.65625 0.875
vt 0.65625 0.859375
vt 0.671875 0.84375
vt 0.65625 0.84375
vt 0.65625 0.828125
vt 0.671875 0.828125
vt 0.671875 0.8125
vt 0.65625 0.8125
vt 0.65625 0.796875
vt 0.671875 0.796875
vt 0.21875 0.328125
vt 0.21875 0.34375
vt 0.203125 0.34375
vt 0.203125 0.328125
vt 0.65625 0.765625
vt 0.671875 0.765625
vt 0.671875 0.78125
vt 0.65625 0.78125
vt 0.25 0.328125
vt 0.25 0.34375
vt 0.234375 0.34375
vt 0.234375 0.328125
vt 0.671875 0.734375
vt 0.671875 0.75
vt 0.65625 0.75
vt 0.65625 0.734375
vt 0.28125 0.34375
vt 0.265625 0.34375
vt 0.265625 0.328125
vt 0.28125 0.328125
vt 0.671875 0.71875
vt 0.65625 0.71875
vt 0.65625 0.703125
vt 0.671875 0.703125
vt 0.3125 0.328125
vt 0.3125 0.34375
vt 0.296875 0.34375
vt 0.296875 0.328125
vt 0.65625 0.671875
vt 0.671875 0.671875
vt 0.671875 0.6875
vt 0.65625 0.6875
vt 0.34375 0.328125
vt 0.34375 0.34375
vt 0.328125 0.34375
vt 0.328125 0.328125
vt 0.671875 0.640625
vt 0.671875 0.65625
vt 0.65625 0.65625
vt 0.65625 0.640625
vt 0.375 0.34375
vt 0.359375 0.34375
vt 0.359375 0.328125
vt 0.375 0.328125
vt 0.671875 0.625
vt 0.65625 0.625
vt 0.65625 0.609375
vt 0.671875 0.609375
vt 0.40625 0.328125
vt 0.40625 0.34375
vt 0.390625 0.34375
vt 0.390625 0.328125
vt 0.65625 0.578125
vt 0.671875 0.578125
vt 0.671875 0.59375
vt 0.65625 0.59375
vt 0.4375 0.328125
vt 0.4375 0.34375
vt 0.421875 0.34375
vt 0.421875 0.328125
vt 0.671875 0.546875
vt 0.671875 0.5625
vt 0.65625 0.5625
vt 0.65625 0.546875
vt 0.46875 0.34375
vt 0.453125 0.34375
vt 0.453125 0.328125
vt 0.46875 0.328125
vt 0.671875 0.53125
vt 0.65625 0.53125
vt 0.65625 0.515625
vt 0.671875 0.515625
vt 0.5 0.328125
vt 0.5 0.34375
vt 0.484375 0.34375
vt 0.484375 0.328125
vt 0.65625 0.484375
vt 0.671875 0.484375
vt 0.671875 0.5
vt 0.65625 0.5
vt 0.53125 0.328125
vt 0.53125 0.34375
vt 0.515625 0.34375
vt 0.515625 0.328125
vt 0.671875 0.453125
vt 0.671875 0.46875
vt 0.65625 0.46875
vt 0.65625 0.453125
vt 0.671875 0.4375
vt 0.65625 0.4375
vt 0.65625 0.421875
vt 0.671875 0.421875
vt 0.65625 0.34375
vt 0.640625 0.34375
vt 0.640625 0.328125
vt 0.65625 0.328125
vt 0.15625 0.3125
vt 0.15625 0.328125
vt 0.140625 0.328125
vt 0.140625 0.3125
vt 0.171875 0.3125
vt 0.1875 0.3125
vt 0.1875 0.328125
vt 0.171875 0.328125
vt 0.5625 0.3125
vt 0.5625 0.328125
vt 0.546875 0.328125
vt 0.546875 0.3125
vt 0.59375 0.3125
vt 0.59375 0.328125
vt 0.578125 0.328125
vt 0.578125 0.3125
vt 0.6875 0.40625
vt 0.671875 0.40625
vt 0.671875 0.390625
vt 0.6875 0.390625
vt 0.625 0.328125
vt 0.609375 0.328125
vt 0.609375 0.3125
vt 0.625 0.3125
vt 0.6875 0.359375
vt 0.6875 0.375
vt 0.671875 0.375
vt 0.671875 0.359375
vt 0.671875 0.328125
vt 0.6875 0.328125
vt 0.6875 0.34375
vt 0.671875 0.34375
vt 0.703125 0.984375
vt 0.703125 1
vt 0.6875 1
vt 0.6875 0.984375
vt 0.703125 0.953125
vt 0.703125 0.96875
vt 0.6875 0.96875
vt 0.6875 0.953125
vt 0.703125 0.9375
vt 0.6875 0.9375
vt 0.6875 0.921875
vt 0.703125 0.921875
vt 0.703125 0.90625
vt 0.6875 0.90625
vt 0.6875 0.890625
vt 0.703125 0.890625
vt 0.703125 0.859375
vt 0.703125 0.875
vt 0.6875 0.875
vt 0.6875 0.859375
vt 0.6875 0.828125
vt 0.703125 0.828125
vt 0.703125 0.84375
vt 0.6875 0.84375
vt 0.703125 0.796875
vt 0.703125 0.8125
vt 0.6875 0.8125
vt 0.6875 0.796875
vt 0.21875 0.296875
vt 0.21875 0.3125
vt 0.203125 0.3125
vt 0.203125 0.296875
vt 0.703125 0.78125
vt 0.6875 0.78125
vt 0.6875 0.765625
vt 0.703125 0.765625
vt 0.25 0.3125
vt 0.234375 0.3125
vt 0.234375 0.296875
vt 0.25 0.296875
vt 0.703125 0.734375
vt 0.703125 0.75
vt 0.6875 0.75
vt 0.6875 0.734375
vt 0.265625 0.296875
vt 0.28125 0.296875
vt 0.28125 0.3125
vt 0.265625 0.3125
vt 0.703125 0.703125
vt 0.703125 0.71875
vt 0.6875 0.71875
vt 0.6875 0.703125
vt 0.3125 0.296875
vt 0.3125 0.3125
vt 0.296875 0.3125
vt 0.296875 0.296875
vt 0.703125 0.6875
vt 0.6875 0.6875
vt 0.6875 0.671875
vt 0.703125 0.671875
vt 0.34375 0.3125
vt 0.328125 0.3125
vt 0.328125 0.296875
vt 0.34375 0.296875
vt 0.703125 0.640625
vt 0.703125 0.65625
vt 0.6875 0.65625
vt 0.6875 0.640625
vt 0.359375 0.296875
vt 0.375 0.296875
vt 0.375 0.3125
vt 0.359375 0.3125
vt 0.703125 0.609375
vt 0.703125 0.625
vt 0.6875 0.625
vt 0.6875 0.609375
vt 0.40625 0.296875
vt 0.40625 0.3125
vt 0.390625 0.3125
vt 0.390625 0.296875
vt 0.703125 0.59375
vt 0.6875 0.59375
vt 0.6875 0.578125
vt 0.703125 0.578125
vt 0.4375 0.3125
vt 0.421875 0.3125
vt 0.421875 0.296875
vt 0.4375 0.296875
vt 0.703125 0.546875
vt 0.703125 0.5625
vt 0.6875 0.5625
vt 0.6875 0.546875
vt 0.453125 0.296875
vt 0.46875 0.296875
vt 0.46875 0.3125
vt 0.453125 0.3125
vt 0.703125 0.515625
vt 0.703125 0.53125
vt 0.6875 0.53125
vt 0.6875 0.515625
vt 0.5 0.296875
vt 0.5 0.3125
vt 0.484375 0.3125
vt 0.484375 0.296875
vt 0.703125 0.5
vt 0.6875 0.5
vt 0.6875 0.484375
vt 0.703125 0.484375
vt 0.53125 0.3125
vt 0.515625 0.3125
vt 0.515625 0.296875
vt 0.53125 0.296875
vt 0.703125 0.453125
vt 0.703125 0.46875
vt 0.6875 0.46875
vt 0.6875 0.453125
vt 0.6875 0.421875
vt 0.703125 0.421875
vt 0.703125 0.4375
vt 0.6875 0.4375
vt 0.65625 0.296875
vt 0.65625 0.3125
vt 0.640625 0.3125
vt 0.640625 0.296875
vt 0.6875 0.296875
vt 0.6875 0.3125
vt 0.671875 0.3125
vt 0.671875 0.296875
vt 0.15625 0.296875
vt 0.140625 0.296875
vt 0.140625 0.28125
vt 0.15625 0.28125
vt 0.1875 0.296875
vt 0.171875 0.296875
vt 0.171875 0.28125
vt 0.1875 0.28125
vt 0.5625 0.28125
vt 0.5625 0.296875
vt 0.546875 0.296875
vt 0.546875 0.28125
vt 0.578125 0.28125
vt 0.59375 0.28125
vt 0.59375 0.296875
vt 0.578125 0.296875
vt 0.71875 0.390625
vt 0.71875 0.40625
vt 0.703125 0.40625
vt 0.703125 0.390625
vt 0.625 0.28125
vt 0.625 0.296875
vt 0.609375 0.296875
vt 0.609375 0.28125
vt 0.71875 0.375
vt 0.703125 0.375
vt 0.703125 0.359375
vt 0.71875 0.359375
vt 0.71875 0.34375
vt 0.703125 0.34375
vt 0.703125 0.328125
vt 0.71875 0.328125
vt 0.71875 0.296875
vt 0.71875 0.3125
vt 0.703125 0.3125
vt 0.703125 0.296875
vt 0.71875 0.984375
vt 0.734375 0.984375
vt 0.734375 1
vt 0.71875 1
vt 0.734375 0.953125
vt 0.734375 0.96875
vt 0.71875 0.96875
vt 0.71875 0.953125
vt 0.734375 0.921875
vt 0.734375 0.9375
vt 0.71875 0.9375
vt 0.71875 0.921875
vt 0.734375 0.90625
vt 0.71875 0.90625
vt 0.71875 0.890625
vt 0.734375 0.890625
vt 0.734375 0.875
vt 0.71875 0.875
vt 0.71875 0.859375
vt 0.734375 0.859375
vt 0.734375 0.828125
vt 0.734375 0.84375
vt 0.71875 0.84375
vt 0.71875 0.828125
vt 0.71875 0.796875
vt 0.734375 0.796875
vt 0.734375 0.8125
vt 0.71875 0.8125
vt 0.21875 0.265625
vt 0.21875 0.28125
vt 0.203125 0.28125
vt 0.203125 0.265625
vt 0.734375 0.765625
vt 0.734375 0.78125
vt 0.71875 0.78125
vt 0.71875 0.765625
vt 0.25 0.28125
vt 0.234375 0.28125
vt 0.234375 0.265625
vt 0.25 0.265625
vt 0.734375 0.75
vt 0.71875 0.75
vt 0.71875 0.734375
vt 0.734375 0.734375
vt 0.28125 0.265625
vt 0.28125 0.28125
vt 0.265625 0.28125
vt 0.265625 0.265625
vt 0.71875 0.703125
vt 0.734375 0.703125
vt 0.734375 0.71875
vt 0.71875 0.71875
vt 0.3125 0.265625
vt 0.3125 0.28125
vt 0.296875 0.28125
vt 0.296875 0.265625
vt 0.734375 0.671875
vt 0.734375 0.6875
vt 0.71875 0.6875
vt 0.71875 0.671875
vt 0.34375 0.28125
vt 0.328125 0.28125
vt 0.328125 0.265625
vt 0.34375 0.265625
vt 0.734375 0.65625
vt 0.71875 0.65625
vt 0.71875 0.640625
vt 0.734375 0.640625
vt 0.375 0.265625
vt 0.375 0.28125
vt 0.359375 0.28125
vt 0.359375 0.265625
vt 0.71875 0.609375
vt 0.734375 0.609375
vt 0.734375 0.625
vt 0.71875 0.625
vt 0.40625 0.265625
vt 0.40625 0.28125
vt 0.390625 0.28125
vt 0.390625 0.265625
vt 0.734375 0.578125
vt 0.734375 0.59375
vt 0.71875 0.59375
vt 0.71875 0.578125
vt 0.4375 0.28125
vt 0.421875 0.28125
vt 0.421875 0.265625
vt 0.4375 0.265625
vt 0.734375 0.5625
vt 0.71875 0.5625
vt 0.71875 0.546875
vt 0.734375 0.546875
vt 0.46875 0.265625
vt 0.46875 0.28125
vt 0.453125 0.28125
vt 0.453125 0.265625
vt 0.71875 0.515625
vt 0.734375 0.515625
vt 0.734375 0.53125
vt 0.71875 0.53125
vt 0.5 0.265625
vt 0.5 0.28125
vt 0.484375 0.28125
vt 0.484375 0.265625
vt 0.734375 0.484375
vt 0.734375 0.5
vt 0.71875 0.5
vt 0.71875 0.484375
vt 0.53125 0.28125
vt 0.515625 0.28125
vt 0.515625 0.265625
vt 0.53125 0.265625
vt 0.734375 0.46875
vt 0.71875 0.46875
vt 0.71875 0.453125
vt 0.734375 0.453125
vt 0.734375 0.421875
vt 0.734375 0.4375
vt 0.71875 0.4375
vt 0.71875 0.421875
vt 0.640625 0.265625
vt 0.65625 0.265625
vt 0.65625 0.28125
vt 0.640625 0.28125
vt 0.6875 0.265625
vt 0.6875 0.28125
vt 0.671875 0.28125
vt 0.671875 0.265625
vt 0.71875 0.265625
vt 0.71875 0.28125
vt 0.703125 0.28125
vt 0.703125 0.265625
vt 0.015625 0.265625
vt 0 0.265625
vt 0 0.25
vt 0.015625 0.25
vt 0.046875 0.265625
vt 0.03125 0.265625
vt 0.03125 0.25
vt 0.046875 0.25
vt 0.078125 0.25
vt 0.078125 0.265625
vt 0.0625 0.265625
vt 0.0625 0.25
vt 0.09375 0.25
vt 0.109375 0.25
vt 0.109375 0.265625
vt 0.09375 0.265625
vt 0.140625 0.25
vt 0.140625 0.265625
vt 0.125 0.265625
vt 0.125 0.25
vt 0.171875 0.25
vt 0.171875 0.265625
vt 0.15625 0.265625
vt 0.15625 0.25
vt 0.5625 0.265625
vt 0.546875 0.265625
vt 0.546875 0.25
vt 0.5625 0.25
vt 0.59375 0.265625
vt 0.578125 0.265625
vt 0.578125 0.25
vt 0.59375 0.25
vt 0.75 0.390625
vt 0.75 0.40625
vt 0.734375 0.40625
vt 0.734375 0.390625
vt 0.609375 0.25
vt 0.625 0.25
vt 0.625 0.265625
vt 0.609375 0.265625
vt 0.75 0.359375
vt 0.75 0.375
vt 0.734375 0.375
vt 0.734375 0.359375
vt 0.75 0.328125
vt 0.75 0.34375
vt 0.734375 0.34375
vt 0.734375 0.328125
vt 0.75 0.3125
vt 0.734375 0.3125
vt 0.734375 0.296875
vt 0.75 0.296875
vt 0.75 0.28125
vt 0.734375 0.28125
vt 0.734375 0.265625
vt 0.75 0.265625
vt 0.765625 0.984375
vt 0.765625 1
vt 0.75 1
vt 0.75 0.984375
vt 0.75 0.953125
vt 0.765625 0.953125
vt 0.765625 0.96875
vt 0.75 0.96875
vt 0.765625 0.921875
vt 0.765625 0.9375
vt 0.75 0.9375
vt 0.75 0.921875
vt 0.765625 0.890625
vt 0.765625 0.90625
vt 0.75 0.90625
vt 0.75 0.890625
vt 0.765625 0.875
vt 0.75 0.875
vt 0.75 0.859375
vt 0.765625 0.859375
vt 0.765625 0.84375
vt 0.75 0.84375
vt 0.75 0.828125
vt 0.765625 0.828125
vt 0.203125 0.234375
vt 0.203125 0.25
vt 0.1875 0.25
vt 0.1875 0.234375
vt 0.75 0.796875
vt 0.765625 0.796875
vt 0.765625 0.8125
vt 0.75 0.8125
vt 0.234375 0.234375
vt 0.234375 0.25
vt 0.21875 0.25
vt 0.21875 0.234375
vt 0.765625 0.765625
vt 0.765625 0.78125
vt 0.75 0.78125
vt 0.75 0.765625
vt 0.265625 0.25
vt 0.25 0.25
vt 0.25 0.234375
vt 0.265625 0.234375
vt 0.765625 0.75
vt 0.75 0.75
vt 0.75 0.734375
vt 0.765625 0.734375
vt 0.296875 0.234375
vt 0.296875 0.25
vt 0.28125 0.25
vt 0.28125 0.234375
vt 0.75 0.703125
vt 0.765625 0.703125
vt 0.765625 0.71875
vt 0.75 0.71875
vt 0.328125 0.234375
vt 0.328125 0.25
vt 0.3125 0.25
vt 0.3125 0.234375
vt 0.765625 0.671875
vt 0.765625 0.6875
vt 0.75 0.6875
vt 0.75 0.671875
vt 0.359375 0.25
vt 0.34375 0.25
vt 0.34375 0.234375
vt 0.359375 0.234375
vt 0.765625 0.65625
vt 0.75 0.65625
vt 0.75 0.640625
vt 0.765625 0.640625
vt 0.390625 0.234375
vt 0.390625 0.25
vt 0.375 0.25
vt 0.375 0.234375
vt 0.75 0.609375
vt 0.765625 0.609375
vt 0.765625 0.625
vt 0.75 0.625
vt 0.421875 0.234375
vt 0.421875 0.25
vt 0.40625 0.25
vt 0.40625 0.234375
vt 0.765625 0.578125
vt 0.765625 0.59375
vt 0.75 0.59375
vt 0.75 0.578125
vt 0.453125 0.25
vt 0.4375 0.25
vt 0.4375 0.234375
vt 0.453125 0.234375
vt 0.765625 0.5625
vt 0.75 0.5625
vt 0.75 0.546875
vt 0.765625 0.546875
vt 0.484375 0.234375
vt 0.484375 0.25
vt 0.46875 0.25
vt 0.46875 0.234375
vt 0.75 0.515625
vt 0.765625 0.515625
vt 0.765625 0.53125
vt 0.75 0.53125
vt 0.515625 0.234375
vt 0.515625 0.25
vt 0.5 0.25
vt 0.5 0.234375
vt 0.765625 0.484375
vt 0.765625 0.5
vt 0.75 0.5
vt 0.75 0.484375
vt 0.765625 0.46875
vt 0.75 0.46875
vt 0.75 0.453125
vt 0.765625 0.453125
vt 0.765625 0.4375
vt 0.75 0.4375
vt 0.75 0.421875
vt 0.765625 0.421875
vt 0.65625 0.234375
vt 0.65625 0.25
vt 0.640625 0.25
vt 0.640625 0.234375
vt 0.671875 0.234375
vt 0.6875 0.234375
vt 0.6875 0.25
vt 0.671875 0.25
vt 0.71875 0.234375
vt 0.71875 0.25
vt 0.703125 0.25
vt 0.703125 0.234375
vt 0.75 0.234375
vt 0.75 0.25
vt 0.734375 0.25
vt 0.734375 0.234375
vt 0.015625 0.234375
vt 0 0.234375
vt 0 0.21875
vt 0.015625 0.21875
vt 0.046875 0.234375
vt 0.03125 0.234375
vt 0.03125 0.21875
vt 0.046875 0.21875
vt 0.078125 0.21875
vt 0.078125 0.234375
vt 0.0625 0.234375
vt 0.0625 0.21875
vt 0.09375 0.21875
vt 0.109375 0.21875
vt 0.109375 0.234375
vt 0.09375 0.234375
vt 0.140625 0.21875
vt 0.140625 0.234375
vt 0.125 0.234375
vt 0.125 0.21875
vt 0.171875 0.21875
vt 0.171875 0.234375
vt 0.15625 0.234375
vt 0.15625 0.21875
vt 0.546875 0.234375
vt 0.53125 0.234375
vt 0.53125 0.21875
vt 0.546875 0.21875
vt 0.578125 0.234375
vt 0.5625 0.234375
vt 0.5625 0.21875
vt 0.578125 0.21875
vt 0.609375 0.21875
vt 0.609375 0.234375
vt 0.59375 0.234375
vt 0.59375 0.21875
vt 0.765625 0.390625
vt 0.78125 0.390625
vt 0.78125 0.40625
vt 0.765625 0.40625
vt 0.78125 0.359375
vt 0.78125 0.375
vt 0.765625 0.375
vt 0.765625 0.359375
vt 0.78125 0.328125
vt 0.78125 0.34375
vt 0.765625 0.34375
vt 0.765625 0.328125
vt 0.78125 0.3125
vt 0.765625 0.3125
vt 0.765625 0.296875
vt 0.78125 0.296875
vt 0.78125 0.28125
vt 0.765625 0.28125
vt 0.765625 0.265625
vt 0.78125 0.265625
vt 0.78125 0.234375
vt 0.78125 0.25
vt 0.765625 0.25
vt 0.765625 0.234375
vt 0.78125 0.984375
vt 0.796875 0.984375
vt 0.796875 1
vt 0.78125 1
vt 0.796875 0.953125
vt 0.796875 0.96875
vt 0.78125 0.96875
vt 0.78125 0.953125
vt 0.796875 0.921875
vt 0.796875 0.9375
vt 0.78125 0.9375
vt 0.78125 0.921875
vt 0.796875 0.90625
vt 0.78125 0.90625
vt 0.78125 0.890625
vt 0.796875 0.890625
vt 0.796875 0.875
vt 0.78125 0.875
vt 0.78125 0.859375
vt 0.796875 0.859375
vt 0.796875 0.828125
vt 0.796875 0.84375
vt 0.78125 0.84375
vt 0.78125 0.828125
vt 0.1875 0.203125
vt 0.203125 0.203125
vt 0.203125 0.21875
vt 0.1875 0.21875
vt 0.796875 0.796875
vt 0.796875 0.8125
vt 0.78125 0.8125
vt 0.78125 0.796875
vt 0.234375 0.203125
vt 0.234375 0.21875
vt 0.21875 0.21875
vt 0.21875 0.203125
vt 0.796875 0.78125
vt 0.78125 0.78125
vt 0.78125 0.765625
vt 0.796875 0.765625
vt 0.265625 0.21875
vt 0.25 0.21875
vt 0.25 0.203125
vt 0.265625 0.203125
vt 0.796875 0.734375
vt 0.796875 0.75
vt 0.78125 0.75
vt 0.78125 0.734375
vt 0.28125 0.203125
vt 0.296875 0.203125
vt 0.296875 0.21875
vt 0.28125 0.21875
vt 0.796875 0.703125
vt 0.796875 0.71875
vt 0.78125 0.71875
vt 0.78125 0.703125
vt 0.328125 0.203125
vt 0.328125 0.21875
vt 0.3125 0.21875
vt 0.3125 0.203125
vt 0.796875 0.6875
vt 0.78125 0.6875
vt 0.78125 0.671875
vt 0.796875 0.671875
vt 0.359375 0.21875
vt 0.34375 0.21875
vt 0.34375 0.203125
vt 0.359375 0.203125
vt 0.796875 0.640625
vt 0.796875 0.65625
vt 0.78125 0.65625
vt 0.78125 0.640625
vt 0.375 0.203125
vt 0.390625 0.203125
vt 0.390625 0.21875
vt 0.375 0.21875
vt 0.796875 0.609375
vt 0.796875 0.625
vt 0.78125 0.625
vt 0.78125 0.609375
vt 0.421875 0.203125
vt 0.421875 0.21875
vt 0.40625 0.21875
vt 0.40625 0.203125
vt 0.796875 0.59375
vt 0.78125 0.59375
vt 0.78125 0.578125
vt 0.796875 0.578125
vt 0.453125 0.21875
vt 0.4375 0.21875
vt 0.4375 0.203125
vt 0.453125 0.203125
vt 0.796875 0.546875
vt 0.796875 0.5625
vt 0.78125 0.5625
vt 0.78125 0.546875
vt 0.46875 0.203125
vt 0.484375 0.203125
vt 0.484375 0.21875
vt 0.46875 0.21875
vt 0.796875 0.515625
vt 0.796875 0.53125
vt 0.78125 0.53125
vt 0.78125 0.515625
vt 0.515625 0.203125
vt 0.515625 0.21875
vt 0.5 0.21875
vt 0.5 0.203125
vt 0.796875 0.5
vt 0.78125 0.5
vt 0.78125 0.484375
vt 0.796875 0.484375
vt 0.796875 0.46875
vt 0.78125 0.46875
vt 0.78125 0.453125
vt 0.796875 0.453125
vt 0.796875 0.421875
vt 0.796875 0.4375
vt 0.78125 0.4375
vt 0.78125 0.421875
vt 0.625 0.203125
vt 0.640625 0.203125
vt 0.640625 0.21875
vt 0.625 0.21875
vt 0.671875 0.203125
vt 0.671875 0.21875
vt 0.65625 0.21875
vt 0.65625 0.203125
vt 0.703125 0.203125
vt 0.703125 0.21875
vt 0.6875 0.21875
vt 0.6875 0.203125
vt 0.734375 0.21875
vt 0.71875 0.21875
vt 0.71875 0.203125
vt 0.734375 0.203125
vt 0.765625 0.21875
vt 0.75 0.21875
vt 0.75 0.203125
vt 0.765625 0.203125
vt 0.796875 0.203125
vt 0.796875 0.21875
vt 0.78125 0.21875
vt 0.78125 0.203125
vt 0 0.1875
vt 0.015625 0.1875
vt 0.015625 0.203125
vt 0 0.203125
vt 0.046875 0.1875
vt 0.046875 0.203125
vt 0.03125 0.203125
vt 0.03125 0.1875
vt 0.078125 0.1875
vt 0.078125 0.203125
vt 0.0625 0.203125
vt 0.0625 0.1875
vt 0.109375 0.203125
vt 0.09375 0.203125
vt 0.09375 0.1875
vt 0.109375 0.1875
vt 0.140625 0.203125
vt 0.125 0.203125
vt 0.125 0.1875
vt 0.140625 0.1875
vt 0.171875 0.1875
vt 0.171875 0.203125
vt 0.15625 0.203125
vt 0.15625 0.1875
vt 0.53125 0.1875
vt 0.546875 0.1875
vt 0.546875 0.203125
vt 0.53125 0.203125
vt 0.578125 0.1875
vt 0.578125 0.203125
vt 0.5625 0.203125
vt 0.5625 0.1875
vt 0.609375 0.1875
vt 0.609375 0.203125
vt 0.59375 0.203125
vt 0.59375 0.1875
vt 0.8125 0.40625
vt 0.796875 0.40625
vt 0.796875 0.390625
vt 0.8125 0.390625
vt 0.8125 0.375
vt 0.796875 0.375
vt 0.796875 0.359375
vt 0.8125 0.359375
vt 0.8125 0.328125
vt 0.8125 0.34375
vt 0.796875 0.34375
vt 0.796875 0.328125
vt 0.796875 0.296875
vt 0.8125 0.296875
vt 0.8125 0.3125
vt 0.796875 0.3125
vt 0.8125 0.265625
vt 0.8125 0.28125
vt 0.796875 0.28125
vt 0.796875 0.265625
vt 0.8125 0.234375
vt 0.8125 0.25
vt 0.796875 0.25
vt 0.796875 0.234375
vt 0.828125 1
vt 0.8125 1
vt 0.8125 0.984375
vt 0.828125 0.984375
vt 0.828125 0.96875
vt 0.8125 0.96875
vt 0.8125 0.953125
vt 0.828125 0.953125
vt 0.828125 0.921875
vt 0.828125 0.9375
vt 0.8125 0.9375
vt 0.8125 0.921875
vt 0.8125 0.890625
vt 0.828125 0.890625
vt 0.828125 0.90625
vt 0.8125 0.90625
vt 0.828125 0.859375
vt 0.828125 0.875
vt 0.8125 0.875
vt 0.8125 0.859375
vt 0.828125 0.828125
vt 0.828125 0.84375
vt 0.8125 0.84375
vt 0.8125 0.828125
vt 0.203125 0.1875
vt 0.1875 0.1875
vt 0.1875 0.171875
vt 0.203125 0.171875
vt 0.828125 0.8125
vt 0.8125 0.8125
vt 0.8125 0.796875
vt 0.828125 0.796875
vt 0.234375 0.171875
vt 0.234375 0.1875
vt 0.21875 0.1875
vt 0.21875 0.171875
vt 0.8125 0.765625
vt 0.828125 0.765625
vt 0.828125 0.78125
vt 0.8125 0.78125
vt 0.265625 0.171875
vt 0.265625 0.1875
vt 0.25 0.1875
vt 0.25 0.171875
vt 0.828125 0.734375
vt 0.828125 0.75
vt 0.8125 0.75
vt 0.8125 0.734375
vt 0.296875 0.1875
vt 0.28125 0.1875
vt 0.28125 0.171875
vt 0.296875 0.171875
vt 0.828125 0.71875
vt 0.8125 0.71875
vt 0.8125 0.703125
vt 0.828125 0.703125
vt 0.328125 0.171875
vt 0.328125 0.1875
vt 0.3125 0.1875
vt 0.3125 0.171875
vt 0.8125 0.671875
vt 0.828125 0.671875
vt 0.828125 0.6875
vt 0.8125 0.6875
vt 0.359375 0.171875
vt 0.359375 0.1875
vt 0.34375 0.1875
vt 0.34375 0.171875
vt 0.828125 0.640625
vt 0.828125 0.65625
vt 0.8125 0.65625
vt 0.8125 0.640625
vt 0.390625 0.1875
vt 0.375 0.1875
vt 0.375 0.171875
vt 0.390625 0.171875
vn -0.4617486132350337 0 -0.8870108331782218
vn 0.4617486132350337 0 0.8870108331782218
vn 0 1 0
vn 0 -1 0
vn 0.8870108331782218 0 -0.4617486132350337
vn -0.8870108331782218 0 0.4617486132350337
vn -0.4617486132350337 0 -0.8870108331782218
vn 0.4617486132350337 0 0.8870108331782218
vn 0 1 0
vn 0 -1 0
vn 0.8870108331782218 0 -0.4617486132350337
vn -0.8870108331782218 0 0.4617486132350337
vn -0.4617486132350337 0 -0.8870108331782218
vn 0.4617486132350337 0 0.8870108331782218
vn 0 1 0
vn 0 -1 0
vn 0.8870108331782218 0 -0.4617486132350337
vn -0.8870108331782218 0 0.4617486132350337
vn -0.4617486132350337 0 -0.8870108331782218
vn 0.4617486132350337 0 0.8870108331782218
vn 0 1 0
vn 0 -1 0
vn 0.8870108331782218 0 -0.4617486132350337
vn -0.8870108331782218 0 0.4617486132350337
vn -0.4617486132350337 0 -0.8870108331782218
vn 0.4617486132350337 0 0.8870108331782218
vn 0 1 0
vn 0 -1 0
vn 0.8870108331782218 0 -0.4617486132350337
vn -0.8870108331782218 0 0.4617486132350337
vn -0.4617486132350337 0 -0.8870108331782218
vn 0.4617486132350337 0 0.8870108331782218
vn 0 1 0
vn 0 -1 0
vn 0.8870108331782218 0 -0.4617486132350337
vn -0.8870108331782218 0 0.4617486132350337
vn -0.4617486132350337 0 -0.8870108331782218
vn 0.4617486132350337 0 0.8870108331782218
vn 0 1 0
vn 0 -1 0
vn 0.8870108331782218 0 -0.4617486132350337
vn -0.8870108331782218 0 0.4617486132350337
vn -0.4617486132350337 0 -0.8870108331782218
vn 0.4617486132350337 0 0.8870108331782218
vn 0 1 0
vn 0 -1 0
vn 0.8870108331782218 0 -0.4617486132350337
vn -0.8870108331782218 0 0.4617486132350337
vn -0.4617486132350337 0 -0.8870108331782218
vn 0.4617486132350337 0 0.8870108331782218
vn 0 1 0
vn 0 -1 0
vn 0.8870108331782218 0 -0.4617486132350337
vn -0.8870108331782218 0 0.4617486132350337
vn -0.4617486132350337 0 -0.8870108331782218
vn 0.4617486132350337 0 0.8870108331782218
vn 0 1 0
vn 0 -1 0
vn 0.8870108331782218 0 -0.4617486132350337
vn -0.8870108331782218 0 0.4617486132350337
vn -0.4617486132350337 0 -0.8870108331782218
vn 0.4617486132350337 0 0.8870108331782218
vn 0 1 0
vn 0 -1 0
vn 0.8870108331782218 0 -0.4617486132350337
vn -0.8870108331782218 0 0.4617486132350337
vn -0.4617486132350337 0 -0.8870108331782218
vn 0.4617486132350337 0 0.8870108331782218
vn 0 1 0
vn 0 -1 0
vn 0.8870108331782218 0 -0.4617486132350337
vn -0.8870108331782218 0 0.4617486132350337
vn -0.4617486132350337 0 -0.8870108331782218
vn 0.4617486132350337 0 0.8870108331782218
vn 0 1 0
vn 0 -1 0
vn 0.8870108331782218 0 -0.4617486132350337
vn -0.8870108331782218 0 0.4617486132350337
vn -0.4617486132350337 0 -0.8870108331782218
vn 0.4617486132350337 0 0.8870108331782218
vn 0 1 0
vn 0 -1 0
vn 0.8870108331782218 0 -0.4617486132350337
vn -0.8870108331782218 0 0.4617486132350337
vn -0.4617486132350337 0 -0.8870108331782218
vn 0.4617486132350337 0 0.8870108331782218
vn 0 1 0
vn 0 -1 0
vn 0.8870108331782218 0 -0.4617486132350337
vn -0.8870108331782218 0 0.4617486132350337
vn -0.4617486132350337 0 -0.8870108331782218
vn 0.4617486132350337 0 0.8870108331782218
vn 0 1 0
vn 0 -1 0
vn 0.8870108331782218 0 -0.4617486132350337
vn -0.8870108331782218 0 0.4617486132350337
vn -0.4617486132350337 0 -0.8870108331782218
vn 0.4617486132350337 0 0.8870108331782218
vn 0 1 0
vn 0 -1 0
vn 0.8870108331782218 0 -0.4617486132350337
vn -0.8870108331782218 0 0.4617486132350337
vn -0.4617486132350337 0 -0.8870108331782218
vn 0.4617486132350337 0 0.8870108331782218
vn 0 1 0
vn 0 -1 0
vn 0.8870108331782218 0 -0.4617486132350337
vn -0.8870108331782218 0 0.4617486132350337
vn -0.4617486132350337 0 -0.8870108331782218
vn 0.4617486132350337 0 0.8870108331782218
vn 0 1 0
vn 0 -1 0
vn 0.8870108331782218 0 -0.4617486132350337
vn -0.8870108331782218 0 0.4617486132350337
vn -0.4617486132350337 0 -0.8870108331782218
vn 0.4617486132350337 0 0.8870108331782218
vn 0 1 0
vn 0 -1 0
vn 0.8870108331782218 0 -0.4617486132350337
vn -0.8870108331782218 0 0.4617486132350337
vn -0.4617486132350337 0 -0.8870108331782218
vn 0.4617486132350337 0 0.8870108331782218
vn 0 1 0
vn 0 -1 0
vn 0.8870108331782218 0 -0.4617486132350337
vn -0.8870108331782218 0 0.4617486132350337
vn -0.4617486132350337 0 -0.8870108331782218
vn 0.4617486132350337 0 0.8870108331782218
vn 0 1 0
vn 0 -1 0
vn 0.8870108331782218 0 -0.4617486132350337
vn -0.8870108331782218 0 0.4617486132350337
vn -0.4617486132350337 0 -0.8870108331782218
vn 0.4617486132350337 0 0.8870108331782218
vn 0 1 0
vn 0 -1 0
vn 0.8870108331782218 0 -0.4617486132350337
vn -0.8870108331782218 0 0.4617486132350337
vn -0.4617486132350337 0 -0.8870108331782218
vn 0.4617486132350337 0 0.8870108331782218
vn 0 1 0
vn 0 -1 0
vn 0.8870108331782218 0 -0.4617486132350337
vn -0.8870108331782218 0 0.4617486132350337
vn -0.4617486132350337 0 -0.8870108331782218
vn 0.4617486132350337 0 0.8870108331782218
vn 0 1 0
vn 0 -1 0
vn 0.8870108331782218 0 -0.4617486132350337
vn -0.8870108331782218 0 0.4617486132350337
vn -0.4617486132350337 0 -0.8870108331782218
vn 0.4617486132350337 0 0.8870108331782218
vn 0 1 0
vn 0 -1 0
vn 0.8870108331782218 0 -0.4617486132350337
vn -0.8870108331782218 0 0.4617486132350337
vn -0.4617486132350337 0 -0.8870108331782218
vn 0.4617486132350337 0 0.8870108331782218
vn 0 1 0
vn 0 -1 0
vn 0.8870108331782218 0 -0.4617486132350337
vn -0.8870108331782218 0 0.4617486132350337
vn -0.4617486132350337 0 -0.8870108331782218
vn 0.4617486132350337 0 0.8870108331782218
vn 0 1 0
vn 0 -1 0
vn 0.8870108331782218 0 -0.4617486132350337
vn -0.8870108331782218 0 0.4617486132350337
vn -0.4617486132350337 0 -0.8870108331782218
vn 0.4617486132350337 0 0.8870108331782218
vn 0 1 0
vn 0 -1 0
vn 0.8870108331782218 0 -0.4617486132350337
vn -0.8870108331782218 0 0.4617486132350337
vn -0.4617486132350337 0 -0.8870108331782218
vn 0.4617486132350337 0 0.8870108331782218
vn 0 1 0
vn 0 -1 0
vn 0.8870108331782218 0 -0.4617486132350337
vn -0.8870108331782218 0 0.4617486132350337
vn -0.4617486132350337 0 -0.8870108331782218
vn 0.4617486132350337 0 0.8870108331782218
vn 0 1 0
vn 0 -1 0
vn 0.8870108331782218 0 -0.4617486132350337
vn -0.8870108331782218 0 0.4617486132350337
vn -0.4617486132350337 0 -0.8870108331782218
vn 0.4617486132350337 0 0.8870108331782218
vn 0 1 0
vn 0 -1 0
vn 0.8870108331782218 0 -0.4617486132350337
vn -0.8870108331782218 0 0.4617486132350337
vn -0.4617486132350337 0 -0.8870108331782218
vn 0.4617486132350337 0 0.8870108331782218
vn 0 1 0
vn 0 -1 0
vn 0.8870108331782218 0 -0.4617486132350337
vn -0.8870108331782218 0 0.4617486132350337
vn -0.4617486132350337 0 -0.8870108331782218
vn 0.4617486132350337 0 0.8870108331782218
vn 0 1 0
vn 0 -1 0
vn 0.8870108331782218 0 -0.4617486132350337
vn -0.8870108331782218 0 0.4617486132350337
vn -0.4617486132350337 0 -0.8870108331782218
vn 0.4617486132350337 0 0.8870108331782218
vn 0 1 0
vn 0 -1 0
vn 0.8870108331782218 0 -0.4617486132350337
vn -0.8870108331782218 0 0.4617486132350337
vn -0.4617486132350337 0 -0.8870108331782218
vn 0.4617486132350337 0 0.8870108331782218
vn 0 1 0
vn 0 -1 0
vn 0.8870108331782218 0 -0.4617486132350337
vn -0.8870108331782218 0 0.4617486132350337
vn -0.4617486132350337 0 -0.8870108331782218
vn 0.4617486132350337 0 0.8870108331782218
vn 0 1 0
vn 0 -1 0
vn 0.8870108331782218 0 -0.4617486132350337
vn -0.8870108331782218 0 0.4617486132350337
vn -0.4617486132350337 0 -0.8870108331782218
vn 0.4617486132350337 0 0.8870108331782218
vn 0 1 0
vn 0 -1 0
vn 0.8870108331782218 0 -0.4617486132350337
vn -0.8870108331782218 0 0.4617486132350337
vn -0.4617486132350337 0 -0.8870108331782218
vn 0.4617486132350337 0 0.8870108331782218
vn 0 1 0
vn 0 -1 0
vn 0.8870108331782218 0 -0.4617486132350337
vn -0.8870108331782218 0 0.4617486132350337
vn -0.4617486132350337 0 -0.8870108331782218
vn 0.4617486132350337 0 0.8870108331782218
vn 0 1 0
vn 0 -1 0
vn 0.8870108331782218 0 -0.4617486132350337
vn -0.8870108331782218 0 0.4617486132350337
vn -0.4617486132350337 0 -0.8870108331782218
vn 0.4617486132350337 0 0.8870108331782218
vn 0 1 0
vn 0 -1 0
vn 0.8870108331782218 0 -0.4617486132350337
vn -0.8870108331782218 0 0.4617486132350337
vn -0.4617486132350337 0 -0.8870108331782218
vn 0.4617486132350337 0 0.8870108331782218
vn 0 1 0
vn 0 -1 0
vn 0.8870108331782218 0 -0.4617486132350337
vn -0.8870108331782218 0 0.4617486132350337
vn -0.4617486132350337 0 -0.8870108331782218
vn 0.4617486132350337 0 0.8870108331782218
vn 0 1 0
vn 0 -1 0
vn 0.8870108331782218 0 -0.4617486132350337
vn -0.8870108331782218 0 0.4617486132350337
vn -0.4617486132350337 0 -0.8870108331782218
vn 0.4617486132350337 0 0.8870108331782218
vn 0 1 0
vn 0 -1 0
vn 0.8870108331782218 0 -0.4617486132350337
vn -0.8870108331782218 0 0.4617486132350337
vn -0.4617486132350337 0 -0.8870108331782218
vn 0.4617486132350337 0 0.8870108331782218
vn 0 1 0
vn 0 -1 0
vn 0.8870108331782218 0 -0.4617486132350337
vn -0.8870108331782218 0 0.4617486132350337
vn -0.4617486132350337 0 -0.8870108331782218
vn 0.4617486132350337 0 0.8870108331782218
vn 0 1 0
vn 0 -1 0
vn 0.8870108331782218 0 -0.4617486132350337
vn -0.8870108331782218 0 0.4617486132350337
usemtl m_ffcebcc6-9077-e34a-2b41-d27cc7cd3c11
f 202/601/151 201/602/151 203/603/151 204/604/151
f 207/605/152 205/606/152 206/607/152 208/608/152
f 205/609/153 201/610/153 202/611/153 206/612/153
f 204/613/154 203/614/154 207/615/154 208/616/154
f 203/617/155 201/618/155 205/619/155 207/620/155
f 206/621/156 202/622/156 204/623/156 208/624/156
f 210/625/157 209/626/157 211/627/157 212/628/157
f 215/629/158 213/630/158 214/631/158 216/632/158
f 213/633/159 209/634/159 210/635/159 214/636/159
f 212/637/160 211/638/160 215/639/160 216/640/160
f 211/641/161 209/642/161 213/643/161 215/644/161
f 214/645/162 210/646/162 212/647/162 216/648/162
f 218/649/163 217/650/163 219/651/163 220/652/163
f 223/653/164 221/654/164 222/655/164 224/656/164
f 221/657/165 217/658/165 218/659/165 222/660/165
f 220/661/166 219/662/166 223/663/166 224/664/166
f 219/665/167 217/666/167 221/667/167 223/668/167
f 222/669/168 218/670/168 220/671/168 224/672/168
f 226/673/169 225/674/169 227/675/169 228/676/169
f 231/677/170 229/678/170 230/679/170 232/680/170
f 229/681/171 225/682/171 226/683/171 230/684/171
f 228/685/172 227/686/172 231/687/172 232/688/172
f 227/689/173 225/690/173 229/691/173 231/692/173
f 230/693/174 226/694/174 228/695/174 232/696/174
f 234/697/175 233/698/175 235/699/175 236/700/175
f 239/701/176 237/702/176 238/703/176 240/704/176
f 237/705/177 233/706/177 234/707/177 238/708/177
f 236/709/178 235/710/178 239/711/178 240/712/178
f 235/713/179 233/714/179 237/715/179 239/716/179
f 238/717/180 234/718/180 236/719/180 240/720/180
f 242/721/181 241/722/181 243/723/181 244/724/181
f 247/725/182 245/726/182 246/727/182 248/728/182
f 245/729/183 241/730/183 242/731/183 246/732/183
f 244/733/184 243/734/184 247/735/184 248/736/184
f 243/737/185 241/738/185 245/739/185 247/740/185
f 246/741/186 242/742/186 244/743/186 248/744/186
f 250/745/187 249/746/187 251/747/187 252/748/187
f 255/749/188 253/750/188 254/751/188 256/752/188
f 253/753/189 249/754/189 250/755/189 254/756/189
f 252/757/190 251/758/190 255/759/190 256/760/190
f 251/761/191 249/762/191 253/763/191 255/764/191
f 254/765/192 250/766/192 252/767/192 256/768/192
f 258/769/193 257/770/193 259/771/193 260/772/193
f 263/773/194 261/774/194 262/775/194 264/776/194
f 261/777/195 257/778/195 258/779/195 262/780/195
f 260/781/196 259/782/196 263/783/196 264/784/196
f 259/785/197 257/786/197 261/787/197 263/788/197
f 262/789/198 258/790/198 260/791/198 264/792/198
f 266/793/199 265/794/199 267/795/199 268/796/199
f 271/797/200 269/798/200 270/799/200 272/800/200
f 269/801/201 265/802/201 266/803/201 270/804/201
f 268/805/202 267/806/202 271/807/202 272/808/202
f 267/809/203 265/810/203 269/811/203 271/812/203
f 270/813/204 266/814/204 268/815/204 272/816/204
f 274/817/205 273/818/205 275/819/205 276/820/205
f 279/821/206 277/822/206 278/823/206 280/824/206
f 277/825/207 273/826/207 274/827/207 278/828/207
f 276/829/208 275/830/208 279/831/208 280/832/208
f 275/833/209 273/834/209 277/835/209 279/836/209
f 278/837/210 274/838/210 276/839/210 280/840/210
f 282/841/211 281/842/211 283/843/211 284/844/211
f 287/845/212 285/846/212 286/847/212 288/848/212
f 285/849/213 281/850/213 282/851/213 286/852/213
f 284/853/214 283/854/214 287/855/214 288/856/214
f 283/857/215 281/858/215 285/859/215 287/860/215
f 286/861/216 282/862/216 284/863/216 288/864/216
f 290/865/217 289/866/217 291/867/217 292/868/217
f 295/869/218 293/870/218 294/871/218 296/872/218
f 293/873/219 289/874/219 290/875/219 294/876/219
f 292/877/220 291/878/220 295/879/220 296/880/220
f 291/881/221 289/882/221 293/883/221 295/884/221
f 294/885/222 290/886/222 292/887/222 296/888/222
f 298/889/223 297/890/223 299/891/223 300/892/223
f 303/893/224 301/894/224 302/895/224 304/896/224
f 301/897/225 297/898/225 298/899/225 302/900/225
f 300/901/226 299/902/226 303/903/226 304/904/226
f 299/905/227 297/906/227 301/907/227 303/908/227
f 302/909/228 298/910/228 300/911/228 304/912/228
f 306/913/229 305/914/229 307/915/229 308/916/229
f 311/917/230 309/918/230 310/919/230 312/920/230
f 309/921/231 305/922/231 306/923/231 310/924/231
f 308/925/232 307/926/232 311/927/232 312/928/232
f 307/929/233 305/930/233 309/931/233 311/932/233
f 310/933/234 306/934/234 308/935/234 312/936/234
f 314/937/235 313/938/235 315/939/235 316/940/235
f 319/941/236 317/942/236 318/943/236 320/944/236
f 317/945/237 313/946/237 314/947/237 318/948/237
f 316/949/238 315/950/238 319/951/238 320/952/238
f 315/953/239 313/954/239 317/955/239 319/956/239
f 318/957/240 314/958/240 316/959/240 320/960/240
f 322/961/241 321/962/241 323/963/241 324/964/241
f 327/965/242 325/966/242 326/967/242 328/968/242
f 325/969/243 321/970/243 322/971/243 326/972/243
f 324/973/244 323/974/244 327/975/244 328/976/244
f 323/977/245 321/978/245 325/979/245 327/980/245
f 326/981/246 322/982/246 324/983/246 328/984/246
f 330/985/247 329/986/247 331/987/247 332/988/247
f 335/989/248 333/990/248 334/991/248 336/992/248
f 333/993/249 329/994/249 330/995/249 334/996/249
f 332/997/250 331/998/250 335/999/250 336/1000/250
f 331/1001/251 329/1002/251 333/1003/251 335/1004/251
f 334/1005/252 330/1006/252 332/1007/252 336/1008/252
f 338/1009/253 337/1010/253 339/1011/253 340/1012/253
f 343/1013/254 341/1014/254 342/1015/254 344/1016/254
f 341/1017/255 337/1018/255 338/1019/255 342/1020/255
f 340/1021/256 339/1022/256 343/1023/256 344/1024/256
f 339/1025/257 337/1026/257 341/1027/257 343/1028/257
f 342/1029/258 338/1030/258 340/1031/258 344/1032/258
f 346/1033/259 345/1034/259 347/1035/259 348/1036/259
f 351/1037/260 349/1038/260 350/1039/260 352/1040/260
f 349/1041/261 345/1042/261 346/1043/261 350/1044/261
f 348/1045/262 347/1046/262 351/1047/262 352/1048/262
f 347/1049/263 345/1050/263 349/1051/263 351/1052/263
f 350/1053/264 346/1054/264 348/1055/264 352/1056/264
f 354/1057/265 353/1058/265 355/1059/265 356/1060/265
f 359/1061/266 357/1062/266 358/1063/266 360/1064/266
f 357/1065/267 353/1066/267 354/1067/267 358/1068/267
f 356/1069/268 355/1070/268 359/1071/268 360/1072/268
f 355/1073/269 353/1074/269 357/1075/269 359/1076/269
f 358/1077/270 354/1078/270 356/1079/270 360/1080/270
f 362/1081/271 361/1082/271 363/1083/271 364/1084/271
f 367/1085/272 365/1086/272 366/1087/272 368/1088/272
f 365/1089/273 361/1090/273 362/1091/273 366/1092/273
f 364/1093/274 363/1094/274 367/1095/274 368/1096/274
f 363/1097/275 361/1098/275 365/1099/275 367/1100/275
f 366/1101/276 362/1102/276 364/1103/276 368/1104/276
f 370/1105/277 369/1106/277 371/1107/277 372/1108/277
f 375/1109/278 373/1110/278 374/1111/278 376/1112/278
f 373/1113/279 369/1114/279 370/1115/279 374/1116/279
f 372/1117/280 371/1118/280 375/1119/280 376/1120/280
f 371/1121/281 369/1122/281 373/1123/281 375/1124/281
f 374/1125/282 370/1126/282 372/1127/282 376/1128/282
f 378/1129/283 377/1130/283 379/1131/283 380/1132/283
f 383/1133/284 381/1134/284 382/1135/284 384/1136/284
f 381/1137/285 377/1138/285 378/1139/285 382/1140/285
f 380/1141/286 379/1142/286 383/1143/286 384/1144/286
f 379/1145/287 377/1146/287 381/1147/287 383/1148/287
f 382/1149/288 378/1150/288 380/1151/288 384/1152/288
f 386/1153/289 385/1154/289 387/1155/289 388/1156/289
f 391/1157/290 389/1158/290 390/1159/290 392/1160/290
f 389/1161/291 385/1162/291 386/1163/291 390/1164/291
f 388/1165/292 387/1166/292 391/1167/292 392/1168/292
f 387/1169/293 385/1170/293 389/1171/293 391/1172/293
f 390/1173/294 386/1174/294 388/1175/294 392/1176/294
f 394/1177/295 393/1178/295 395/1179/295 396/1180/295
f 399/1181/296 397/1182/296 398/1183/296 400/1184/296
f 397/1185/297 393/1186/297 394/1187/297 398/1188/297
f 396/1189/298 395/1190/298 399/1191/298 400/1192/298
f 395/1193/299 393/1194/299 397/1195/299 399/1196/299
f 398/1197/300 394/1198/300 396/1199/300 400/1200/300
f 402/1201/301 401/1202/301 403/1203/301 404/1204/301
f 407/1205/302 405/1206/302 406/1207/302 408/1208/302
f 405/1209/303 401/1210/303 402/1211/303 406/1212/303
f 404/1213/304 403/1214/304 407/1215/304 408/1216/304
f 403/1217/305 401/1218/305 405/1219/305 407/1220/305
f 406/1221/306 402/1222/306 404/1223/306 408/1224/306
f 410/1225/307 409/1226/307 411/1227/307 412/1228/307
f 415/1229/308 413/1230/308 414/1231/308 416/1232/308
f 413/1233/309 409/1234/309 410/1235/309 414/1236/309
f 412/1237/310 411/1238/310 415/1239/310 416/1240/310
f 411/1241/311 409/1242/311 413/1243/311 415/1244/311
f 414/1245/312 410/1246/312 412/1247/312 416/1248/312
f 418/1249/313 417/1250/313 419/1251/313 420/1252/313
f 423/1253/314 421/1254/314 422/1255/314 424/1256/314
f 421/1257/315 417/1258/315 418/1259/315 422/1260/315
f 420/1261/316 419/1262/316 423/1263/316 424/1264/316
f 419/1265/317 417/1266/317 421/1267/317 423/1268/317
f 422/1269/318 418/1270/318 420/1271/318 424/1272/318
f 426/1273/319 425/1274/319 427/1275/319 428/1276/319
f 431/1277/320 429/1278/320 430/1279/320 432/1280/320
f 429/1281/321 425/1282/321 426/1283/321 430/1284/321
f 428/1285/322 427/1286/322 431/1287/322 432/1288/322
f 427/1289/323 425/1290/323 429/1291/323 431/1292/323
f 430/1293/324 426/1294/324 428/1295/324 432/1296/324
f 434/1297/325 433/1298/325 435/1299/325 436/1300/325
f 439/1301/326 437/1302/326 438/1303/326 440/1304/326
f 437/1305/327 433/1306/327 434/1307/327 438/1308/327
f 436/1309/328 435/1310/328 439/1311/328 440/1312/328
f 435/1313/329 433/1314/329 437/1315/329 439/1316/329
f 438/1317/330 434/1318/330 436/1319/330 440/1320/330
f 442/1321/331 441/1322/331 443/1323/331 444/1324/331
f 447/1325/332 445/1326/332 446/1327/332 448/1328/332
f 445/1329/333 441/1330/333 442/1331/333 446/1332/333
f 444/1333/334 443/1334/334 447/1335/334 448/1336/334
f 443/1337/335 441/1338/335 445/1339/335 447/1340/335
f 446/1341/336 442/1342/336 444/1343/336 448/1344/336
f 450/1345/337 449/1346/337 451/1347/337 452/1348/337
f 455/1349/338 453/1350/338 454/1351/338 456/1352/338
f 453/1353/339 449/1354/339 450/1355/339 454/1356/339
f 452/1357/340 451/1358/340 455/1359/340 456/1360/340
f 451/1361/341 449/1362/341 453/1363/341 455/1364/341
f 454/1365/342 450/1366/342 452/1367/342 456/1368/342
f 458/1369/343 457/1370/343 459/1371/343 460/1372/343
f 463/1373/344 461/1374/344 462/1375/344 464/1376/344
f 461/1377/345 457/1378/345 458/1379/345 462/1380/345
f 460/1381/346 459/1382/346 463/1383/346 464/1384/346
f 459/1385/347 457/1386/347 461/1387/347 463/1388/347
f 462/1389/348 458/1390/348 460/1391/348 464/1392/348
f 466/1393/349 465/1394/349 467/1395/349 468/1396/349
f 471/1397/350 469/1398/350 470/1399/350 472/1400/350
f 469/1401/351 465/1402/351 466/1403/351 470/1404/351
f 468/1405/352 467/1406/352 471/1407/352 472/1408/352
f 467/1409/353 465/1410/353 469/1411/353 471/1412/353
f 470/1413/354 466/1414/354 468/1415/354 472/1416/354
f 474/1417/355 473/1418/355 475/1419/355 476/1420/355
f 479/1421/356 477/1422/356 478/1423/356 480/1424/356
f 477/1425/357 473/1426/357 474/1427/357 478/1428/357
f 476/1429/358 475/1430/358 479/1431/358 480/1432/358
f 475/1433/359 473/1434/359 477/1435/359 479/1436/359
f 478/1437/360 474/1438/360 476/1439/360 480/1440/360
f 482/1441/361 481/1442/361 483/1443/361 484/1444/361
f 487/1445/362 485/1446/362 486/1447/362 488/1448/362
f 485/1449/363 481/1450/363 482/1451/363 486/1452/363
f 484/1453/364 483/1454/364 487/1455/364 488/1456/364
f 483/1457/365 481/1458/365 485/1459/365 487/1460/365
f 486/1461/366 482/1462/366 484/1463/366 488/1464/366
f 490/1465/367 489/1466/367 491/1467/367 492/1468/367
f 495/1469/368 493/1470/368 494/1471/368 496/1472/368
f 493/1473/369 489/1474/369 490/1475/369 494/1476/369
f 492/1477/370 491/1478/370 495/1479/370 496/1480/370
f 491/1481/371 489/1482/371 493/1483/371 495/1484/371
f 494/1485/372 490/1486/372 492/1487/372 496/1488/372
f 498/1489/373 497/1490/373 499/1491/373 500/1492/373
f 503/1493/374 501/1494/374 502/1495/374 504/1496/374
f 501/1497/375 497/1498/375 498/1499/375 502/1500/375
f 500/1501/376 499/1502/376 503/1503/376 504/1504/376
f 499/1505/377 497/1506/377 501/1507/377 503/1508/377
f 502/1509/378 498/1510/378 500/1511/378 504/1512/378
f 506/1513/379 505/1514/379 507/1515/379 508/1516/379
f 511/1517/380 509/1518/380 510/1519/380 512/1520/380
f 509/1521/381 505/1522/381 506/1523/381 510/1524/381
f 508/1525/382 507/1526/382 511/1527/382 512/1528/382
f 507/1529/383 505/1530/383 509/1531/383 511/1532/383
f 510/1533/384 506/1534/384 508/1535/384 512/1536/384
f 514/1537/385 513/1538/385 515/1539/385 516/1540/385
f 519/1541/386 517/1542/386 518/1543/386 520/1544/386
f 517/1545/387 513/1546/387 514/1547/387 518/1548/387
f 516/1549/388 515/1550/388 519/1551/388 520/1552/388
f 515/1553/389 513/1554/389 517/1555/389 519/1556/389
f 518/1557/390 514/1558/390 516/1559/390 520/1560/390
f 522/1561/391 521/1562/391 523/1563/391 524/1564/391
f 527/1565/392 525/1566/392 526/1567/392 528/1568/392
f 525/1569/393 521/1570/393 522/1571/393 526/1572/393
f 524/1573/394 523/1574/394 527/1575/394 528/1576/394
f 523/1577/395 521/1578/395 525/1579/395 527/1580/395
f 526/1581/396 522/1582/396 524/1583/396 528/1584/396
f 530/1585/397 529/1586/397 531/1587/397 532/1588/397
f 535/1589/398 533/1590/398 534/1591/398 536/1592/398
f 533/1593/399 529/1594/399 530/1595/399 534/1596/399
f 532/1597/400 531/1598/400 535/1599/400 536/1600/400
f 531/1601/401 529/1602/401 533/1603/401 535/1604/401
f 534/1605/402 530/1606/402 532/1607/402 536/1608/402
f 538/1609/403 537/1610/403 539/1611/403 540/1612/403
f 543/1613/404 541/1614/404 542/1615/404 544/1616/404
f 541/1617/405 537/1618/405 538/1619/405 542/1620/405
f 540/1621/406 539/1622/406 543/1623/406 544/1624/406
f 539/1625/407 537/1626/407 541/1627/407 543/1628/407
f 542/1629/408 538/1630/408 540/1631/408 544/1632/408
f 546/1633/409 545/1634/409 547/1635/409 548/1636/409
f 551/1637/410 549/1638/410 550/1639/410 552/1640/410
f 549/1641/411 545/1642/411 546/1643/411 550/1644/411
f 548/1645/412 547/1646/412 551/1647/412 552/1648/412
f 547/1649/413 545/1650/413 549/1651/413 551/1652/413
f 550/1653/414 546/1654/414 548/1655/414 552/1656/414
f 554/1657/415 553/1658/415 555/1659/415 556/1660/415
f 559/1661/416 557/1662/416 558/1663/416 560/1664/416
f 557/1665/417 553/1666/417 554/1667/417 558/1668/417
f 556/1669/418 555/1670/418 559/1671/418 560/1672/418
f 555/1673/419 553/1674/419 557/1675/419 559/1676/419
f 558/1677/420 554/1678/420 556/1679/420 560/1680/420
f 562/1681/421 561/1682/421 563/1683/421 564/1684/421
f 567/1685/422 565/1686/422 566/1687/422 568/1688/422
f 565/1689/423 561/1690/423 562/1691/423 566/1692/423
f 564/1693/424 563/1694/424 567/1695/424 568/1696/424
f 563/1697/425 561/1698/425 565/1699/425 567/1700/425
f 566/1701/426 562/1702/426 564/1703/426 568/1704/426