# Made in Blockbench 5.1.6
mtllib more_decor_press_shaft.mtl

o mesh
v -0.3125 0.09375 -0.09375000000000008
v 0.3125 0.09375 -0.09374999999999992
v 0.3125 -0.09375 -0.09374999999999992
v -0.3125 -0.09375 -0.09375000000000008
v 0.3125 -0.09375 0.09375000000000008
v 0.3125 0.09375 0.09375000000000008
v -0.3125 0.09375 0.09374999999999992
v -0.3125 -0.09375 0.09374999999999992
vt 0.3125 0.75
vt 0 0.75
vt 0 0.65625
vt 0.3125 0.65625
vt 0.65625 0.90625
vt 0.65625 1
vt 0.34375 1
vt 0.34375 0.90625
vt 0.3125 0.90625
vt 0.3125 1
vt 0 1
vt 0 0.90625
vt 0 0.78125
vt 0.3125 0.78125
vt 0.3125 0.875
vt 0 0.875
vt 0.09375 0.53125
vt 0.09375 0.625
vt 0 0.625
vt 0 0.53125
vt 0.21875 0.625
vt 0.125 0.625
vt 0.125 0.53125
vt 0.21875 0.53125
vn 2.6645352591003756e-16 0 -1
vn -2.6645352591003756e-16 0 1
vn 0 1 0
vn 0 -1 0
vn 1 0 0
vn -1 0 0
usemtl m_ff0e1650-3d83-4e4e-da94-83bfbd3969ba
f 1/1/1 2/2/1 3/3/1 4/4/1
f 5/5/2 6/6/2 7/7/2 8/8/2
f 6/9/3 2/10/3 1/11/3 7/12/3
f 4/13/4 3/14/4 5/15/4 8/16/4
f 3/17/5 2/18/5 6/19/5 5/20/5
f 7/21/6 1/22/6 4/23/6 8/24/6
o mesh
v 0.4375 0.03125 -0.03125
v 0.4375 0.03125 0.03125
v 0.4375 -0.03125 0.03125
v 0.4375 -0.03125 -0.03125
v -0.4375 -0.03125 0.03125
v -0.4375 0.03125 0.03125
v -0.4375 0.03125 -0.03125
v -0.4375 -0.03125 -0.03125
vt 0.28125 0.625
vt 0.25 0.625
vt 0.25 0.59375
vt 0.28125 0.59375
vt 0.34375 0.59375
vt 0.34375 0.625
vt 0.3125 0.625
vt 0.3125 0.59375
vt 0.34375 0.84375
vt 0.78125 0.84375
vt 0.78125 0.875
vt 0.34375 0.875
vt 0.78125 0.78125
vt 0.78125 0.8125
vt 0.34375 0.8125
vt 0.34375 0.78125
vt 0.78125 0.71875
vt 0.78125 0.75
vt 0.34375 0.75
vt 0.34375 0.71875
vt 0.78125 0.6875
vt 0.34375 0.6875
vt 0.34375 0.65625
vt 0.78125 0.65625
vn 1 0 0
vn -1 0 0
vn 0 1 0
vn 0 -1 0
vn 0 0 1
vn 0 0 -1
usemtl m_ff0e1650-3d83-4e4e-da94-83bfbd3969ba
f 9/25/7 10/26/7 11/27/7 12/28/7
f 13/29/8 14/30/8 15/31/8 16/32/8
f 14/33/9 10/34/9 9/35/9 15/36/9
f 12/37/10 11/38/10 13/39/10 16/40/10
f 11/41/11 10/42/11 14/43/11 13/44/11
f 15/45/12 9/46/12 12/47/12 16/48/12